<svg width="50" height="50" viewBox="0 0 50 50" fill="none" xmlns="http://www.w3.org/2000/svg">
<mask id="mask0_2218_14247" style="mask-type:alpha" maskUnits="userSpaceOnUse" x="9" y="8" width="32" height="34">
<path d="M25.0083 8.33301C27.8942 8.33301 30.7805 8.52181 33.6668 8.89938C34.8564 9.055 35.7202 10.1085 35.6396 11.3055C35.6388 11.3172 35.6374 11.3366 35.6354 11.3633H36.358C36.6506 11.3633 36.9422 11.3971 37.227 11.4639C39.2677 11.9428 40.5335 13.9821 40.0529 16.0192L39.4124 18.7342C38.7021 21.7451 36.519 24.1676 33.6401 25.2111C33.5887 25.2297 33.5372 25.2424 33.486 25.2498C32.3686 27.3865 30.6575 29.2329 28.3833 30.7778C28.038 31.0124 27.6727 31.2067 27.2942 31.3608C27.4297 34.4119 27.661 36.4858 27.9738 37.5402C28.2536 38.4834 29.1688 39.3934 30.7716 40.2387C31.4709 40.6074 31.2088 41.6663 30.4183 41.6663H19.5928C18.8007 41.6663 18.5399 40.6043 19.2418 40.2374C20.8403 39.4018 21.7575 38.4919 22.0458 37.5368C22.3665 36.4743 22.597 34.4014 22.7227 31.3604C22.3429 31.2066 21.9761 31.0131 21.6292 30.78C19.3136 29.2238 17.6172 27.4057 16.514 25.2753C16.4966 25.2707 16.4791 25.2653 16.4617 25.2593C13.5331 24.2482 11.3172 21.8035 10.5931 18.7342L9.95257 16.0192C9.88546 15.7347 9.85156 15.4434 9.85156 15.1512C9.85156 13.0588 11.5515 11.3633 13.6474 11.3633H14.3725C14.3712 11.3436 14.3699 11.3241 14.3686 11.3047C14.2885 10.1078 15.1525 9.05472 16.342 8.89939C19.2335 8.52182 22.1224 8.33301 25.0083 8.33301ZM25.7986 31.8179H24.2195C24.0854 34.7674 23.8487 36.8073 23.4963 37.9746C23.2573 38.7663 22.7721 39.4901 22.05 40.1512H27.9678C27.2411 39.4865 26.7558 38.7618 26.5213 37.9712C26.1782 36.8148 25.9415 34.7761 25.7986 31.8179ZM25.0083 9.84816C22.1881 9.84816 19.3648 10.0327 16.5382 10.4018C16.1417 10.4536 15.8537 10.8046 15.8804 11.2036C15.931 11.9607 16.0053 12.9657 16.1283 14.5727C16.1463 14.807 16.23 15.8934 16.318 17.0371L16.3511 17.4672C16.4172 18.3264 16.4815 19.1621 16.5179 19.6389C16.84 23.8534 18.7479 27.0181 22.4743 29.5224C23.9915 30.5421 26.0253 30.5481 27.5319 29.5245C31.2003 27.0324 33.2091 23.7507 33.4898 19.645C33.665 17.0828 34.1081 11.497 34.1279 11.2038C34.1547 10.8048 33.8668 10.4536 33.4703 10.4017C30.649 10.0327 27.8284 9.84816 25.0083 9.84816ZM14.4808 12.8785H13.6474C12.3874 12.8785 11.3667 13.8964 11.3667 15.1512C11.3667 15.3263 11.387 15.5008 11.4272 15.6713L12.0678 18.3863C12.5608 20.4765 13.8791 22.2161 15.6713 23.2434C15.3223 22.1541 15.1018 20.9928 15.0072 19.7544C14.9708 19.2778 14.9065 18.4423 14.8404 17.5831L14.8073 17.1531C14.7193 16.0095 14.6356 14.923 14.6176 14.6883C14.5632 13.9781 14.5183 13.3851 14.4808 12.8785ZM36.358 12.8785H35.5245L35.506 13.0343C35.3558 14.9675 35.1183 18.0393 35.0014 19.7483C34.9179 20.9691 34.6964 22.1269 34.3399 23.2205C36.1308 22.1864 37.4503 20.4523 37.9377 18.3863L38.5782 15.6713C38.8663 14.4501 38.107 13.2267 36.8808 12.939C36.7095 12.8988 36.5341 12.8785 36.358 12.8785Z" fill="white"/>
</mask>
<g mask="url(#mask0_2218_14247)">
<path d="M43.1839 6.81934H6.82031V43.183H43.1839V6.81934Z" fill="url(#paint0_linear_2218_14247)"/>
</g>
<defs>
<linearGradient id="paint0_linear_2218_14247" x1="11.3658" y1="6.81934" x2="18.655" y2="47.3587" gradientUnits="userSpaceOnUse">
<stop stop-color="#EB00FF"/>
<stop offset="1" stop-color="#1BFFE4"/>
</linearGradient>
</defs>
</svg>
