<svg width="50" height="50" viewBox="0 0 50 50" fill="none" xmlns="http://www.w3.org/2000/svg">
<mask id="mask0_2218_14251" style="mask-type:alpha" maskUnits="userSpaceOnUse" x="8" y="8" width="34" height="34">
<path d="M19.4431 41.2977C17.3976 41.2977 15.7394 39.6395 15.7394 37.594C15.7394 35.5485 17.3976 33.8903 19.4431 33.8903C21.4886 33.8903 23.1468 35.5485 23.1468 37.594C23.1468 39.6395 21.4886 41.2977 19.4431 41.2977ZM34.258 41.2977C32.2125 41.2977 30.5543 39.6395 30.5543 37.594C30.5543 35.5485 32.2125 33.8903 34.258 33.8903C36.3035 33.8903 37.9617 35.5485 37.9617 37.594C37.9617 39.6395 36.3035 41.2977 34.258 41.2977ZM39.555 15.3001C40.7373 15.3597 41.6654 16.3357 41.6654 17.5195V22.4166C41.6654 24.7168 40.15 26.7421 37.9433 27.3911L29.2526 29.9472C26.2411 30.8329 23.2277 31.3831 20.2131 31.5974C17.3846 31.7984 14.9192 29.6899 14.679 26.8643C14.323 22.6754 13.9521 19.5024 13.5682 17.3525C13.1713 15.1297 12.621 13.0643 11.9179 11.1559C11.7033 10.5735 11.1484 10.1866 10.5277 10.1866H9.07277C8.66367 10.1866 8.33203 9.85492 8.33203 9.44582C8.33203 9.03672 8.66367 8.70508 9.07277 8.70508H10.5277C11.7691 8.70508 12.8789 9.47889 13.308 10.6437C13.7743 11.9094 14.1755 13.2386 14.5118 14.6311C22.4487 14.6357 30.7964 14.8588 39.555 15.3001ZM19.4431 39.8162C20.6704 39.8162 21.6654 38.8213 21.6654 37.594C21.6654 36.3667 20.6704 35.3717 19.4431 35.3717C18.2158 35.3717 17.2209 36.3667 17.2209 37.594C17.2209 38.8213 18.2158 39.8162 19.4431 39.8162ZM34.258 39.8162C35.4853 39.8162 36.4802 38.8213 36.4802 37.594C36.4802 36.3667 35.4853 35.3717 34.258 35.3717C33.0307 35.3717 32.0357 36.3667 32.0357 37.594C32.0357 38.8213 33.0307 39.8162 34.258 39.8162ZM15.0266 17.092C15.4201 19.2954 15.7956 22.5086 16.1552 26.7389C16.3267 28.7571 18.0877 30.2632 20.1081 30.1196C23.0156 29.913 25.9241 29.3819 28.8346 28.5259L37.5252 25.9698C39.1015 25.5062 40.1839 24.0596 40.1839 22.4166V17.5195C40.1839 17.1249 39.8745 16.7996 39.4804 16.7797C30.8669 16.3457 22.6535 16.1234 14.8402 16.1129C14.9056 16.4361 14.9677 16.7624 15.0266 17.092Z" fill="white"/>
</mask>
<g mask="url(#mask0_2218_14251)">
<path d="M19.4431 41.2977C17.3976 41.2977 15.7394 39.6395 15.7394 37.594C15.7394 35.5485 17.3976 33.8903 19.4431 33.8903C21.4886 33.8903 23.1468 35.5485 23.1468 37.594C23.1468 39.6395 21.4886 41.2977 19.4431 41.2977ZM34.258 41.2977C32.2125 41.2977 30.5543 39.6395 30.5543 37.594C30.5543 35.5485 32.2125 33.8903 34.258 33.8903C36.3035 33.8903 37.9617 35.5485 37.9617 37.594C37.9617 39.6395 36.3035 41.2977 34.258 41.2977ZM39.555 15.3001C40.7373 15.3597 41.6654 16.3357 41.6654 17.5195V22.4166C41.6654 24.7168 40.15 26.7421 37.9433 27.3911L29.2526 29.9472C26.2411 30.8329 23.2277 31.3831 20.2131 31.5974C17.3846 31.7984 14.9192 29.6899 14.679 26.8643C14.323 22.6754 13.9521 19.5024 13.5682 17.3525C13.1713 15.1297 12.621 13.0643 11.9179 11.1559C11.7033 10.5735 11.1484 10.1866 10.5277 10.1866H9.07277C8.66367 10.1866 8.33203 9.85492 8.33203 9.44582C8.33203 9.03672 8.66367 8.70508 9.07277 8.70508H10.5277C11.7691 8.70508 12.8789 9.47889 13.308 10.6437C13.7743 11.9094 14.1755 13.2386 14.5118 14.6311C22.4487 14.6357 30.7964 14.8588 39.555 15.3001ZM19.4431 39.8162C20.6704 39.8162 21.6654 38.8213 21.6654 37.594C21.6654 36.3667 20.6704 35.3717 19.4431 35.3717C18.2158 35.3717 17.2209 36.3667 17.2209 37.594C17.2209 38.8213 18.2158 39.8162 19.4431 39.8162ZM34.258 39.8162C35.4853 39.8162 36.4802 38.8213 36.4802 37.594C36.4802 36.3667 35.4853 35.3717 34.258 35.3717C33.0307 35.3717 32.0357 36.3667 32.0357 37.594C32.0357 38.8213 33.0307 39.8162 34.258 39.8162ZM15.0266 17.092C15.4201 19.2954 15.7956 22.5086 16.1552 26.7389C16.3267 28.7571 18.0877 30.2632 20.1081 30.1196C23.0156 29.913 25.9241 29.3819 28.8346 28.5259L37.5252 25.9698C39.1015 25.5062 40.1839 24.0596 40.1839 22.4166V17.5195C40.1839 17.1249 39.8745 16.7996 39.4804 16.7797C30.8669 16.3457 22.6535 16.1234 14.8402 16.1129C14.9056 16.4361 14.9677 16.7624 15.0266 17.092Z" fill="#292F48"/>
<path d="M43.8876 8.70508H8.33203V44.2606H43.8876V8.70508Z" fill="url(#paint0_linear_2218_14251)"/>
</g>
<defs>
<linearGradient id="paint0_linear_2218_14251" x1="12.7765" y1="8.70508" x2="19.9038" y2="48.3436" gradientUnits="userSpaceOnUse">
<stop stop-color="#EB00FF"/>
<stop offset="1" stop-color="#1BFFE4"/>
</linearGradient>
</defs>
</svg>
