<svg width="50" height="50" viewBox="0 0 50 50" fill="none" xmlns="http://www.w3.org/2000/svg">
<mask id="mask0_1_226" style="mask-type:alpha" maskUnits="userSpaceOnUse" x="8" y="11" width="34" height="28">
<path d="M28.0305 34.1086C27.3328 34.1086 26.7484 34.1083 25.6056 34.1076C23.255 34.1061 22.3445 34.1061 21.214 34.1086C20.7956 34.1095 20.4556 33.7711 20.4547 33.3527C20.4538 32.9343 20.7922 32.5944 21.2106 32.5935C22.3431 32.591 23.2544 32.591 25.6066 32.5925C26.749 32.5932 27.3332 32.5935 28.0305 32.5935C28.5671 32.5935 29.0972 32.5901 29.62 32.5835C29.8219 32.581 30.0165 32.6591 30.1606 32.8007L34.3176 36.8861C34.6161 37.1794 35.0957 37.1752 35.389 36.8768C35.5282 36.7351 35.6062 36.5444 35.6062 36.3458V33.0403C35.6062 32.6463 35.9083 32.318 36.301 32.2854C36.87 32.238 37.4147 32.1856 37.9327 32.1284C38.9905 32.0117 39.8256 31.1767 39.9425 30.119C40.0815 28.8608 40.1517 27.1586 40.1517 25.0177C40.1517 23.0013 40.0895 21.2468 39.9654 19.7557C39.845 18.3073 38.9088 17.0652 37.5717 16.5419C37.182 16.3894 36.9898 15.9499 37.1423 15.5603C37.2948 15.1707 37.7342 14.9785 38.1239 15.1309C39.9963 15.8638 41.3067 17.6023 41.4754 19.6302C41.6032 21.1665 41.6668 22.9619 41.6668 25.0177C41.6668 27.2096 41.5945 28.9636 41.4485 30.2854C41.2537 32.0483 39.8618 33.44 38.0989 33.6345C37.7822 33.6694 37.4562 33.7026 37.1214 33.7339V36.3458C37.1214 36.9417 36.8873 37.5138 36.4696 37.9388C35.5898 38.8341 34.1509 38.8466 33.2556 37.9668L29.3232 34.1021C28.8967 34.1065 28.4657 34.1086 28.0305 34.1086ZM13.6979 29.2533C14.0912 29.2852 14.3941 29.6137 14.3941 30.0084V33.3155C14.3941 33.5141 14.4721 33.7048 14.6114 33.8465C14.9046 34.1449 15.3843 34.1491 15.6827 33.8558L19.8644 29.7462C20.0079 29.6051 20.2017 29.527 20.4029 29.529C20.8724 29.5337 21.3517 29.536 21.8407 29.536C25.7577 29.536 29.1008 29.3863 31.868 29.0877C32.9285 28.9732 33.7668 28.1366 33.8833 27.0763C34.0213 25.8193 34.0911 24.1213 34.0911 21.9874C34.0911 19.9731 34.029 18.2204 33.9052 16.7303C33.7527 14.893 32.2995 13.4325 30.463 13.2706C27.6344 13.0212 24.7871 12.8965 21.9208 12.8965C19.0708 12.8965 16.2556 13.0198 13.4752 13.2663C11.6397 13.4291 10.1876 14.8891 10.0349 16.7254C9.91087 18.2165 9.84865 19.971 9.84865 21.9874C9.84865 24.1283 9.91883 25.8305 10.0578 27.0887C10.1747 28.1464 11.0098 28.9814 12.0676 29.0981C12.5871 29.1555 13.1305 29.2072 13.6979 29.2533ZM11.9015 30.6042C10.1385 30.4097 8.74661 29.018 8.55184 27.2551C8.40582 25.9333 8.3335 24.1793 8.3335 21.9874C8.3335 19.9316 8.39717 18.1361 8.52494 16.5999C8.73876 14.029 10.7717 11.9849 13.3414 11.7571C16.1666 11.5066 19.0264 11.3813 21.9208 11.3813C24.8314 11.3813 27.7232 11.508 30.5961 11.7613C33.1671 11.9879 35.2016 14.0327 35.4152 16.6049C35.5427 18.1401 35.6062 19.9338 35.6062 21.9874C35.6062 24.1719 35.5344 25.9216 35.3893 27.2417C35.1952 29.009 33.7981 30.4034 32.0305 30.5941C29.2042 30.8991 25.8084 31.0511 21.8407 31.0511C21.4554 31.0511 21.0761 31.0497 20.7026 31.0468L16.7447 34.9365C15.8495 35.8163 14.4105 35.8038 13.5307 34.9085C13.113 34.4835 12.879 33.9114 12.879 33.3155V30.703C12.5448 30.6721 12.2189 30.6392 11.9015 30.6042Z" fill="white"/>
</mask>
<g mask="url(#mask0_1_226)">
<path d="M43.182 5.3208H6.81836V41.6844H43.182V5.3208Z" fill="url(#paint0_linear_1_226)"/>
</g>
<defs>
<linearGradient id="paint0_linear_1_226" x1="11.3638" y1="5.3208" x2="18.6531" y2="45.8602" gradientUnits="userSpaceOnUse">
<stop stop-color="#EB00FF"/>
<stop offset="1" stop-color="#1BFFE4"/>
</linearGradient>
</defs>
</svg>
