<svg width="50" height="50" viewBox="0 0 50 50" fill="none" xmlns="http://www.w3.org/2000/svg">
<mask id="mask0_2218_14255" style="mask-type:alpha" maskUnits="userSpaceOnUse" x="8" y="8" width="34" height="34">
<path d="M40.832 26.6663C41.2923 26.6663 41.6654 27.0394 41.6654 27.4997C41.6654 30.4345 41.5474 33.2352 41.3113 35.9021C41.0602 38.7377 38.7992 40.9779 35.9614 41.2028C32.0615 41.5118 28.4254 41.6663 25.0526 41.6663C21.6669 41.6663 17.9957 41.5106 14.0388 41.1992C11.1996 40.9758 8.93676 38.7349 8.68575 35.898C8.44989 33.2324 8.33203 30.433 8.33203 27.4997C8.33203 27.0394 8.70513 26.6663 9.16536 26.6663C9.6256 26.6663 9.9987 27.0394 9.9987 27.4997C9.9987 30.385 10.1145 33.1355 10.3459 35.7511C10.5252 37.7774 12.1415 39.3781 14.1695 39.5377C18.0846 39.8457 21.7124 39.9997 25.0526 39.9997C28.3797 39.9997 31.9722 39.8469 35.8298 39.5413C37.8568 39.3807 39.4718 37.7805 39.6511 35.7551C39.8828 33.1383 39.9987 30.3865 39.9987 27.4997C39.9987 27.0394 40.3718 26.6663 40.832 26.6663ZM25.832 9.16634L25.8334 29.6478C25.8492 29.6335 25.8648 29.6187 25.8801 29.6035L33.5769 21.9261C33.9027 21.6011 34.4303 21.6018 34.7554 21.9276C35.0804 22.2535 35.0797 22.7811 34.7539 23.1061L27.0572 30.7834C25.9176 31.9204 24.0723 31.9193 22.9344 30.7808L15.2428 23.0889C14.9173 22.7635 14.9173 22.2358 15.2428 21.9104C15.5682 21.585 16.0959 21.585 16.4213 21.9104L24.113 29.6025L24.1654 29.6497V9.16634C24.1654 8.05523 25.832 8.05523 25.832 9.16634Z" fill="white"/>
</mask>
<g mask="url(#mask0_2218_14255)">
<path d="M45 5H5V45H45V5Z" fill="url(#paint0_linear_2218_14255)"/>
</g>
<defs>
<linearGradient id="paint0_linear_2218_14255" x1="10" y1="5" x2="18.0182" y2="49.5933" gradientUnits="userSpaceOnUse">
<stop stop-color="#EB00FF"/>
<stop offset="1" stop-color="#1BFFE4"/>
</linearGradient>
</defs>
</svg>
