<svg width="40" height="40" viewBox="0 0 40 40" fill="none" xmlns="http://www.w3.org/2000/svg">
<mask id="mask0_2222_14433" style="mask-type:alpha" maskUnits="userSpaceOnUse" x="6" y="11" width="28" height="18">
<path d="M20.0041 11.1113C25.0133 11.1113 29.2028 13.2976 32.5312 17.6358C33.6015 19.0309 33.6026 20.9707 32.5337 22.3669C29.2137 26.7036 25.0233 28.889 20.0041 28.889C14.9857 28.889 10.794 26.7043 7.4705 22.3689C6.39953 20.9719 6.40056 19.0297 7.473 17.6337C10.8049 13.2969 14.9957 11.1113 20.0041 11.1113ZM20.0041 12.2224C15.3507 12.2224 11.4812 14.2404 8.3541 18.3107C7.58807 19.3078 7.58733 20.6951 8.35231 21.693C11.4708 25.7609 15.3408 27.7779 20.0041 27.7779C24.668 27.7779 28.5365 25.7604 31.6514 21.6915C32.4149 20.6942 32.4142 19.3086 31.6496 18.3121C28.5261 14.2409 24.6581 12.2224 20.0041 12.2224ZM20.0041 14.4446C20.3933 14.4446 20.7777 14.4848 21.1528 14.5637C21.5395 14.645 21.7201 15.0928 21.4979 15.4196C21.2497 15.7847 21.1152 16.215 21.1152 16.6669C21.1152 17.8942 22.1101 18.8891 23.3374 18.8891C23.7893 18.8891 24.2195 18.7545 24.5847 18.5064C24.9115 18.2842 25.3593 18.4647 25.4406 18.8515C25.5195 19.2266 25.5596 19.611 25.5596 20.0002C25.5596 23.0684 23.0724 25.5557 20.0041 25.5557C16.9359 25.5557 14.4486 23.0684 14.4486 20.0002C14.4486 16.9319 16.9359 14.4446 20.0041 14.4446ZM20.0041 15.5558C17.5495 15.5558 15.5597 17.5456 15.5597 20.0002C15.5597 22.4548 17.5495 24.4446 20.0041 24.4446C22.4587 24.4446 24.4485 22.4548 24.4485 20.0002C24.4485 19.9372 24.4472 19.8744 24.4446 19.8118C24.0933 19.9354 23.72 20.0002 23.3374 20.0002C21.4965 20.0002 20.0041 18.5078 20.0041 16.6669C20.0041 16.2843 20.0689 15.911 20.1925 15.5597C20.1299 15.5571 20.0671 15.5558 20.0041 15.5558Z" fill="white"/>
</mask>
<g mask="url(#mask0_2222_14433)">
<path d="M33.3384 6.66699H6.67188V33.3335H33.3384V6.66699Z" fill="url(#paint0_linear_2222_14433)"/>
</g>
<defs>
<linearGradient id="paint0_linear_2222_14433" x1="10.0052" y1="6.66699" x2="15.3506" y2="36.3957" gradientUnits="userSpaceOnUse">
<stop stop-color="#EB00FF"/>
<stop offset="1" stop-color="#1BFFE4"/>
</linearGradient>
</defs>
</svg>
