<svg width="153" height="43" viewBox="0 0 153 43" fill="none" xmlns="http://www.w3.org/2000/svg">
<path d="M62.5132 29.2428C61.1359 29.2428 59.9307 28.939 58.8977 28.3313C57.8647 27.7237 57.0545 26.8021 56.4671 25.5666C55.9 24.3108 55.6164 22.7309 55.6164 20.827C55.6164 18.9028 55.8899 17.3229 56.4367 16.0873C56.9836 14.8518 57.7736 13.9302 58.8066 13.3226C59.8395 12.7149 61.0751 12.4111 62.5132 12.4111C64.0525 12.4111 65.4299 12.7656 66.6451 13.4745C67.8807 14.1631 68.8529 15.1354 69.5618 16.3912C70.291 17.647 70.6556 19.1256 70.6556 20.827C70.6556 22.5486 70.291 24.0373 69.5618 25.2931C68.8529 26.5489 67.8807 27.5212 66.6451 28.2098C65.4299 28.8985 64.0525 29.2428 62.5132 29.2428ZM52.8517 34.8939V12.6542H57.3786V15.9962L57.2874 20.8573L57.5913 25.6881V34.8939H52.8517ZM61.6929 25.3539C62.4828 25.3539 63.1816 25.1716 63.7892 24.807C64.4171 24.4424 64.9134 23.9259 65.278 23.2575C65.6628 22.5689 65.8552 21.7587 65.8552 20.827C65.8552 19.875 65.6628 19.0648 65.278 18.3964C64.9134 17.728 64.4171 17.2115 63.7892 16.8469C63.1816 16.4823 62.4828 16.3 61.6929 16.3C60.9029 16.3 60.194 16.4823 59.5661 16.8469C58.9382 17.2115 58.442 17.728 58.0774 18.3964C57.7128 19.0648 57.5305 19.875 57.5305 20.827C57.5305 21.7587 57.7128 22.5689 58.0774 23.2575C58.442 23.9259 58.9382 24.4424 59.5661 24.807C60.194 25.1716 60.9029 25.3539 61.6929 25.3539ZM81.029 29.2428C79.1655 29.2428 77.5249 28.8782 76.1071 28.1491C74.7095 27.4199 73.6258 26.4274 72.8562 25.1716C72.0865 23.8956 71.7016 22.4473 71.7016 20.827C71.7016 19.1863 72.0764 17.7381 72.8258 16.4823C73.5955 15.2063 74.6386 14.2138 75.9551 13.5049C77.2717 12.7757 78.7604 12.4111 80.4213 12.4111C82.0214 12.4111 83.4595 12.7554 84.7356 13.4441C86.0319 14.1125 87.0548 15.0847 87.8042 16.3608C88.5536 17.6166 88.9283 19.1256 88.9283 20.8877C88.9283 21.07 88.9182 21.2827 88.8979 21.5257C88.8777 21.7485 88.8574 21.9612 88.8372 22.1638H75.5602V19.399H86.3458L84.5229 20.2193C84.5229 19.3686 84.3507 18.6293 84.0064 18.0014C83.6621 17.3735 83.1861 16.8874 82.5785 16.5431C81.9708 16.1785 81.2619 15.9962 80.4517 15.9962C79.6415 15.9962 78.9225 16.1785 78.2946 16.5431C77.6869 16.8874 77.2109 17.3836 76.8666 18.0318C76.5223 18.6597 76.3501 19.4091 76.3501 20.2801V21.0092C76.3501 21.9005 76.5425 22.6904 76.9274 23.3791C77.3325 24.0475 77.8895 24.564 78.5984 24.9285C79.3276 25.2729 80.1783 25.445 81.1505 25.445C82.0214 25.445 82.781 25.3134 83.4292 25.0501C84.0976 24.7868 84.7052 24.3918 85.2521 23.8652L87.7738 26.5996C87.0244 27.4503 86.0825 28.1085 84.9483 28.5744C83.814 29.02 82.5076 29.2428 81.029 29.2428ZM91.1723 28.9998V12.6542H95.6993V17.2722L95.0612 15.9354C95.5474 14.7809 96.3272 13.91 97.4007 13.3226C98.4742 12.7149 99.7806 12.4111 101.32 12.4111V16.7861C101.117 16.7659 100.935 16.7557 100.773 16.7557C100.611 16.7355 100.439 16.7254 100.257 16.7254C98.9603 16.7254 97.907 17.1001 97.0969 17.8495C96.3069 18.5787 95.9119 19.7231 95.9119 21.2827V28.9998H91.1723ZM107.176 25.6577L107.297 19.8851L114.923 12.6542H120.574L113.252 20.0978L110.791 22.103L107.176 25.6577ZM103.256 28.9998V6.45619H107.996V28.9998H103.256ZM115.44 28.9998L109.91 22.1334L112.888 18.4571L121.182 28.9998H115.44ZM127.367 29.2428C125.969 29.2428 124.622 29.0808 123.326 28.7567C122.05 28.4124 121.037 27.987 120.288 27.4806L121.868 24.0778C122.617 24.5437 123.498 24.9285 124.511 25.2324C125.544 25.5159 126.557 25.6577 127.549 25.6577C128.643 25.6577 129.413 25.5261 129.858 25.2628C130.324 24.9994 130.557 24.6349 130.557 24.169C130.557 23.7842 130.375 23.5006 130.01 23.3183C129.666 23.1157 129.2 22.9638 128.613 22.8626C128.025 22.7613 127.377 22.66 126.668 22.5587C125.98 22.4575 125.281 22.3258 124.572 22.1638C123.863 21.9815 123.215 21.7182 122.627 21.3738C122.04 21.0295 121.564 20.5636 121.199 19.9763C120.855 19.3889 120.683 18.6293 120.683 17.6976C120.683 16.6646 120.977 15.7531 121.564 14.9632C122.172 14.1733 123.043 13.5555 124.177 13.1099C125.311 12.644 126.668 12.4111 128.248 12.4111C129.362 12.4111 130.496 12.5326 131.651 12.7757C132.805 13.0187 133.767 13.3732 134.537 13.8391L132.957 17.2115C132.167 16.7456 131.367 16.4317 130.557 16.2696C129.767 16.0873 128.997 15.9962 128.248 15.9962C127.195 15.9962 126.425 16.138 125.939 16.4215C125.453 16.7051 125.21 17.0697 125.21 17.5153C125.21 17.9204 125.382 18.2242 125.726 18.4268C126.091 18.6293 126.567 18.7914 127.154 18.9129C127.742 19.0344 128.38 19.1458 129.068 19.2471C129.777 19.3281 130.486 19.4598 131.195 19.6421C131.904 19.8243 132.542 20.0877 133.109 20.432C133.697 20.7561 134.173 21.2118 134.537 21.7992C134.902 22.3663 135.084 23.1157 135.084 24.0475C135.084 25.0602 134.78 25.9615 134.173 26.7515C133.565 27.5212 132.684 28.1288 131.529 28.5744C130.395 29.02 129.008 29.2428 127.367 29.2428ZM142.596 29.2428C141.198 29.2428 139.852 29.0808 138.555 28.7567C137.279 28.4124 136.266 27.987 135.517 27.4806L137.097 24.0778C137.846 24.5437 138.727 24.9285 139.74 25.2324C140.773 25.5159 141.786 25.6577 142.778 25.6577C143.872 25.6577 144.642 25.5261 145.087 25.2628C145.553 24.9994 145.786 24.6349 145.786 24.169C145.786 23.7842 145.604 23.5006 145.239 23.3183C144.895 23.1157 144.429 22.9638 143.842 22.8626C143.254 22.7613 142.606 22.66 141.897 22.5587C141.209 22.4575 140.51 22.3258 139.801 22.1638C139.092 21.9815 138.444 21.7182 137.856 21.3738C137.269 21.0295 136.793 20.5636 136.428 19.9763C136.084 19.3889 135.912 18.6293 135.912 17.6976C135.912 16.6646 136.206 15.7531 136.793 14.9632C137.401 14.1733 138.272 13.5555 139.406 13.1099C140.54 12.644 141.897 12.4111 143.477 12.4111C144.591 12.4111 145.725 12.5326 146.88 12.7757C148.034 13.0187 148.997 13.3732 149.766 13.8391L148.186 17.2115C147.396 16.7456 146.596 16.4317 145.786 16.2696C144.996 16.0873 144.227 15.9962 143.477 15.9962C142.424 15.9962 141.654 16.138 141.168 16.4215C140.682 16.7051 140.439 17.0697 140.439 17.5153C140.439 17.9204 140.611 18.2242 140.955 18.4268C141.32 18.6293 141.796 18.7914 142.383 18.9129C142.971 19.0344 143.609 19.1458 144.297 19.2471C145.006 19.3281 145.715 19.4598 146.424 19.6421C147.133 19.8243 147.771 20.0877 148.338 20.432C148.926 20.7561 149.402 21.2118 149.766 21.7992C150.131 22.3663 150.313 23.1157 150.313 24.0475C150.313 25.0602 150.009 25.9615 149.402 26.7515C148.794 27.5212 147.913 28.1288 146.758 28.5744C145.624 29.02 144.237 29.2428 142.596 29.2428Z" fill="#211F15"/>
<path fill-rule="evenodd" clip-rule="evenodd" d="M18.8443 34.8997C28.4816 34.8997 36.2941 27.0872 36.2941 17.4499C36.2941 7.81257 28.4816 0 18.8443 0V34.8997ZM16.7519 0.000172483C7.50007 0.000172483 0 7.50025 0 16.7521V39.7656C0 41.5115 1.41535 42.9268 3.16127 42.9268H8.37594C13.0018 42.9268 16.7519 39.1768 16.7519 34.5509V0.000172483Z" fill="url(#paint0_linear_1_387)"/>
<defs>
<linearGradient id="paint0_linear_1_387" x1="4.53679" y1="-2.53471e-07" x2="14.5886" y2="47.2658" gradientUnits="userSpaceOnUse">
<stop stop-color="#EB00FF"/>
<stop offset="1" stop-color="#1BFFE4"/>
</linearGradient>
</defs>
</svg>
