<svg width="40" height="40" viewBox="0 0 40 40" fill="none" xmlns="http://www.w3.org/2000/svg">
<mask id="mask0_2218_14222" style="mask-type:alpha" maskUnits="userSpaceOnUse" x="7" y="6" width="26" height="28">
<path d="M24.7387 6.66699C26.7983 6.66699 28.476 8.28906 28.476 10.3004C28.476 11.293 28.0674 12.1907 27.406 12.8455C28.0153 12.8636 28.6133 12.884 29.1998 12.907C30.8248 12.9704 32.1094 14.3062 32.1094 15.9325V19.0324C32.1094 19.616 32.0494 19.9269 31.8761 20.251C31.7141 20.5539 31.4727 20.7952 31.1698 20.9572C31.0826 21.0038 30.9964 21.0422 30.9056 21.0735C30.9065 21.2182 30.9072 21.3858 30.9075 21.5759L30.9074 22.2016C30.9071 22.3744 30.9067 22.5596 30.906 22.7571C30.9053 22.989 30.9043 23.2268 30.903 23.5331C30.9012 23.9505 30.9001 24.2085 30.8994 24.3782L30.899 24.479C30.8989 24.4939 30.8989 24.5079 30.8988 24.5211L30.8983 24.7343C30.8983 24.7409 30.8983 24.7476 30.8983 24.7543L30.8983 24.8448C30.8983 26.9719 30.831 28.7494 30.6959 30.1794C30.5588 31.6308 29.4069 32.7785 27.9551 32.9101C24.8437 33.1924 22.2023 33.3337 20.029 33.3337C17.8518 33.3337 15.1905 33.1919 12.043 32.9086C10.5902 32.7779 9.43708 31.6298 9.29999 30.1775C9.16502 28.7478 9.09785 26.971 9.09785 24.8448L9.09726 24.5127C9.09721 24.4993 9.09715 24.4852 9.09709 24.4702L9.09668 24.3688C9.09597 24.1987 9.09484 23.9424 9.09302 23.5308C9.09168 23.2254 9.09073 22.9892 9.08996 22.7586C9.0893 22.5612 9.08882 22.3763 9.08853 22.2036L9.0887 21.4421C9.08909 21.3059 9.0897 21.1826 9.09055 21.0721C8.99932 21.0415 8.91328 21.0032 8.82629 20.9566C8.52339 20.7946 8.28205 20.5533 8.12006 20.2504C7.94676 19.9264 7.88672 19.6154 7.88672 19.0318V15.9358C7.88672 14.3087 9.17272 12.9725 10.7987 12.9102C11.3879 12.8876 11.9862 12.8673 12.5935 12.8494C11.9304 12.1946 11.5201 11.2951 11.5201 10.3004C11.5201 8.28906 13.1979 6.66699 15.2574 6.66699C17.1158 6.66699 18.7852 7.96815 18.7852 10.3388C18.7852 11.2833 19.1654 11.9286 19.9979 12.3104C20.8309 11.9283 21.2109 11.2831 21.2109 10.3388C21.2109 7.96815 22.8803 6.66699 24.7387 6.66699ZM20.107 13.9555C19.6626 13.9555 19.2221 13.9565 18.7855 13.9585L18.7869 32.0416L18.7838 32.108C19.2159 32.1177 19.6309 32.1225 20.029 32.1225C20.4085 32.1225 20.8029 32.1181 21.2124 32.1093C21.2105 32.087 21.2092 32.0644 21.2092 32.0416L21.2099 13.9576C20.8456 13.9562 20.4779 13.9555 20.107 13.9555ZM29.6951 21.1903L22.4197 21.1903L22.4203 32.0416L22.4171 32.0723C24.025 32.0091 25.8347 31.8864 27.8456 31.704C28.7168 31.6249 29.4079 30.9364 29.4902 30.0655C29.6213 28.6777 29.6871 26.9367 29.6871 24.8448V24.7533C29.6871 24.7465 29.6871 24.7398 29.6871 24.7331L29.6877 24.5191C29.6877 24.5058 29.6878 24.4918 29.6878 24.4769L29.6882 24.3758C29.6889 24.2057 29.6901 23.9469 29.6919 23.5279C29.6932 23.222 29.6941 22.9846 29.6949 22.7532C29.6955 22.5586 29.696 22.376 29.6963 22.2055L29.6964 21.5879C29.6962 21.4417 29.6958 21.3092 29.6951 21.1903ZM17.5752 21.1897L10.3009 21.1894C10.3004 21.2717 10.3 21.3606 10.2998 21.456L10.2997 22.2074C10.3 22.3778 10.3004 22.5602 10.3011 22.7546C10.3019 22.9846 10.3028 23.2205 10.3041 23.5255C10.306 23.9386 10.3071 24.1958 10.3078 24.3663L10.3082 24.468C10.3083 24.483 10.3083 24.4972 10.3084 24.5106L10.309 24.8448C10.309 26.9358 10.3748 28.6762 10.5058 30.0637C10.588 30.9351 11.2799 31.6239 12.1516 31.7024C14.1641 31.8835 15.973 32.006 17.5777 32.07L17.5758 32.0416L17.5752 21.1897ZM22.4209 13.9648L22.4197 19.9792L29.9512 19.9794C30.352 19.9794 30.4741 19.9558 30.5987 19.8892C30.6905 19.8401 30.7589 19.7716 30.8081 19.6798C30.8747 19.5552 30.8983 19.4332 30.8983 19.0324V15.9325C30.8983 14.9567 30.1275 14.1553 29.1525 14.1172C27.0571 14.0353 24.8132 13.9845 22.4209 13.9648ZM10.845 14.1204C9.86945 14.1578 9.09785 14.9595 9.09785 15.9358V19.0318C9.09785 19.4326 9.12142 19.5547 9.18805 19.6792C9.23717 19.7711 9.30562 19.8395 9.39746 19.8886C9.52204 19.9553 9.64409 19.9788 10.0449 19.9788L17.5752 19.9786L17.5748 13.9667C15.2123 13.9878 12.969 14.0391 10.845 14.1204ZM24.7387 7.87813C23.4924 7.87813 22.4221 8.7124 22.4221 10.3388C22.4221 11.3175 22.1208 12.1063 21.5427 12.6931C22.9436 12.7128 24.0091 12.7227 24.7387 12.7227C26.1383 12.7227 27.2649 11.6335 27.2649 10.3004C27.2649 8.96727 26.1383 7.87813 24.7387 7.87813ZM15.2574 7.87813C13.8578 7.87813 12.7313 8.96727 12.7313 10.3004C12.7313 11.6335 13.8578 12.7227 15.2574 12.7227C15.987 12.7227 17.0526 12.7128 18.4534 12.6931C17.8753 12.1063 17.5741 11.3175 17.5741 10.3388C17.5741 8.7124 16.5037 7.87813 15.2574 7.87813Z" fill="white"/>
</mask>
<g mask="url(#mask0_2218_14222)">
<path d="M34.5321 6.66699H5.46484V35.7342H34.5321V6.66699Z" fill="url(#paint0_linear_2218_14222)"/>
</g>
<defs>
<linearGradient id="paint0_linear_2218_14222" x1="9.09825" y1="6.66699" x2="14.9249" y2="39.0721" gradientUnits="userSpaceOnUse">
<stop stop-color="#EB00FF"/>
<stop offset="1" stop-color="#1BFFE4"/>
</linearGradient>
</defs>
</svg>
