<svg width="40" height="40" viewBox="0 0 40 40" fill="none" xmlns="http://www.w3.org/2000/svg">
<mask id="mask0_2218_14230" style="mask-type:alpha" maskUnits="userSpaceOnUse" x="13" y="6" width="14" height="28">
<path d="M20.1384 29.8145L25.6971 18.6971L21.2799 18.2554C21.1834 18.2458 21.0885 18.2246 20.9971 18.1923C20.3658 17.9695 20.0347 17.2772 20.2575 16.646L23.0666 8.68679C23.0895 8.622 23.1012 8.55379 23.1012 8.48509C23.1012 8.15039 22.8298 7.87906 22.4951 7.87906H16.7506C16.4543 7.87906 16.2015 8.09324 16.1528 8.38546L14.3268 19.3412C14.3194 19.3857 14.3137 19.4305 14.3096 19.4755C14.2187 20.4755 14.9556 21.3598 15.9556 21.4507L19.4363 21.7671C20.088 21.8264 20.575 22.3922 20.5366 23.0454L20.1384 29.8145ZM19.9021 32.9974C19.6073 33.5869 18.7163 33.3487 18.755 32.6908L19.3266 22.9742L15.8459 22.6578C14.1792 22.5063 12.951 21.0324 13.1025 19.3657C13.1093 19.2908 13.1189 19.2162 13.1313 19.1419L14.9572 8.1862C15.1033 7.30953 15.8618 6.66699 16.7506 6.66699H22.4951C23.4992 6.66699 24.3132 7.48098 24.3132 8.48509C24.3132 8.69121 24.2782 8.89582 24.2096 9.09019L21.4005 17.0494L25.8177 17.4911C26.4838 17.5577 26.9697 18.1517 26.9031 18.8177C26.8884 18.9645 26.8471 19.1073 26.7812 19.2392L19.9021 32.9974Z" fill="white"/>
</mask>
<g mask="url(#mask0_2218_14230)">
<path d="M34.5114 5.45508H5.42188V34.5446H34.5114V5.45508Z" fill="url(#paint0_linear_2218_14230)"/>
</g>
<defs>
<linearGradient id="paint0_linear_2218_14230" x1="9.05807" y1="5.45508" x2="14.8892" y2="37.885" gradientUnits="userSpaceOnUse">
<stop stop-color="#EB00FF"/>
<stop offset="1" stop-color="#1BFFE4"/>
</linearGradient>
</defs>
</svg>
