<svg width="50" height="50" viewBox="0 0 50 50" fill="none" xmlns="http://www.w3.org/2000/svg">
<mask id="mask0_1_221" style="mask-type:alpha" maskUnits="userSpaceOnUse" x="8" y="12" width="34" height="26">
<path d="M9.86246 12.8551C10.2789 12.9051 10.5759 13.2833 10.5259 13.6997C10.5208 13.7418 10.5111 13.8254 10.4974 13.9477C10.4744 14.1525 10.4488 14.3906 10.4212 14.6591C10.3422 15.4274 10.2632 16.2848 10.1894 17.2093C9.97869 19.8491 9.8523 22.4955 9.8523 24.9711C9.8523 27.4491 9.92605 29.3985 10.0485 30.8759C10.0908 31.3873 10.1359 31.8022 10.1806 32.1275C10.2064 32.315 10.2254 32.4272 10.2444 32.5328C10.4018 33.8414 11.633 35.034 12.9703 35.1455C13.0914 35.16 13.3399 35.1861 13.7149 35.22C14.3447 35.2769 15.099 35.334 15.9769 35.3873C18.4913 35.54 21.4887 35.6318 24.9615 35.6318C28.4317 35.6318 32.1536 35.49 35.8762 35.2536C37.1795 35.1708 38.3896 35.0822 39.4752 34.9935C39.8549 34.9625 40.1918 34.9338 40.482 34.908C40.6555 34.8925 40.7746 34.8816 40.8354 34.8758C41.2529 34.836 41.6236 35.1422 41.6634 35.5597C41.7031 35.9773 41.3969 36.348 40.9794 36.3877C40.9155 36.3938 40.7933 36.4051 40.6165 36.4208C40.3227 36.4469 39.9822 36.476 39.5988 36.5073C38.5044 36.5966 37.2852 36.686 35.9724 36.7693C32.2203 37.0076 28.4676 37.1506 24.9615 37.1506C21.4579 37.1506 18.4298 37.0579 15.8849 36.9033C14.992 36.8491 14.2228 36.7909 13.5782 36.7326C13.3515 36.7121 13.1563 36.693 12.9928 36.6759C12.8932 36.6654 12.8255 36.6578 12.8172 36.6563C10.7872 36.4879 8.97979 34.7371 8.74641 32.7758C8.69035 32.5019 8.61175 31.9296 8.53484 31.0013C8.40881 29.4803 8.3335 27.4894 8.3335 24.9711C8.3335 22.4505 8.46173 19.7655 8.67539 17.0884C8.75014 16.152 8.83023 15.2832 8.91037 14.5038C8.93846 14.2306 8.96456 13.9879 8.98803 13.7785C9.00218 13.6522 9.01236 13.5646 9.0179 13.5185C9.06792 13.1021 9.44604 12.8051 9.86246 12.8551ZM39.8779 13.098C40.1991 13.3677 40.2407 13.8468 39.971 14.1679L33.3534 22.0467C32.5299 23.0272 31.0907 23.092 30.1835 22.1849L27.7752 19.7765C27.5359 19.5372 27.3112 19.5682 27.1403 19.8673L22.5794 27.8489C21.9403 28.9674 20.5412 29.2953 19.4725 28.5828L17.4545 27.2375C17.1089 27.0072 16.6628 27.1023 16.4452 27.4504L13.4535 32.2372C13.2312 32.5929 12.7627 32.701 12.407 32.4787C12.0514 32.2564 11.9432 31.7879 12.1655 31.4323L15.1573 26.6454C15.8294 25.5701 17.24 25.2692 18.297 25.9738L20.3149 27.3191C20.6524 27.5441 21.0587 27.4489 21.2607 27.0954L25.8216 19.1137C26.488 17.9477 27.8997 17.7531 28.8491 18.7026L31.2575 21.1109C31.534 21.3874 31.9391 21.3691 32.1904 21.0699L38.808 13.1911C39.0777 12.8699 39.5568 12.8283 39.8779 13.098Z" fill="white"/>
</mask>
<g mask="url(#mask0_1_221)">
<path d="M43.1859 6.77441H6.73462V43.2257H43.1859V6.77441Z" fill="url(#paint0_linear_1_221)"/>
</g>
<defs>
<linearGradient id="paint0_linear_1_221" x1="11.291" y1="6.77441" x2="18.5979" y2="47.4115" gradientUnits="userSpaceOnUse">
<stop stop-color="#EB00FF"/>
<stop offset="1" stop-color="#1BFFE4"/>
</linearGradient>
</defs>
</svg>
