<svg width="50" height="50" viewBox="0 0 50 50" fill="none" xmlns="http://www.w3.org/2000/svg">
<mask id="mask0_1_238" style="mask-type:alpha" maskUnits="userSpaceOnUse" x="8" y="10" width="34" height="30">
<path d="M32.536 12.1194C29.5893 12.1194 26.9467 13.8077 25.6816 16.4119C25.4053 16.9806 24.595 16.9806 24.3187 16.4119C23.0536 13.8077 20.411 12.1194 17.4643 12.1194C13.2583 12.1194 9.84865 15.529 9.84865 19.735C9.84865 23.6623 11.9214 27.4783 15.6899 31.2833C17.5843 33.1959 20.2807 35.2774 23.7766 37.5207C24.5233 37.9999 25.4806 38.0007 26.2282 37.5228C29.6992 35.3037 32.3939 33.2219 34.3099 31.2838C38.1077 27.4422 40.1517 23.6726 40.1517 19.735C40.1517 15.529 36.742 12.1194 32.536 12.1194ZM32.536 10.6042C37.5788 10.6042 41.6668 14.6922 41.6668 19.735C41.6668 24.142 39.439 28.2506 35.3874 32.349C33.3831 34.3764 30.6029 36.5243 27.0443 38.7994C25.7984 39.5959 24.2028 39.5945 22.9583 38.7959C19.3762 36.4973 16.5955 34.3508 14.6134 32.3495C10.5906 28.2876 8.3335 24.1325 8.3335 19.735C8.3335 14.6922 12.4215 10.6042 17.4643 10.6042C20.5319 10.6042 23.3251 12.1309 25.0002 14.5768C26.6752 12.1309 29.4685 10.6042 32.536 10.6042Z" fill="white"/>
</mask>
<g mask="url(#mask0_1_238)">
<path d="M43.182 6.05884H6.81836V42.4225H43.182V6.05884Z" fill="url(#paint0_linear_1_238)"/>
</g>
<defs>
<linearGradient id="paint0_linear_1_238" x1="11.3638" y1="6.05884" x2="18.6531" y2="46.5982" gradientUnits="userSpaceOnUse">
<stop stop-color="#EB00FF"/>
<stop offset="1" stop-color="#1BFFE4"/>
</linearGradient>
</defs>
</svg>
