<svg width="40" height="40" viewBox="0 0 40 40" fill="none" xmlns="http://www.w3.org/2000/svg">
<mask id="mask0_1_328" style="mask-type:alpha" maskUnits="userSpaceOnUse" x="8" y="6" width="24" height="28">
<path d="M20.0001 6.66666C24.208 6.66666 27.6192 10.0778 27.6192 14.2857V17.1781C27.8385 17.1985 28.0577 17.2199 28.2768 17.2421C29.7536 17.3919 30.9294 18.545 31.1079 20.0186C31.322 21.7853 31.4287 23.8881 31.4287 26.3286C31.4287 27.2377 31.4139 28.0425 31.3842 28.7435C31.2897 30.9744 29.5546 32.7889 27.3302 32.9831C24.6558 33.2165 22.2126 33.3333 20.0001 33.3333C17.7869 33.3333 15.3428 33.2164 12.6674 32.9829C10.4401 32.7884 8.70398 30.9697 8.61314 28.7358C8.58538 28.0531 8.57153 27.2714 8.57153 26.3903C8.57153 23.9331 8.67921 21.8102 8.89536 20.0197C9.07333 18.5455 10.2494 17.3916 11.7268 17.2418C11.9447 17.2196 12.1628 17.1984 12.3811 17.1781V14.2857C12.3811 10.0778 15.7922 6.66666 20.0001 6.66666ZM20.0001 18.0952C17.2644 18.0952 14.5493 18.2319 11.8549 18.5051C10.9685 18.595 10.2628 19.2873 10.156 20.1719C9.94653 21.9074 9.84137 23.9807 9.84137 26.3903C9.84137 27.2551 9.85492 28.0199 9.88194 28.6842C9.94682 30.2799 11.1869 31.5789 12.7778 31.7178C15.4181 31.9483 17.8257 32.0635 20.0001 32.0635C22.1738 32.0635 24.5805 31.9484 27.2198 31.7181C28.8087 31.5794 30.048 30.2833 30.1155 28.6898C30.1444 28.008 30.1588 27.2208 30.1588 26.3286C30.1588 23.9358 30.0547 21.8828 29.8473 20.1713C29.7402 19.2872 29.0347 18.5953 28.1487 18.5055C25.4531 18.232 22.737 18.0952 20.0001 18.0952ZM20.0001 19.3651C22.104 19.3651 23.8096 21.0707 23.8096 23.1746C23.8096 24.276 23.3384 25.3 22.5398 26.0142V28.254C22.5398 29.6566 21.4027 30.7936 20.0001 30.7936C18.5975 30.7936 17.4604 29.6566 17.4604 28.254V26.0142C16.6618 25.3 16.1906 24.276 16.1906 23.1746C16.1906 21.0707 17.8962 19.3651 20.0001 19.3651ZM20.0001 20.6349C18.5975 20.6349 17.4604 21.772 17.4604 23.1746C17.4604 23.9843 17.8411 24.7295 18.4767 25.2069C18.6363 25.3268 18.7303 25.5148 18.7303 25.7145V28.254C18.7303 28.9553 19.2988 29.5238 20.0001 29.5238C20.7014 29.5238 21.2699 28.9553 21.2699 28.254V25.7145C21.2699 25.5148 21.3639 25.3268 21.5235 25.2069C22.1591 24.7295 22.5398 23.9843 22.5398 23.1746C22.5398 21.772 21.4027 20.6349 20.0001 20.6349ZM20.0001 7.93651C16.4935 7.93651 13.6509 10.7791 13.6509 14.2857V17.0697C14.4955 17.0044 15.3421 16.9521 16.1906 16.913V14.2857C16.1906 12.1818 17.8962 10.4762 20.0001 10.4762C22.104 10.4762 23.8096 12.1818 23.8096 14.2857V16.913C24.6581 16.9521 25.5047 17.0044 26.3493 17.0697V14.2857C26.3493 10.7791 23.5067 7.93651 20.0001 7.93651ZM20.0001 11.746C18.5975 11.746 17.4604 12.8831 17.4604 14.2857V16.8642C18.3051 16.8383 19.1516 16.8254 20.0001 16.8254C20.8486 16.8254 21.6952 16.8383 22.5398 16.8642V14.2857C22.5398 12.8831 21.4027 11.746 20.0001 11.746Z" fill="white"/>
</mask>
<g mask="url(#mask0_1_328)">
<path d="M35.2382 5.39682H4.76196V35.873H35.2382V5.39682Z" fill="url(#paint0_linear_1_328)"/>
</g>
<defs>
<linearGradient id="paint0_linear_1_328" x1="8.57149" y1="5.39682" x2="14.6806" y2="39.3727" gradientUnits="userSpaceOnUse">
<stop stop-color="#EB00FF"/>
<stop offset="1" stop-color="#1BFFE4"/>
</linearGradient>
</defs>
</svg>
