<svg width="130" height="37" viewBox="0 0 130 37" fill="none" xmlns="http://www.w3.org/2000/svg">
<path fill-rule="evenodd" clip-rule="evenodd" d="M14.8548 30.2447C22.4511 30.2447 28.609 24.0867 28.609 16.4905C28.609 8.89429 22.4511 2.73633 14.8548 2.73633V30.2447ZM13.204 2.73657C5.91164 2.73657 0 8.6482 0 15.9406V34.0801C0 35.4563 1.1156 36.5719 2.49175 36.5719H6.60201C10.2482 36.5719 13.204 33.6161 13.204 29.9699V2.73657Z" fill="url(#paint0_linear_2292_14649)"/>
<path d="M45.7895 12.3012C50.1312 12.3012 53.4952 15.4064 53.4952 20.2656C53.4952 25.1248 50.1312 28.23 45.7895 28.23C43.8631 28.23 42.2817 27.6262 41.1316 26.3611V33.578H36.6463V12.5312H40.9304V14.3139C42.0517 12.9625 43.7194 12.3012 45.7895 12.3012ZM45.0132 24.5497C47.2559 24.5497 48.9523 22.9396 48.9523 20.2656C48.9523 17.5916 47.2559 15.9815 45.0132 15.9815C42.7705 15.9815 41.0741 17.5916 41.0741 20.2656C41.0741 22.9396 42.7705 24.5497 45.0132 24.5497ZM70.7877 20.3231C70.7877 20.6681 70.7302 21.1569 70.7015 21.5307H58.9992C59.4305 23.4571 61.0694 24.636 63.4271 24.636C65.066 24.636 66.2449 24.1472 67.3087 23.1408L69.6951 25.7286C68.2575 27.3674 66.1011 28.23 63.3121 28.23C57.9642 28.23 54.4851 24.866 54.4851 20.2656C54.4851 15.6365 58.0217 12.3012 62.7371 12.3012C67.2799 12.3012 70.7877 15.3489 70.7877 20.3231ZM62.7658 15.694C60.7244 15.694 59.258 16.9303 58.9417 18.9142H66.5611C66.2449 16.9591 64.7785 15.694 62.7658 15.694ZM77.1955 14.5726C78.2881 13.0775 80.1282 12.3012 82.5147 12.3012V16.4415C82.1409 16.4128 81.8534 16.384 81.5083 16.384C79.0356 16.384 77.3967 17.7354 77.3967 20.6969V28H72.9114V12.5312H77.1955V14.5726ZM95.8488 28L90.9609 21.9332L88.8045 24.0609V28H84.3191V6.66571H88.8045V18.7417L95.36 12.5312H100.708L94.2674 19.0868L101.283 28L95.8488 28ZM107.136 28.23C104.52 28.23 101.875 27.5112 100.437 26.5624L101.932 23.3421C103.312 24.2334 105.411 24.8372 107.309 24.8372C109.379 24.8372 110.155 24.2909 110.155 23.4284C110.155 20.8982 100.811 23.4859 100.811 17.3041C100.811 14.3714 103.456 12.3012 107.97 12.3012C110.098 12.3012 112.456 12.79 113.922 13.6525L112.427 16.8441C110.903 15.9815 109.379 15.694 107.97 15.694C105.958 15.694 105.095 16.3265 105.095 17.1316C105.095 19.7768 114.44 17.2178 114.44 23.3134C114.44 26.1886 111.766 28.23 107.136 28.23ZM121.549 28.23C118.932 28.23 116.287 27.5112 114.849 26.5624L116.344 23.3421C117.724 24.2334 119.823 24.8372 121.721 24.8372C123.791 24.8372 124.568 24.2909 124.568 23.4284C124.568 20.8982 115.223 23.4859 115.223 17.3041C115.223 14.3714 117.868 12.3012 122.382 12.3012C124.51 12.3012 126.868 12.79 128.334 13.6525L126.839 16.8441C125.315 15.9815 123.791 15.694 122.382 15.694C120.37 15.694 119.507 16.3265 119.507 17.1316C119.507 19.7768 128.852 17.2178 128.852 23.3134C128.852 26.1886 126.178 28.23 121.549 28.23Z" fill="#211F15"/>
<path fill-rule="evenodd" clip-rule="evenodd" d="M14.8548 30.2447C22.4511 30.2447 28.609 24.0867 28.609 16.4905C28.609 8.89429 22.4511 2.73633 14.8548 2.73633V30.2447ZM13.204 2.73657C5.91164 2.73657 0 8.6482 0 15.9406V34.0801C0 35.4563 1.1156 36.5719 2.49175 36.5719H6.60201C10.2482 36.5719 13.204 33.6161 13.204 29.9699V2.73657Z" fill="url(#paint1_linear_2292_14649)"/>
<path d="M45.7895 12.3012C50.1312 12.3012 53.4952 15.4064 53.4952 20.2656C53.4952 25.1248 50.1312 28.23 45.7895 28.23C43.8631 28.23 42.2817 27.6262 41.1316 26.3611V33.578H36.6463V12.5312H40.9304V14.3139C42.0517 12.9625 43.7194 12.3012 45.7895 12.3012ZM45.0132 24.5497C47.2559 24.5497 48.9523 22.9396 48.9523 20.2656C48.9523 17.5916 47.2559 15.9815 45.0132 15.9815C42.7705 15.9815 41.0741 17.5916 41.0741 20.2656C41.0741 22.9396 42.7705 24.5497 45.0132 24.5497ZM70.7877 20.3231C70.7877 20.6681 70.7302 21.1569 70.7015 21.5307H58.9992C59.4305 23.4571 61.0694 24.636 63.4271 24.636C65.066 24.636 66.2449 24.1472 67.3087 23.1408L69.6951 25.7286C68.2575 27.3674 66.1011 28.23 63.3121 28.23C57.9642 28.23 54.4851 24.866 54.4851 20.2656C54.4851 15.6365 58.0217 12.3012 62.7371 12.3012C67.2799 12.3012 70.7877 15.3489 70.7877 20.3231ZM62.7658 15.694C60.7244 15.694 59.258 16.9303 58.9417 18.9142H66.5611C66.2449 16.9591 64.7785 15.694 62.7658 15.694ZM77.1955 14.5726C78.2881 13.0775 80.1282 12.3012 82.5147 12.3012V16.4415C82.1409 16.4128 81.8534 16.384 81.5083 16.384C79.0356 16.384 77.3967 17.7354 77.3967 20.6969V28H72.9114V12.5312H77.1955V14.5726ZM95.8488 28L90.9609 21.9332L88.8045 24.0609V28H84.3191V6.66571H88.8045V18.7417L95.36 12.5312H100.708L94.2674 19.0868L101.283 28L95.8488 28ZM107.136 28.23C104.52 28.23 101.875 27.5112 100.437 26.5624L101.932 23.3421C103.312 24.2334 105.411 24.8372 107.309 24.8372C109.379 24.8372 110.155 24.2909 110.155 23.4284C110.155 20.8982 100.811 23.4859 100.811 17.3041C100.811 14.3714 103.456 12.3012 107.97 12.3012C110.098 12.3012 112.456 12.79 113.922 13.6525L112.427 16.8441C110.903 15.9815 109.379 15.694 107.97 15.694C105.958 15.694 105.095 16.3265 105.095 17.1316C105.095 19.7768 114.44 17.2178 114.44 23.3134C114.44 26.1886 111.766 28.23 107.136 28.23ZM121.549 28.23C118.932 28.23 116.287 27.5112 114.849 26.5624L116.344 23.3421C117.724 24.2334 119.823 24.8372 121.721 24.8372C123.791 24.8372 124.568 24.2909 124.568 23.4284C124.568 20.8982 115.223 23.4859 115.223 17.3041C115.223 14.3714 117.868 12.3012 122.382 12.3012C124.51 12.3012 126.868 12.79 128.334 13.6525L126.839 16.8441C125.315 15.9815 123.791 15.694 122.382 15.694C120.37 15.694 119.507 16.3265 119.507 17.1316C119.507 19.7768 128.852 17.2178 128.852 23.3134C128.852 26.1886 126.178 28.23 121.549 28.23Z" fill="#211F15"/>
<defs>
<linearGradient id="paint0_linear_2292_14649" x1="3.57613" y1="2.73633" x2="11.4988" y2="39.992" gradientUnits="userSpaceOnUse">
<stop stop-color="#EB00FF"/>
<stop offset="1" stop-color="#1BFFE4"/>
</linearGradient>
<linearGradient id="paint1_linear_2292_14649" x1="3.57613" y1="2.73633" x2="11.4988" y2="39.992" gradientUnits="userSpaceOnUse">
<stop stop-color="#EB00FF"/>
<stop offset="1" stop-color="#1BFFE4"/>
</linearGradient>
</defs>
</svg>
