<svg width="137" height="48" viewBox="0 0 137 48" fill="none" xmlns="http://www.w3.org/2000/svg">
<mask id="path-1-outside-1_2218_14149" maskUnits="userSpaceOnUse" x="0" y="0.227539" width="43" height="48" fill="black">
<rect fill="white" y="0.227539" width="43" height="48"/>
<path fill-rule="evenodd" clip-rule="evenodd" d="M21.8548 34.7357C29.4511 34.7357 35.609 28.5777 35.609 20.9815C35.609 13.3853 29.4511 7.2273 21.8548 7.2273V34.7357ZM20.204 7.22754C12.9116 7.22754 7 13.1392 7 20.4315V38.5711C7 39.9473 8.1156 41.0628 9.49175 41.0628H13.602C17.2482 41.0628 20.204 38.107 20.204 34.4608V7.22754Z"/>
</mask>
<path fill-rule="evenodd" clip-rule="evenodd" d="M21.8548 34.7357C29.4511 34.7357 35.609 28.5777 35.609 20.9815C35.609 13.3853 29.4511 7.2273 21.8548 7.2273V34.7357ZM20.204 7.22754C12.9116 7.22754 7 13.1392 7 20.4315V38.5711C7 39.9473 8.1156 41.0628 9.49175 41.0628H13.602C17.2482 41.0628 20.204 38.107 20.204 34.4608V7.22754Z" fill="url(#paint0_linear_2218_14149)"/>
<path d="M21.8548 34.7357H15.0006C15.0006 38.5212 18.0693 41.5899 21.8548 41.5899V34.7357ZM21.8548 7.2273V0.373047C18.0693 0.373047 15.0006 3.4418 15.0006 7.2273H21.8548ZM20.204 7.22754H27.0583C27.0583 3.44204 23.9895 0.373284 20.204 0.373284V7.22754ZM28.7548 20.9815C28.7548 24.7922 25.6656 27.8814 21.8548 27.8814V41.5899C33.2366 41.5899 42.4633 32.3632 42.4633 20.9815H28.7548ZM21.8548 14.0816C25.6656 14.0816 28.7548 17.1708 28.7548 20.9815H42.4633C42.4633 9.59976 33.2366 0.373047 21.8548 0.373047V14.0816ZM28.7091 34.7357V7.2273H15.0006V34.7357H28.7091ZM13.8543 20.4315C13.8543 16.9247 16.6971 14.0818 20.204 14.0818V0.373284C9.12615 0.373284 0.145745 9.35366 0.145745 20.4315H13.8543ZM13.8543 38.5711V20.4315H0.145745V38.5711H13.8543ZM9.49175 34.2086C11.9011 34.2086 13.8543 36.1617 13.8543 38.5711H0.145745C0.145745 43.7328 4.33011 47.9171 9.49175 47.9171V34.2086ZM13.602 34.2086H9.49175V47.9171H13.602V34.2086ZM13.3498 34.4608C13.3498 34.3215 13.4627 34.2086 13.602 34.2086V47.9171C21.0337 47.9171 27.0583 41.8925 27.0583 34.4608H13.3498ZM13.3498 7.22754V34.4608H27.0583V7.22754H13.3498Z" fill="white" mask="url(#path-1-outside-1_2218_14149)"/>
<path d="M52.2755 32.7212C50.9721 32.7212 49.8315 32.4337 48.854 31.8587C47.8764 31.2836 47.1096 30.4115 46.5538 29.2422C46.0171 28.0538 45.7487 26.5586 45.7487 24.7568C45.7487 22.9358 46.0075 21.4407 46.525 20.2714C47.0426 19.1022 47.7901 18.23 48.7677 17.655C49.7453 17.0799 50.9146 16.7924 52.2755 16.7924C53.7323 16.7924 55.0357 17.1278 56.1858 17.7987C57.3551 18.4504 58.2752 19.3705 58.9461 20.559C59.6361 21.7474 59.9811 23.1467 59.9811 24.7568C59.9811 26.3861 59.6361 27.795 58.9461 28.9834C58.2752 30.1718 57.3551 31.0919 56.1858 31.7436C55.0357 32.3954 53.7323 32.7212 52.2755 32.7212ZM43.1322 38.0692V17.0224H47.4163V20.1852L47.3301 24.7856L47.6176 29.3572V38.0692H43.1322ZM51.4992 29.0409C52.2467 29.0409 52.9081 28.8684 53.4831 28.5234C54.0773 28.1783 54.5469 27.6896 54.892 27.057C55.2562 26.4053 55.4383 25.6386 55.4383 24.7568C55.4383 23.8559 55.2562 23.0892 54.892 22.4566C54.5469 21.8241 54.0773 21.3353 53.4831 20.9902C52.9081 20.6452 52.2467 20.4727 51.4992 20.4727C50.7516 20.4727 50.0807 20.6452 49.4865 20.9902C48.8923 21.3353 48.4227 21.8241 48.0776 22.4566C47.7326 23.0892 47.5601 23.8559 47.5601 24.7568C47.5601 25.6386 47.7326 26.4053 48.0776 27.057C48.4227 27.6896 48.8923 28.1783 49.4865 28.5234C50.0807 28.8684 50.7516 29.0409 51.4992 29.0409ZM69.7981 32.7212C68.0346 32.7212 66.482 32.3762 65.1402 31.6861C63.8176 30.9961 62.7921 30.0568 62.0637 28.8684C61.3353 27.6608 60.9711 26.2903 60.9711 24.7568C60.9711 23.2042 61.3257 21.8336 62.0349 20.6452C62.7633 19.4376 63.7505 18.4984 64.9964 17.8275C66.2424 17.1374 67.6512 16.7924 69.223 16.7924C70.7373 16.7924 72.0983 17.1183 73.3059 17.77C74.5326 18.4025 75.5006 19.3226 76.2099 20.5302C76.9191 21.7186 77.2737 23.1467 77.2737 24.8143C77.2737 24.9868 77.2641 25.1881 77.2449 25.4181C77.2258 25.629 77.2066 25.8302 77.1874 26.0219H64.6226V23.4054H74.8297L73.1046 24.1818C73.1046 23.3767 72.9417 22.6771 72.6158 22.0828C72.2899 21.4886 71.8395 21.0286 71.2644 20.7027C70.6894 20.3577 70.0185 20.1852 69.2518 20.1852C68.485 20.1852 67.8046 20.3577 67.2104 20.7027C66.6353 21.0286 66.1849 21.4982 65.859 22.1116C65.5331 22.7058 65.3702 23.415 65.3702 24.2393V24.9293C65.3702 25.7727 65.5523 26.5203 65.9165 27.172C66.2999 27.8046 66.827 28.2934 67.4979 28.6384C68.1879 28.9642 68.993 29.1272 69.9131 29.1272C70.7373 29.1272 71.4561 29.0026 72.0695 28.7534C72.7021 28.5042 73.2771 28.1304 73.7947 27.6321L76.1811 30.2198C75.4719 31.0248 74.5806 31.6478 73.5071 32.0887C72.4337 32.5104 71.1974 32.7212 69.7981 32.7212ZM79.3973 32.4912V17.0224H83.6814V21.3928L83.0776 20.1277C83.5377 19.0351 84.2757 18.2108 85.2916 17.655C86.3075 17.0799 87.5439 16.7924 89.0006 16.7924V20.9327C88.809 20.9136 88.6364 20.904 88.4831 20.904C88.3297 20.8848 88.1668 20.8752 87.9943 20.8752C86.7675 20.8752 85.7708 21.2298 85.0041 21.9391C84.2565 22.6291 83.8827 23.7121 83.8827 25.1881V32.4912H79.3973ZM94.5422 29.3284L94.6572 23.8655L101.874 17.0224H107.222L100.293 24.0668L97.9638 25.9644L94.5422 29.3284ZM90.8332 32.4912V11.1569H95.3185V32.4912H90.8332ZM102.363 32.4912L97.1299 25.9932L99.9477 22.5141L107.797 32.4912H102.363ZM113.65 32.7212C112.328 32.7212 111.053 32.5679 109.826 32.2612C108.619 31.9353 107.66 31.5328 106.951 31.0536L108.446 27.8333C109.155 28.2742 109.989 28.6384 110.948 28.9259C111.925 29.1943 112.884 29.3284 113.823 29.3284C114.858 29.3284 115.586 29.2039 116.008 28.9547C116.449 28.7055 116.669 28.3604 116.669 27.9196C116.669 27.5554 116.497 27.287 116.152 27.1145C115.826 26.9228 115.385 26.7791 114.829 26.6832C114.273 26.5874 113.66 26.4915 112.989 26.3957C112.337 26.2999 111.676 26.1753 111.005 26.0219C110.334 25.8494 109.721 25.6002 109.165 25.2744C108.609 24.9485 108.159 24.5076 107.814 23.9517C107.488 23.3959 107.325 22.6771 107.325 21.7953C107.325 20.8177 107.603 19.9552 108.159 19.2076C108.734 18.46 109.558 17.8754 110.631 17.4537C111.705 17.0128 112.989 16.7924 114.484 16.7924C115.539 16.7924 116.612 16.9074 117.705 17.1374C118.797 17.3674 119.708 17.7029 120.436 18.1438L118.941 21.3353C118.193 20.8944 117.436 20.5973 116.669 20.4439C115.922 20.2714 115.193 20.1852 114.484 20.1852C113.488 20.1852 112.759 20.3194 112.299 20.5877C111.839 20.8561 111.609 21.2011 111.609 21.6228C111.609 22.0062 111.772 22.2937 112.098 22.4854C112.443 22.6771 112.893 22.8304 113.449 22.9454C114.005 23.0604 114.609 23.1658 115.261 23.2617C115.931 23.3384 116.602 23.463 117.273 23.6355C117.944 23.808 118.548 24.0572 119.085 24.383C119.641 24.6897 120.091 25.121 120.436 25.6769C120.781 26.2136 120.954 26.9228 120.954 27.8046C120.954 28.763 120.666 29.616 120.091 30.3635C119.516 31.0919 118.682 31.667 117.59 32.0887C116.516 32.5104 115.203 32.7212 113.65 32.7212ZM128.063 32.7212C126.74 32.7212 125.465 32.5679 124.239 32.2612C123.031 31.9353 122.072 31.5328 121.363 31.0536L122.858 27.8333C123.568 28.2742 124.401 28.6384 125.36 28.9259C126.337 29.1943 127.296 29.3284 128.235 29.3284C129.27 29.3284 129.999 29.2039 130.42 28.9547C130.861 28.7055 131.082 28.3604 131.082 27.9196C131.082 27.5554 130.909 27.287 130.564 27.1145C130.238 26.9228 129.797 26.7791 129.241 26.6832C128.686 26.5874 128.072 26.4915 127.401 26.3957C126.75 26.2999 126.088 26.1753 125.417 26.0219C124.746 25.8494 124.133 25.6002 123.577 25.2744C123.021 24.9485 122.571 24.5076 122.226 23.9517C121.9 23.3959 121.737 22.6771 121.737 21.7953C121.737 20.8177 122.015 19.9552 122.571 19.2076C123.146 18.46 123.97 17.8754 125.044 17.4537C126.117 17.0128 127.401 16.7924 128.896 16.7924C129.951 16.7924 131.024 16.9074 132.117 17.1374C133.209 17.3674 134.12 17.7029 134.848 18.1438L133.353 21.3353C132.605 20.8944 131.848 20.5973 131.082 20.4439C130.334 20.2714 129.606 20.1852 128.896 20.1852C127.9 20.1852 127.171 20.3194 126.711 20.5877C126.251 20.8561 126.021 21.2011 126.021 21.6228C126.021 22.0062 126.184 22.2937 126.51 22.4854C126.855 22.6771 127.305 22.8304 127.861 22.9454C128.417 23.0604 129.021 23.1658 129.673 23.2617C130.344 23.3384 131.014 23.463 131.685 23.6355C132.356 23.808 132.96 24.0572 133.497 24.383C134.053 24.6897 134.503 25.121 134.848 25.6769C135.193 26.2136 135.366 26.9228 135.366 27.8046C135.366 28.763 135.078 29.616 134.503 30.3635C133.928 31.0919 133.094 31.667 132.002 32.0887C130.928 32.5104 129.615 32.7212 128.063 32.7212Z" fill="#211F15"/>
<path d="M48.854 31.8587L52.3292 25.9507H52.3292L48.854 31.8587ZM46.5538 29.2422L40.307 32.0633C40.3254 32.1041 40.3442 32.1447 40.3635 32.1851L46.5538 29.2422ZM46.525 20.2714L52.7927 23.0457L52.7927 23.0457L46.525 20.2714ZM48.7677 17.655L45.2925 11.747L45.2925 11.747L48.7677 17.655ZM56.1858 17.7987L52.7322 23.7193C52.7708 23.7418 52.8097 23.764 52.8488 23.7858L56.1858 17.7987ZM58.9461 20.559L52.9772 23.9285C52.9909 23.9526 53.0046 23.9767 53.0186 24.0007L58.9461 20.559ZM58.9461 28.9834L53.0186 25.5417C53.0046 25.5657 52.9909 25.5897 52.9772 25.6139L58.9461 28.9834ZM56.1858 31.7436L52.8488 25.7566C52.8347 25.7644 52.8206 25.7723 52.8066 25.7803L56.1858 31.7436ZM43.1322 38.0692H36.278C36.278 41.8547 39.3467 44.9234 43.1322 44.9234V38.0692ZM43.1322 17.0224V10.1682C39.3467 10.1682 36.278 13.2369 36.278 17.0224H43.1322ZM47.4163 17.0224H54.2706C54.2706 13.2369 51.2018 10.1682 47.4163 10.1682V17.0224ZM47.4163 20.1852L54.2694 20.3137C54.2702 20.2708 54.2706 20.228 54.2706 20.1852H47.4163ZM47.3301 24.7856L40.477 24.6571C40.4735 24.8434 40.4776 25.0298 40.4893 25.2158L47.3301 24.7856ZM47.6176 29.3572H54.4719C54.4719 29.2137 54.4674 29.0702 54.4583 28.927L47.6176 29.3572ZM47.6176 38.0692V44.9234C51.4031 44.9234 54.4719 41.8547 54.4719 38.0692H47.6176ZM53.4831 28.5234L50.0413 22.5959C50.013 22.6124 49.9847 22.629 49.9566 22.6459L53.4831 28.5234ZM54.892 27.057L48.9086 23.7134C48.8972 23.7338 48.8859 23.7543 48.8746 23.7748L54.892 27.057ZM54.892 22.4566L48.8746 25.7388C48.8999 25.785 48.9256 25.831 48.9519 25.8766L54.892 22.4566ZM53.4831 20.9902L49.9566 26.8677C49.9847 26.8846 50.013 26.9013 50.0413 26.9177L53.4831 20.9902ZM49.4865 20.9902L52.9283 26.9177L52.9283 26.9177L49.4865 20.9902ZM48.0776 22.4566L54.095 25.7388L54.095 25.7388L48.0776 22.4566ZM48.0776 27.057L42.0199 30.264C42.0332 30.2892 42.0467 30.3142 42.0603 30.3392L48.0776 27.057ZM49.4865 28.5234L52.9283 22.5959L52.9283 22.5959L49.4865 28.5234ZM52.2755 25.867C52.1286 25.867 52.0851 25.851 52.1181 25.8593C52.1339 25.8633 52.1634 25.8719 52.2029 25.888C52.2425 25.9041 52.2856 25.9251 52.3292 25.9507L45.3787 37.7666C47.5586 39.0489 49.9353 39.5755 52.2755 39.5755V25.867ZM52.3292 25.9507C52.4828 26.0411 52.608 26.1503 52.6936 26.2477C52.7742 26.3395 52.7803 26.3755 52.7441 26.2993L40.3635 32.1851C41.4217 34.4111 43.0586 36.4018 45.3787 37.7666L52.3292 25.9507ZM52.8005 26.4211C52.7863 26.3896 52.603 25.9341 52.603 24.7568H38.8944C38.8944 27.1832 39.2478 29.7179 40.307 32.0633L52.8005 26.4211ZM52.603 24.7568C52.603 24.1632 52.6457 23.7328 52.6966 23.4387C52.7475 23.1445 52.7987 23.0323 52.7927 23.0457L40.2573 17.4972C39.2255 19.8283 38.8944 22.3558 38.8944 24.7568H52.603ZM52.7927 23.0457C52.8113 23.0038 52.7851 23.0761 52.678 23.2011C52.5657 23.332 52.4148 23.4618 52.2429 23.5629L45.2925 11.747C42.9247 13.1399 41.278 15.1912 40.2573 17.4972L52.7927 23.0457ZM52.2429 23.5629C52.1866 23.596 52.135 23.6205 52.0922 23.6377C52.0498 23.6547 52.0223 23.6621 52.0146 23.664C51.9994 23.6677 52.0763 23.6466 52.2755 23.6466V9.93814C49.9375 9.93814 47.5162 10.439 45.2925 11.747L52.2429 23.5629ZM52.2755 23.6466C52.6363 23.6466 52.7275 23.7165 52.7322 23.7193L59.6395 11.8782C57.344 10.5391 54.8283 9.93814 52.2755 9.93814V23.6466ZM52.8488 23.7858C52.8751 23.8005 52.8895 23.8107 52.8955 23.8152C52.9013 23.8196 52.9042 23.8223 52.9061 23.8243C52.9082 23.8263 52.9143 23.8326 52.9247 23.8464C52.9353 23.8604 52.9534 23.8863 52.9772 23.9285L64.9149 17.1894C63.6369 14.9256 61.8159 13.0897 59.5229 11.8117L52.8488 23.7858ZM53.0186 24.0007C53.0213 24.0054 53.0431 24.0419 53.0674 24.1407C53.0931 24.2449 53.1269 24.4411 53.1269 24.7568H66.8354C66.8354 22.1471 66.2678 19.5184 64.8735 17.1172L53.0186 24.0007ZM53.1269 24.7568C53.1269 25.0884 53.0918 25.295 53.0649 25.405C53.0514 25.46 53.0391 25.4947 53.0317 25.5133C53.0244 25.5315 53.0197 25.5398 53.0186 25.5417L64.8735 32.4252C66.2747 30.0121 66.8354 27.3695 66.8354 24.7568H53.1269ZM52.9772 25.6139C52.9534 25.6561 52.9353 25.682 52.9247 25.696C52.9143 25.7097 52.9082 25.7161 52.9061 25.7181C52.9042 25.7201 52.9013 25.7228 52.8955 25.7272C52.8895 25.7317 52.8751 25.7419 52.8488 25.7566L59.5229 37.7307C61.8159 36.4527 63.6369 34.6168 64.9149 32.3529L52.9772 25.6139ZM52.8066 25.7803C52.7897 25.7899 52.6717 25.867 52.2755 25.867V39.5755C54.7929 39.5755 57.2818 39.0009 59.5651 37.707L52.8066 25.7803ZM49.9865 38.0692V17.0224H36.278V38.0692H49.9865ZM43.1322 23.8767H47.4163V10.1682H43.1322V23.8767ZM40.5621 17.0224V20.1852H54.2706V17.0224H40.5621ZM40.5633 20.0567L40.477 24.6571L54.1831 24.9141L54.2694 20.3137L40.5633 20.0567ZM40.4893 25.2158L40.7769 29.7874L54.4583 28.927L54.1708 24.3553L40.4893 25.2158ZM40.7634 29.3572V38.0692H54.4719V29.3572H40.7634ZM47.6176 31.2149H43.1322V44.9234H47.6176V31.2149ZM51.4992 35.8952C53.3427 35.8952 55.2504 35.4564 57.0096 34.4009L49.9566 22.6459C50.5657 22.2805 51.1508 22.1867 51.4992 22.1867V35.8952ZM56.9249 34.4509C58.6572 33.445 59.9944 32.0165 60.9093 30.3392L48.8746 23.7748C48.9753 23.5903 49.1257 23.3705 49.3383 23.1492C49.5525 22.9263 49.7933 22.7399 50.0413 22.5959L56.9249 34.4509ZM60.8753 30.4007C61.906 28.5562 62.2925 26.5966 62.2925 24.7568H48.584C48.584 24.6805 48.6063 24.2543 48.9086 23.7134L60.8753 30.4007ZM62.2925 24.7568C62.2925 22.9345 61.9205 20.9271 60.832 19.0366L48.9519 25.8766C48.5918 25.2513 48.584 24.7774 48.584 24.7568H62.2925ZM60.9093 19.1744C59.9944 17.4971 58.6572 16.0686 56.9249 15.0628L50.0413 26.9177C49.7933 26.7737 49.5525 26.5873 49.3383 26.3644C49.1257 26.1431 48.9753 25.9234 48.8746 25.7388L60.9093 19.1744ZM57.0096 15.1128C55.2504 14.0573 53.3427 13.6184 51.4992 13.6184V27.327C51.1508 27.327 50.5657 27.2332 49.9566 26.8677L57.0096 15.1128ZM51.4992 13.6184C49.6523 13.6184 47.7753 14.0579 46.0447 15.0628L52.9283 26.9177C52.3862 27.2325 51.8509 27.327 51.4992 27.327V13.6184ZM46.0448 15.0628C44.3124 16.0686 42.9752 17.4971 42.0603 19.1744L54.095 25.7388C53.9943 25.9234 53.8439 26.1431 53.6313 26.3644C53.4171 26.5873 53.1763 26.7737 52.9283 26.9177L46.0448 15.0628ZM42.0603 19.1744C41.0452 21.0355 40.7058 22.9914 40.7058 24.7568H54.4144C54.4144 24.7204 54.42 25.1428 54.095 25.7388L42.0603 19.1744ZM40.7058 24.7568C40.7058 26.5388 41.0587 28.4483 42.0199 30.264L54.1354 23.85C54.4066 24.3623 54.4144 24.7383 54.4144 24.7568H40.7058ZM42.0603 30.3392C42.9752 32.0165 44.3124 33.445 46.0447 34.4509L52.9283 22.5959C53.1763 22.7399 53.4171 22.9263 53.6313 23.1492C53.8439 23.3705 53.9943 23.5903 54.095 23.7748L42.0603 30.3392ZM46.0447 34.4509C47.7753 35.4557 49.6523 35.8952 51.4992 35.8952V22.1867C51.8509 22.1867 52.3862 22.2811 52.9283 22.5959L46.0447 34.4509ZM65.1402 31.6861L61.9696 37.763C61.9815 37.7692 61.9935 37.7754 62.0054 37.7815L65.1402 31.6861ZM62.0637 28.8684L56.1944 32.4086C56.2028 32.4225 56.2112 32.4363 56.2197 32.4502L62.0637 28.8684ZM62.0349 20.6452L56.1657 17.105C56.1601 17.1142 56.1546 17.1235 56.1491 17.1327L62.0349 20.6452ZM64.9964 17.8275L68.246 23.8625C68.2699 23.8496 68.2936 23.8366 68.3173 23.8235L64.9964 17.8275ZM73.3059 17.77L70.0506 23.8019C70.0884 23.8223 70.1264 23.8424 70.1646 23.8621L73.3059 17.77ZM76.2099 20.5302L70.2995 24.0014C70.3076 24.0152 70.3158 24.029 70.324 24.0427L76.2099 20.5302ZM77.2449 25.4181L84.071 26.0387C84.0726 26.0216 84.0741 26.0045 84.0755 25.9873L77.2449 25.4181ZM77.1874 26.0219V32.8762C80.7088 32.8762 83.6573 30.2078 84.0077 26.7039L77.1874 26.0219ZM64.6226 26.0219H57.7684C57.7684 29.8074 60.8371 32.8762 64.6226 32.8762V26.0219ZM64.6226 23.4054V16.5512C60.8371 16.5512 57.7684 19.6199 57.7684 23.4054H64.6226ZM74.8297 23.4054L77.6425 29.656C80.5891 28.33 82.2095 25.1263 81.5314 21.967C80.8533 18.8078 78.0609 16.5512 74.8297 16.5512V23.4054ZM73.1046 24.1818H66.2503C66.2503 26.5076 67.4298 28.6748 69.3829 29.9376C71.3361 31.2005 73.7964 31.3868 75.9173 30.4323L73.1046 24.1818ZM72.6158 22.0828L66.6059 25.3786L66.6059 25.3786L72.6158 22.0828ZM71.2644 20.7027L67.738 26.5802C67.7867 26.6094 67.8358 26.6381 67.8852 26.6661L71.2644 20.7027ZM67.2104 20.7027L70.5896 26.6661C70.6105 26.6542 70.6313 26.6423 70.6521 26.6302L67.2104 20.7027ZM65.859 22.1116L71.8689 25.4073C71.8835 25.3808 71.8979 25.3541 71.9121 25.3273L65.859 22.1116ZM65.9165 27.172L59.9331 30.5157C59.9724 30.586 60.013 30.6557 60.0548 30.7246L65.9165 27.172ZM67.4979 28.6384L64.3631 34.7338C64.4318 34.7691 64.5012 34.8033 64.5711 34.8363L67.4979 28.6384ZM72.0695 28.7534L69.5573 22.3761C69.5347 22.385 69.5122 22.394 69.4897 22.4032L72.0695 28.7534ZM73.7947 27.6321L78.8333 22.9853C77.5835 21.6301 75.8406 20.8355 73.9979 20.7808C72.1552 20.7262 70.3682 21.4161 69.0403 22.6948L73.7947 27.6321ZM76.1811 30.2198L81.3243 34.7506C83.6451 32.1162 83.6 28.1539 81.2198 25.573L76.1811 30.2198ZM73.5071 32.0887L76.0134 38.4683C76.0461 38.4554 76.0787 38.4423 76.1112 38.429L73.5071 32.0887ZM69.7981 25.867C68.941 25.867 68.4957 25.7043 68.275 25.5907L62.0054 37.7815C64.4682 39.0482 67.1282 39.5755 69.7981 39.5755V25.867ZM68.3107 25.6093C68.0085 25.4516 67.9415 25.342 67.9076 25.2866L56.2197 32.4502C57.6426 34.7717 59.6267 36.5406 61.9696 37.763L68.3107 25.6093ZM67.9329 25.3282C67.9048 25.2816 67.8253 25.1553 67.8253 24.7568H54.1168C54.1168 27.4252 54.7657 30.04 56.1944 32.4086L67.9329 25.3282ZM67.8253 24.7568C67.8253 24.2865 67.92 24.159 67.9208 24.1577L56.1491 17.1327C54.7314 19.5083 54.1168 22.1218 54.1168 24.7568H67.8253ZM67.9042 24.1854C67.9962 24.0328 68.0771 23.9534 68.246 23.8625L61.7468 11.7925C59.4239 13.0433 57.5304 14.8425 56.1657 17.105L67.9042 24.1854ZM68.3173 23.8235C68.4444 23.7531 68.69 23.6466 69.223 23.6466V9.93814C66.6125 9.93814 64.0403 10.5217 61.6755 11.8314L68.3173 23.8235ZM69.223 23.6466C69.7209 23.6466 69.9437 23.7442 70.0506 23.8019L76.5612 11.7381C74.2528 10.4923 71.7538 9.93814 69.223 9.93814V23.6466ZM70.1646 23.8621C70.1953 23.8779 70.212 23.889 70.2189 23.8939C70.2257 23.8987 70.2285 23.9013 70.2298 23.9026C70.2311 23.9038 70.2366 23.9091 70.2465 23.9217C70.2566 23.9345 70.2749 23.9595 70.2995 24.0014L82.1202 17.0591C80.7646 14.7508 78.8439 12.9138 76.4471 11.6779L70.1646 23.8621ZM70.324 24.0427C70.3118 24.0223 70.3305 24.0436 70.3555 24.1445C70.3822 24.2519 70.4194 24.4647 70.4194 24.8143H84.128C84.128 22.1641 83.5574 19.467 82.0957 17.0177L70.324 24.0427ZM70.4194 24.8143C70.4194 24.7943 70.4197 24.7804 70.4199 24.7734C70.4201 24.7663 70.4202 24.7646 70.42 24.7686C70.4196 24.7775 70.4182 24.8035 70.4144 24.8489L84.0755 25.9873C84.1056 25.6267 84.128 25.2278 84.128 24.8143H70.4194ZM70.4188 24.7975C70.4014 24.9899 70.3841 25.1706 70.3672 25.3399L84.0077 26.7039C84.0291 26.4899 84.0502 26.2681 84.071 26.0387L70.4188 24.7975ZM77.1874 19.1677H64.6226V32.8762H77.1874V19.1677ZM71.4769 26.0219V23.4054H57.7684V26.0219H71.4769ZM64.6226 30.2597H74.8297V16.5512H64.6226V30.2597ZM72.017 17.1549L70.2919 17.9312L75.9173 30.4323L77.6425 29.656L72.017 17.1549ZM79.9589 24.1818C79.9589 22.4411 79.601 20.5656 78.6257 18.7871L66.6059 25.3786C66.2823 24.7885 66.2503 24.3123 66.2503 24.1818H79.9589ZM78.6257 18.7871C77.704 17.1064 76.3555 15.7094 74.6437 14.7394L67.8852 26.6661C67.6294 26.5211 67.3717 26.3281 67.1361 26.0876C66.9014 25.8479 66.7278 25.6009 66.6059 25.3786L78.6257 18.7871ZM74.7909 14.8252C73.0051 13.7537 71.0793 13.3309 69.2518 13.3309V27.0394C68.9577 27.0394 68.3737 26.9617 67.738 26.5802L74.7909 14.8252ZM69.2518 13.3309C67.4195 13.3309 65.5256 13.755 63.7686 14.7752L70.6521 26.6302C70.0835 26.9604 69.5506 27.0394 69.2518 27.0394V13.3309ZM63.8311 14.7394C62.0625 15.7416 60.7109 17.1924 59.8059 18.8959L71.9121 25.3273C71.7984 25.5413 71.6286 25.793 71.3878 26.044C71.1452 26.2969 70.8717 26.5062 70.5896 26.6661L63.8311 14.7394ZM59.8491 18.8158C58.8615 20.6168 58.5159 22.5102 58.5159 24.2393H72.2245C72.2245 24.3199 72.2048 24.7948 71.8689 25.4073L59.8491 18.8158ZM58.5159 24.2393V24.9293H72.2245V24.2393H58.5159ZM58.5159 24.9293C58.5159 26.789 58.927 28.7153 59.9331 30.5157L71.8999 23.8284C72.1776 24.3253 72.2245 24.7564 72.2245 24.9293H58.5159ZM60.0548 30.7246C61.1083 32.463 62.5894 33.8216 64.3631 34.7338L70.6327 22.543C70.8246 22.6417 71.0438 22.7867 71.2598 22.987C71.4766 23.188 71.6495 23.407 71.7782 23.6194L60.0548 30.7246ZM64.5711 34.8363C66.3451 35.6741 68.1858 35.9814 69.9131 35.9814V22.2729C69.8002 22.2729 70.0308 22.2544 70.4247 22.4404L64.5711 34.8363ZM69.9131 35.9814C71.4124 35.9814 73.0427 35.7563 74.6493 35.1036L69.4897 22.4032C69.8695 22.2489 70.0622 22.2729 69.9131 22.2729V35.9814ZM74.5818 35.1307C76.0955 34.5343 77.4228 33.6539 78.5491 32.5693L69.0403 22.6948C69.1315 22.607 69.3086 22.4741 69.5573 22.3761L74.5818 35.1307ZM68.756 32.2788L71.1424 34.8666L81.2198 25.573L78.8333 22.9853L68.756 32.2788ZM71.038 25.6889C71.049 25.6763 71.0585 25.6697 71.0541 25.6727C71.048 25.677 71.0048 25.7066 70.9031 25.7484L76.1112 38.429C78.0777 37.6213 79.8632 36.4091 81.3243 34.7506L71.038 25.6889ZM71.0009 25.7091C70.8762 25.7581 70.5175 25.867 69.7981 25.867V39.5755C71.8772 39.5755 73.9912 39.2627 76.0134 38.4683L71.0009 25.7091ZM79.3973 32.4912H72.5431C72.5431 36.2767 75.6118 39.3455 79.3973 39.3455V32.4912ZM79.3973 17.0224V10.1682C75.6118 10.1682 72.5431 13.2369 72.5431 17.0224H79.3973ZM83.6814 17.0224H90.5357C90.5357 13.2369 87.4669 10.1682 83.6814 10.1682V17.0224ZM83.6814 21.3928L77.4956 24.3451C78.875 27.2352 82.0717 28.785 85.195 28.0778C88.3183 27.3707 90.5357 24.5951 90.5357 21.3928H83.6814ZM83.0776 20.1277L76.7605 17.4678C76.0011 19.2715 76.0489 21.3138 76.8918 23.08L83.0776 20.1277ZM85.2916 17.655L88.5817 23.6679C88.6106 23.6521 88.6393 23.6361 88.668 23.6199L85.2916 17.655ZM89.0006 16.7924H95.8549C95.8549 13.0069 92.7861 9.93814 89.0006 9.93814V16.7924ZM89.0006 20.9327L88.3186 27.753C90.2455 27.9457 92.164 27.3143 93.5999 26.0149C95.0357 24.7154 95.8549 22.8693 95.8549 20.9327H89.0006ZM88.4831 20.904L87.6329 27.7053C87.915 27.7406 88.1989 27.7582 88.4831 27.7582V20.904ZM85.0041 21.9391L89.6532 26.9756L89.6584 26.9708L85.0041 21.9391ZM83.8827 32.4912V39.3455C87.6682 39.3455 90.737 36.2767 90.737 32.4912H83.8827ZM86.2516 32.4912V17.0224H72.5431V32.4912H86.2516ZM79.3973 23.8767H83.6814V10.1682H79.3973V23.8767ZM76.8272 17.0224V21.3928H90.5357V17.0224H76.8272ZM89.8673 18.4404L89.2635 17.1753L76.8918 23.08L77.4956 24.3451L89.8673 18.4404ZM89.3948 22.7875C89.3512 22.8911 89.2555 23.0691 89.0827 23.2622C88.9084 23.4568 88.7244 23.5899 88.5817 23.6679L82.0015 11.642C79.5921 12.9603 77.8062 14.9843 76.7605 17.4678L89.3948 22.7875ZM88.668 23.6199C88.5576 23.6824 88.4986 23.6922 88.5334 23.6841C88.5742 23.6746 88.7198 23.6466 89.0006 23.6466V9.93814C86.65 9.93814 84.1866 10.4043 81.9152 11.69L88.668 23.6199ZM82.1464 16.7924V20.9327H95.8549V16.7924H82.1464ZM89.6827 14.1125C89.3189 14.0761 88.9131 14.0497 88.4831 14.0497V27.7582C88.4183 27.7582 88.3721 27.7563 88.3473 27.7549C88.3221 27.7535 88.312 27.7523 88.3186 27.753L89.6827 14.1125ZM89.3333 14.1027C88.8677 14.0445 88.4188 14.021 87.9943 14.021V27.7295C87.9148 27.7295 87.7918 27.7252 87.6329 27.7053L89.3333 14.1027ZM87.9943 14.021C85.3627 14.021 82.6005 14.8254 80.3497 16.9074L89.6584 26.9708C89.3517 27.2544 88.9882 27.4694 88.6241 27.5989C88.2776 27.7222 88.0411 27.7295 87.9943 27.7295V14.021ZM80.3549 16.9025C77.6673 19.3835 77.0285 22.6735 77.0285 25.1881H90.737C90.737 25.0031 90.7635 25.1538 90.6423 25.5051C90.507 25.8969 90.2116 26.4601 89.6532 26.9756L80.3549 16.9025ZM77.0285 25.1881V32.4912H90.737V25.1881H77.0285ZM83.8827 25.637H79.3973V39.3455H83.8827V25.637ZM94.5422 29.3284L87.6895 29.1842C87.6308 31.9715 89.2663 34.5167 91.826 35.6215C94.3857 36.7264 97.3596 36.1707 99.3477 34.216L94.5422 29.3284ZM94.6572 23.8655L89.9411 18.8917C88.6124 20.1516 87.843 21.8906 87.8045 23.7212L94.6572 23.8655ZM101.874 17.0224V10.1682C100.119 10.1682 98.4313 10.8412 97.1579 12.0486L101.874 17.0224ZM107.222 17.0224L112.108 21.829C114.045 19.86 114.611 16.9208 113.544 14.3734C112.476 11.826 109.984 10.1682 107.222 10.1682V17.0224ZM100.293 24.0668L104.622 29.3804C104.817 29.2217 105.003 29.0525 105.179 28.8734L100.293 24.0668ZM97.9638 25.9644L93.6341 20.6508C93.469 20.7853 93.3102 20.9275 93.1583 21.0768L97.9638 25.9644ZM90.8332 32.4912H83.9789C83.9789 36.2767 87.0477 39.3455 90.8332 39.3455V32.4912ZM90.8332 11.1569V4.30267C87.0477 4.30267 83.9789 7.37142 83.9789 11.1569L90.8332 11.1569ZM95.3185 11.1569H102.173C102.173 7.37142 99.104 4.30267 95.3185 4.30267V11.1569ZM95.3185 32.4912V39.3455C99.104 39.3455 102.173 36.2767 102.173 32.4912H95.3185ZM102.363 32.4912L97.0245 36.7903C98.3256 38.406 100.288 39.3455 102.363 39.3455V32.4912ZM97.1299 25.9932L91.8035 21.6792C89.7709 24.1889 89.7659 27.7769 91.7915 30.2922L97.1299 25.9932ZM99.9477 22.5141L105.335 18.276C104.046 16.6375 102.081 15.6748 99.9962 15.66C97.9115 15.6453 95.9334 16.5801 94.6213 18.2002L99.9477 22.5141ZM107.797 32.4912V39.3455C110.422 39.3455 112.816 37.8465 113.963 35.4855C115.109 33.1245 114.807 30.3159 113.184 28.2531L107.797 32.4912ZM101.395 29.4727L101.51 24.0098L87.8045 23.7212L87.6895 29.1842L101.395 29.4727ZM99.3734 28.8393L106.59 21.9962L97.1579 12.0486L89.9411 18.8917L99.3734 28.8393ZM101.874 23.8767L107.222 23.8767V10.1682H101.874V23.8767ZM102.336 12.2158L95.4063 19.2601L105.179 28.8734L112.108 21.829L102.336 12.2158ZM95.9631 18.7531L93.6341 20.6508L102.293 31.2781L104.622 29.3804L95.9631 18.7531ZM93.1583 21.0768L89.7368 24.4409L99.3477 34.216L102.769 30.852L93.1583 21.0768ZM97.6874 32.4912V11.1569L83.9789 11.1569V32.4912H97.6874ZM90.8332 18.0112H95.3185V4.30267H90.8332V18.0112ZM88.4643 11.1569V32.4912H102.173V11.1569L88.4643 11.1569ZM95.3185 25.637H90.8332V39.3455H95.3185V25.637ZM107.701 28.1921L102.468 21.6941L91.7915 30.2922L97.0245 36.7903L107.701 28.1921ZM102.456 30.3071L105.274 26.8281L94.6213 18.2002L91.8035 21.6792L102.456 30.3071ZM94.5607 26.7523L102.41 36.7293L113.184 28.2531L105.335 18.276L94.5607 26.7523ZM107.797 25.637L102.363 25.637V39.3455H107.797V25.637ZM109.826 32.2612L108.041 38.8788C108.082 38.8898 108.123 38.9005 108.164 38.9108L109.826 32.2612ZM106.951 31.0536L100.734 28.1672C99.3171 31.2194 100.325 34.8489 103.114 36.733L106.951 31.0536ZM108.446 27.8333L112.065 22.0121C110.398 20.976 108.367 20.7041 106.486 21.2652C104.606 21.8264 103.056 23.1668 102.229 24.9469L108.446 27.8333ZM110.948 28.9259L108.978 35.4911C109.03 35.5066 109.081 35.5214 109.133 35.5356L110.948 28.9259ZM116.008 28.9547L112.635 22.9876C112.597 23.0093 112.559 23.0313 112.521 23.0537L116.008 28.9547ZM116.152 27.1145L112.677 33.0224C112.811 33.1013 112.947 33.1756 113.087 33.2451L116.152 27.1145ZM114.829 26.6832L113.665 33.4378H113.665L114.829 26.6832ZM112.989 26.3957L111.992 33.177C112.001 33.1784 112.01 33.1797 112.02 33.1811L112.989 26.3957ZM111.005 26.0219L109.298 32.6602C109.358 32.6756 109.418 32.6901 109.478 32.7038L111.005 26.0219ZM109.165 25.2744L112.631 19.3612L112.631 19.3612L109.165 25.2744ZM107.814 23.9517L101.901 27.4181C101.93 27.4679 101.96 27.5174 101.99 27.5664L107.814 23.9517ZM108.159 19.2076L102.726 15.0285C102.703 15.058 102.681 15.0877 102.658 15.1176L108.159 19.2076ZM110.631 17.4537L113.138 23.8333C113.17 23.8205 113.203 23.8074 113.235 23.794L110.631 17.4537ZM117.705 17.1374L119.117 10.4302L119.117 10.4302L117.705 17.1374ZM120.436 18.1438L126.643 21.0515C128.13 17.8781 126.983 14.0945 123.985 12.2799L120.436 18.1438ZM118.941 21.3353L115.459 27.2393C117.122 28.22 119.121 28.454 120.966 27.8836C122.81 27.3131 124.329 25.9913 125.148 24.243L118.941 21.3353ZM116.669 20.4439L115.128 27.1227C115.194 27.1378 115.259 27.1519 115.325 27.1651L116.669 20.4439ZM112.299 20.5877L108.845 14.6672L108.845 14.6672L112.299 20.5877ZM112.098 22.4854L108.623 28.3933C108.671 28.4218 108.72 28.4497 108.769 28.4771L112.098 22.4854ZM115.261 23.2617L114.263 30.043C114.336 30.0537 114.409 30.0633 114.482 30.0716L115.261 23.2617ZM117.273 23.6355L118.98 16.9972L118.98 16.9972L117.273 23.6355ZM119.085 24.383L115.527 30.242C115.608 30.2912 115.691 30.3387 115.774 30.3845L119.085 24.383ZM120.436 25.6769L114.612 29.2916C114.631 29.3223 114.651 29.3529 114.67 29.3834L120.436 25.6769ZM120.091 30.3635L125.471 34.6107C125.489 34.5881 125.506 34.5655 125.524 34.5426L120.091 30.3635ZM117.59 32.0887L115.121 25.6942C115.109 25.6991 115.096 25.7041 115.083 25.7091L117.59 32.0887ZM113.65 25.867C112.863 25.867 112.147 25.7763 111.489 25.6116L108.164 38.9108C109.959 39.3595 111.793 39.5755 113.65 39.5755V25.867ZM111.612 25.6436C111.247 25.5451 111.003 25.4571 110.856 25.3954C110.707 25.3326 110.702 25.3155 110.789 25.3742L103.114 36.733C104.668 37.783 106.408 38.4381 108.041 38.8788L111.612 25.6436ZM113.168 33.94L114.663 30.7197L102.229 24.9469L100.734 28.1672L113.168 33.94ZM104.828 33.6545C106.141 34.471 107.55 35.0628 108.978 35.4911L112.917 22.3607C112.428 22.214 112.17 22.0774 112.065 22.0121L104.828 33.6545ZM109.133 35.5356C110.655 35.9535 112.224 36.1827 113.823 36.1827V22.4742C113.543 22.4742 113.195 22.435 112.762 22.3162L109.133 35.5356ZM113.823 36.1827C114.999 36.1827 117.365 36.1142 119.495 34.8557L112.521 23.0537C112.935 22.8094 113.289 22.6734 113.516 22.5996C113.747 22.5245 113.914 22.4918 113.99 22.4789C114.125 22.4558 114.094 22.4742 113.823 22.4742V36.1827ZM119.381 34.9217C121.589 33.6739 123.524 31.2437 123.524 27.9196H109.815C109.815 26.937 110.08 25.8333 110.728 24.8187C111.347 23.8493 112.108 23.2856 112.635 22.9876L119.381 34.9217ZM123.524 27.9196C123.524 26.6142 123.199 25.1288 122.306 23.7387C121.427 22.3712 120.261 21.5056 119.217 20.9839L113.087 33.2451C112.388 32.896 111.481 32.2508 110.774 31.1517C110.053 30.0298 109.815 28.8607 109.815 27.9196H123.524ZM119.627 21.2066C118.329 20.4427 117.003 20.1025 115.994 19.9286L113.665 33.4378C113.684 33.4412 113.604 33.4291 113.452 33.3795C113.303 33.331 113.024 33.2266 112.677 33.0224L119.627 21.2066ZM115.994 19.9286C115.362 19.8196 114.682 19.7137 113.958 19.6103L112.02 33.1811C112.638 33.2694 113.185 33.3551 113.665 33.4378L115.994 19.9286ZM113.986 19.6144C113.52 19.5458 113.036 19.455 112.533 19.34L109.478 32.7038C110.316 32.8955 111.155 33.0539 111.992 33.177L113.986 19.6144ZM112.712 19.3836C112.66 19.3702 112.632 19.3594 112.622 19.3554C112.612 19.3516 112.617 19.3528 112.631 19.3612L105.699 31.1875C106.844 31.8589 108.056 32.3408 109.298 32.6602L112.712 19.3836ZM112.631 19.3612C113.052 19.6075 113.404 19.9618 113.637 20.3371L101.99 27.5664C102.913 29.0535 104.167 30.2894 105.699 31.1875L112.631 19.3612ZM113.727 20.4854C114.204 21.2987 114.179 21.8891 114.179 21.7953L100.471 21.7953C100.471 23.465 100.772 25.493 101.901 27.4181L113.727 20.4854ZM114.179 21.7953C114.179 21.9641 114.154 22.218 114.057 22.5174C113.96 22.8202 113.816 23.0863 113.659 23.2976L102.658 15.1176C101.178 17.1084 100.471 19.422 100.471 21.7953L114.179 21.7953ZM113.592 23.3867C113.434 23.5912 113.279 23.7248 113.174 23.7991C113.075 23.8693 113.046 23.8692 113.138 23.8333L108.125 11.0741C106.152 11.8492 104.211 13.0973 102.726 15.0285L113.592 23.3867ZM113.235 23.794C113.282 23.775 113.636 23.6466 114.484 23.6466V9.93814C112.342 9.93814 110.128 10.2507 108.027 11.1134L113.235 23.794ZM114.484 23.6466C115.037 23.6466 115.637 23.7066 116.292 23.8447L119.117 10.4302C117.587 10.1082 116.04 9.93814 114.484 9.93814V23.6466ZM116.292 23.8447C116.561 23.9011 116.736 23.956 116.837 23.9932C116.938 24.0302 116.944 24.0424 116.887 24.0076L123.985 12.2799C122.428 11.3372 120.742 10.7724 119.117 10.4302L116.292 23.8447ZM114.229 15.236L112.734 18.4275L125.148 24.243L126.643 21.0515L114.229 15.236ZM122.423 15.4313C121.086 14.6428 119.612 14.0424 118.014 13.7228L115.325 27.1651C115.297 27.1595 115.291 27.1554 115.309 27.1624C115.327 27.1697 115.377 27.1912 115.459 27.2393L122.423 15.4313ZM118.211 13.7652C116.999 13.4855 115.753 13.3309 114.484 13.3309V27.0394C114.634 27.0394 114.845 27.0574 115.128 27.1227L118.211 13.7652ZM114.484 13.3309C113.165 13.3309 110.921 13.4563 108.845 14.6672L115.753 26.5083C115.088 26.8958 114.565 27.0021 114.432 27.0266C114.274 27.0557 114.27 27.0394 114.484 27.0394V13.3309ZM108.845 14.6672C106.921 15.7897 104.755 18.1022 104.755 21.6228H118.463C118.463 22.7408 118.134 23.8763 117.485 24.8498C116.88 25.7562 116.176 26.2612 115.753 26.5083L108.845 14.6672ZM104.755 21.6228C104.755 24.3929 106.167 26.9489 108.623 28.3933L115.573 16.5775C116.295 17.0024 117.102 17.7008 117.695 18.7467C118.285 19.7881 118.463 20.8214 118.463 21.6228H104.755ZM108.769 28.4771C109.922 29.1178 111.096 29.4579 112.06 29.6575L114.838 16.2333C114.787 16.2227 114.815 16.2254 114.903 16.2556C114.989 16.2849 115.177 16.3553 115.427 16.4937L108.769 28.4771ZM112.06 29.6575C112.765 29.8032 113.501 29.9309 114.263 30.043L116.258 16.4804C115.717 16.4008 115.245 16.3176 114.838 16.2333L112.06 29.6575ZM114.482 30.0716C114.832 30.1116 115.193 30.1777 115.566 30.2738L118.98 16.9972C118.012 16.7482 117.031 16.5651 116.039 16.4518L114.482 30.0716ZM115.566 30.2738C115.611 30.2852 115.625 30.2919 115.614 30.2876C115.603 30.2831 115.572 30.2692 115.527 30.242L122.642 18.5241C121.474 17.8151 120.236 17.3201 118.98 16.9972L115.566 30.2738ZM115.774 30.3845C115.269 30.1061 114.867 29.7016 114.612 29.2916L126.26 22.0622C125.315 20.5404 124.012 19.2733 122.396 18.3816L115.774 30.3845ZM114.67 29.3834C114.376 28.9259 114.232 28.5122 114.164 28.2314C114.13 28.0925 114.114 27.9844 114.107 27.9145C114.099 27.8447 114.099 27.8064 114.099 27.8046H127.808C127.808 26.0925 127.48 23.9594 126.202 21.9704L114.67 29.3834ZM114.099 27.8046C114.099 27.5877 114.134 27.2971 114.243 26.9737C114.352 26.6491 114.506 26.3818 114.658 26.1844L125.524 34.5426C127.037 32.5761 127.808 30.2482 127.808 27.8046H114.099ZM114.711 26.1163C115.072 25.6592 115.365 25.6002 115.121 25.6942L120.058 38.4832C121.999 37.7337 123.96 36.5247 125.471 34.6107L114.711 26.1163ZM115.083 25.7091C115.032 25.7291 114.624 25.867 113.65 25.867V39.5755C115.782 39.5755 118 39.2916 120.096 38.4683L115.083 25.7091ZM124.239 32.2612L122.453 38.8788C122.494 38.8898 122.535 38.9005 122.576 38.9108L124.239 32.2612ZM121.363 31.0536L115.146 28.1672C113.729 31.2194 114.738 34.8489 117.526 36.733L121.363 31.0536ZM122.858 27.8333L126.477 22.0121C124.81 20.976 122.779 20.7041 120.899 21.2652C119.018 21.8264 117.468 23.1668 116.642 24.9469L122.858 27.8333ZM125.36 28.9259L123.39 35.4911C123.442 35.5066 123.494 35.5214 123.545 35.5356L125.36 28.9259ZM130.42 28.9547L127.048 22.9876C127.009 23.0093 126.971 23.0313 126.933 23.0537L130.42 28.9547ZM130.564 27.1145L127.089 33.0224C127.223 33.1013 127.36 33.1756 127.499 33.2451L130.564 27.1145ZM129.241 26.6832L128.077 33.4378H128.077L129.241 26.6832ZM127.401 26.3957L126.404 33.177C126.413 33.1784 126.423 33.1797 126.432 33.1811L127.401 26.3957ZM125.417 26.0219L123.71 32.6602C123.77 32.6756 123.83 32.6901 123.89 32.7038L125.417 26.0219ZM123.577 25.2744L127.044 19.3612L127.044 19.3612L123.577 25.2744ZM122.226 23.9517L116.313 27.4181C116.342 27.4679 116.372 27.5174 116.402 27.5664L122.226 23.9517ZM122.571 19.2076L117.138 15.0285C117.115 15.058 117.093 15.0877 117.071 15.1176L122.571 19.2076ZM125.044 17.4537L127.55 23.8333C127.583 23.8205 127.615 23.8074 127.648 23.794L125.044 17.4537ZM132.117 17.1374L133.529 10.4302L133.529 10.4302L132.117 17.1374ZM134.848 18.1438L141.055 21.0515C142.542 17.8781 141.395 14.0945 138.397 12.2799L134.848 18.1438ZM133.353 21.3353L129.871 27.2393C131.534 28.22 133.534 28.454 135.378 27.8836C137.223 27.3131 138.741 25.9913 139.56 24.243L133.353 21.3353ZM131.082 20.4439L129.54 27.1227C129.606 27.1378 129.671 27.1519 129.737 27.1651L131.082 20.4439ZM126.711 20.5877L123.258 14.6672L123.258 14.6672L126.711 20.5877ZM126.51 22.4854L123.035 28.3933C123.083 28.4218 123.132 28.4497 123.181 28.4771L126.51 22.4854ZM129.673 23.2617L128.675 30.043C128.748 30.0537 128.821 30.0633 128.894 30.0716L129.673 23.2617ZM131.685 23.6355L133.392 16.9972L133.392 16.9972L131.685 23.6355ZM133.497 24.383L129.94 30.242C130.021 30.2912 130.103 30.3387 130.186 30.3845L133.497 24.383ZM134.848 25.6769L129.025 29.2916C129.044 29.3223 129.063 29.3529 129.083 29.3834L134.848 25.6769ZM134.503 30.3635L139.883 34.6107C139.901 34.5881 139.918 34.5655 139.936 34.5426L134.503 30.3635ZM132.002 32.0887L129.534 25.6942C129.521 25.6991 129.508 25.7041 129.495 25.7091L132.002 32.0887ZM128.063 25.867C127.275 25.867 126.56 25.7763 125.901 25.6116L122.576 38.9108C124.371 39.3595 126.205 39.5755 128.063 39.5755V25.867ZM126.024 25.6436C125.659 25.5451 125.415 25.4571 125.268 25.3954C125.119 25.3326 125.114 25.3155 125.201 25.3742L117.526 36.733C119.08 37.783 120.82 38.4381 122.453 38.8788L126.024 25.6436ZM127.58 33.94L129.075 30.7197L116.642 24.9469L115.146 28.1672L127.58 33.94ZM119.24 33.6545C120.553 34.471 121.963 35.0628 123.39 35.4911L127.329 22.3607C126.84 22.214 126.582 22.0774 126.477 22.0121L119.24 33.6545ZM123.545 35.5356C125.068 35.9535 126.636 36.1827 128.235 36.1827V22.4742C127.955 22.4742 127.607 22.435 127.174 22.3162L123.545 35.5356ZM128.235 36.1827C129.411 36.1827 131.777 36.1142 133.907 34.8557L126.933 23.0537C127.347 22.8094 127.701 22.6734 127.928 22.5996C128.159 22.5245 128.327 22.4918 128.402 22.4789C128.537 22.4558 128.506 22.4742 128.235 22.4742V36.1827ZM133.793 34.9217C136.001 33.6739 137.936 31.2437 137.936 27.9196H124.227C124.227 26.937 124.492 25.8333 125.14 24.8187C125.76 23.8493 126.52 23.2856 127.048 22.9876L133.793 34.9217ZM137.936 27.9196C137.936 26.6142 137.612 25.1288 136.718 23.7387C135.839 22.3712 134.673 21.5056 133.629 20.9839L127.499 33.2451C126.8 32.896 125.893 32.2508 125.187 31.1517C124.465 30.0298 124.227 28.8607 124.227 27.9196H137.936ZM134.039 21.2066C132.741 20.4427 131.415 20.1025 130.406 19.9286L128.077 33.4378C128.096 33.4412 128.016 33.4291 127.864 33.3795C127.715 33.331 127.436 33.2266 127.089 33.0224L134.039 21.2066ZM130.406 19.9286C129.774 19.8196 129.094 19.7137 128.371 19.6103L126.432 33.1811C127.05 33.2694 127.597 33.3551 128.077 33.4378L130.406 19.9286ZM128.399 19.6144C127.932 19.5458 127.448 19.455 126.945 19.34L123.89 32.7038C124.729 32.8955 125.567 33.0539 126.404 33.177L128.399 19.6144ZM127.124 19.3836C127.072 19.3702 127.044 19.3594 127.034 19.3554C127.025 19.3516 127.029 19.3528 127.044 19.3612L120.111 31.1875C121.256 31.8589 122.468 32.3408 123.71 32.6602L127.124 19.3836ZM127.044 19.3612C127.464 19.6075 127.817 19.9618 128.049 20.3371L116.402 27.5664C117.325 29.0535 118.579 30.2894 120.111 31.1875L127.044 19.3612ZM128.139 20.4854C128.616 21.2987 128.591 21.8891 128.591 21.7953H114.883C114.883 23.465 115.184 25.493 116.313 27.4181L128.139 20.4854ZM128.591 21.7953C128.591 21.9641 128.566 22.218 128.469 22.5174C128.372 22.8202 128.228 23.0863 128.071 23.2976L117.071 15.1176C115.59 17.1084 114.883 19.422 114.883 21.7953H128.591ZM128.004 23.3867C127.846 23.5912 127.691 23.7248 127.586 23.7991C127.487 23.8693 127.458 23.8692 127.55 23.8333L122.537 11.0741C120.564 11.8492 118.624 13.0973 117.138 15.0285L128.004 23.3867ZM127.648 23.794C127.694 23.775 128.048 23.6466 128.896 23.6466V9.93814C126.754 9.93814 124.54 10.2507 122.44 11.1134L127.648 23.794ZM128.896 23.6466C129.449 23.6466 130.049 23.7066 130.705 23.8447L133.529 10.4302C131.999 10.1082 130.452 9.93814 128.896 9.93814V23.6466ZM130.705 23.8447C130.973 23.9011 131.149 23.956 131.249 23.9932C131.35 24.0302 131.357 24.0424 131.299 24.0076L138.397 12.2799C136.84 11.3372 135.154 10.7724 133.529 10.4302L130.705 23.8447ZM128.641 15.236L127.146 18.4275L139.56 24.243L141.055 21.0515L128.641 15.236ZM136.835 15.4313C135.498 14.6428 134.024 14.0424 132.426 13.7228L129.737 27.1651C129.709 27.1595 129.703 27.1554 129.721 27.1624C129.739 27.1697 129.79 27.1912 129.871 27.2393L136.835 15.4313ZM132.623 13.7652C131.411 13.4855 130.165 13.3309 128.896 13.3309V27.0394C129.047 27.0394 129.257 27.0574 129.54 27.1227L132.623 13.7652ZM128.896 13.3309C127.578 13.3309 125.333 13.4563 123.258 14.6672L130.165 26.5083C129.501 26.8958 128.978 27.0021 128.844 27.0266C128.686 27.0557 128.682 27.0394 128.896 27.0394V13.3309ZM123.258 14.6672C121.333 15.7897 119.167 18.1022 119.167 21.6228H132.875C132.875 22.7408 132.546 23.8763 131.897 24.8498C131.293 25.7562 130.588 26.2612 130.165 26.5083L123.258 14.6672ZM119.167 21.6228C119.167 24.3929 120.579 26.9489 123.035 28.3933L129.985 16.5775C130.708 17.0024 131.514 17.7008 132.107 18.7467C132.697 19.7881 132.875 20.8214 132.875 21.6228H119.167ZM123.181 28.4771C124.335 29.1178 125.508 29.4579 126.473 29.6575L129.25 16.2333C129.199 16.2227 129.227 16.2254 129.315 16.2556C129.402 16.2849 129.59 16.3553 129.839 16.4937L123.181 28.4771ZM126.473 29.6575C127.177 29.8032 127.913 29.9309 128.675 30.043L130.67 16.4804C130.129 16.4008 129.658 16.3176 129.25 16.2333L126.473 29.6575ZM128.894 30.0716C129.244 30.1116 129.605 30.1777 129.978 30.2738L133.392 16.9972C132.424 16.7482 131.443 16.5651 130.451 16.4518L128.894 30.0716ZM129.978 30.2738C130.023 30.2852 130.037 30.2919 130.027 30.2876C130.016 30.2831 129.984 30.2692 129.94 30.242L137.054 18.5241C135.886 17.8151 134.648 17.3201 133.392 16.9972L129.978 30.2738ZM130.186 30.3845C129.681 30.1061 129.279 29.7016 129.025 29.2916L140.672 22.0622C139.727 20.5404 138.424 19.2733 136.808 18.3816L130.186 30.3845ZM129.083 29.3834C128.788 28.9259 128.645 28.5122 128.576 28.2314C128.542 28.0925 128.527 27.9844 128.519 27.9145C128.511 27.8447 128.511 27.8064 128.511 27.8046H142.22C142.22 26.0925 141.892 23.9594 140.614 21.9704L129.083 29.3834ZM128.511 27.8046C128.511 27.5877 128.546 27.2971 128.655 26.9737C128.764 26.6491 128.918 26.3818 129.07 26.1844L139.936 34.5426C141.449 32.5761 142.22 30.2482 142.22 27.8046H128.511ZM129.123 26.1163C129.484 25.6592 129.777 25.6002 129.534 25.6942L134.47 38.4832C136.411 37.7337 138.372 36.5247 139.883 34.6107L129.123 26.1163ZM129.495 25.7091C129.444 25.7291 129.036 25.867 128.063 25.867V39.5755C130.194 39.5755 132.412 39.2916 134.508 38.4683L129.495 25.7091Z" fill="white"/>
<path fill-rule="evenodd" clip-rule="evenodd" d="M21.8548 34.7357C29.4511 34.7357 35.609 28.5777 35.609 20.9815C35.609 13.3853 29.4511 7.2273 21.8548 7.2273V34.7357ZM20.204 7.22754C12.9116 7.22754 7 13.1392 7 20.4315V38.5711C7 39.9473 8.1156 41.0628 9.49175 41.0628H13.602C17.2482 41.0628 20.204 38.107 20.204 34.4608V7.22754Z" fill="url(#paint1_linear_2218_14149)"/>
<path d="M52.2755 32.7212C50.9721 32.7212 49.8315 32.4337 48.854 31.8587C47.8764 31.2836 47.1096 30.4115 46.5538 29.2422C46.0171 28.0538 45.7487 26.5586 45.7487 24.7568C45.7487 22.9358 46.0075 21.4407 46.525 20.2714C47.0426 19.1022 47.7901 18.23 48.7677 17.655C49.7453 17.0799 50.9146 16.7924 52.2755 16.7924C53.7323 16.7924 55.0357 17.1278 56.1858 17.7987C57.3551 18.4504 58.2752 19.3705 58.9461 20.559C59.6361 21.7474 59.9811 23.1467 59.9811 24.7568C59.9811 26.3861 59.6361 27.795 58.9461 28.9834C58.2752 30.1718 57.3551 31.0919 56.1858 31.7436C55.0357 32.3954 53.7323 32.7212 52.2755 32.7212ZM43.1322 38.0692V17.0224H47.4163V20.1852L47.3301 24.7856L47.6176 29.3572V38.0692H43.1322ZM51.4992 29.0409C52.2467 29.0409 52.9081 28.8684 53.4831 28.5234C54.0773 28.1783 54.5469 27.6896 54.892 27.057C55.2562 26.4053 55.4383 25.6386 55.4383 24.7568C55.4383 23.8559 55.2562 23.0892 54.892 22.4566C54.5469 21.8241 54.0773 21.3353 53.4831 20.9902C52.9081 20.6452 52.2467 20.4727 51.4992 20.4727C50.7516 20.4727 50.0807 20.6452 49.4865 20.9902C48.8923 21.3353 48.4227 21.8241 48.0776 22.4566C47.7326 23.0892 47.5601 23.8559 47.5601 24.7568C47.5601 25.6386 47.7326 26.4053 48.0776 27.057C48.4227 27.6896 48.8923 28.1783 49.4865 28.5234C50.0807 28.8684 50.7516 29.0409 51.4992 29.0409ZM69.7981 32.7212C68.0346 32.7212 66.482 32.3762 65.1402 31.6861C63.8176 30.9961 62.7921 30.0568 62.0637 28.8684C61.3353 27.6608 60.9711 26.2903 60.9711 24.7568C60.9711 23.2042 61.3257 21.8336 62.0349 20.6452C62.7633 19.4376 63.7505 18.4984 64.9964 17.8275C66.2424 17.1374 67.6512 16.7924 69.223 16.7924C70.7373 16.7924 72.0983 17.1183 73.3059 17.77C74.5326 18.4025 75.5006 19.3226 76.2099 20.5302C76.9191 21.7186 77.2737 23.1467 77.2737 24.8143C77.2737 24.9868 77.2641 25.1881 77.2449 25.4181C77.2258 25.629 77.2066 25.8302 77.1874 26.0219H64.6226V23.4054H74.8297L73.1046 24.1818C73.1046 23.3767 72.9417 22.6771 72.6158 22.0828C72.2899 21.4886 71.8395 21.0286 71.2644 20.7027C70.6894 20.3577 70.0185 20.1852 69.2518 20.1852C68.485 20.1852 67.8046 20.3577 67.2104 20.7027C66.6353 21.0286 66.1849 21.4982 65.859 22.1116C65.5331 22.7058 65.3702 23.415 65.3702 24.2393V24.9293C65.3702 25.7727 65.5523 26.5203 65.9165 27.172C66.2999 27.8046 66.827 28.2934 67.4979 28.6384C68.1879 28.9642 68.993 29.1272 69.9131 29.1272C70.7373 29.1272 71.4561 29.0026 72.0695 28.7534C72.7021 28.5042 73.2771 28.1304 73.7947 27.6321L76.1811 30.2198C75.4719 31.0248 74.5806 31.6478 73.5071 32.0887C72.4337 32.5104 71.1974 32.7212 69.7981 32.7212ZM79.3973 32.4912V17.0224H83.6814V21.3928L83.0776 20.1277C83.5377 19.0351 84.2757 18.2108 85.2916 17.655C86.3075 17.0799 87.5439 16.7924 89.0006 16.7924V20.9327C88.809 20.9136 88.6364 20.904 88.4831 20.904C88.3297 20.8848 88.1668 20.8752 87.9943 20.8752C86.7675 20.8752 85.7708 21.2298 85.0041 21.9391C84.2565 22.6291 83.8827 23.7121 83.8827 25.1881V32.4912H79.3973ZM94.5422 29.3284L94.6572 23.8655L101.874 17.0224H107.222L100.293 24.0668L97.9638 25.9644L94.5422 29.3284ZM90.8332 32.4912V11.1569H95.3185V32.4912H90.8332ZM102.363 32.4912L97.1299 25.9932L99.9477 22.5141L107.797 32.4912H102.363ZM113.65 32.7212C112.328 32.7212 111.053 32.5679 109.826 32.2612C108.619 31.9353 107.66 31.5328 106.951 31.0536L108.446 27.8333C109.155 28.2742 109.989 28.6384 110.948 28.9259C111.925 29.1943 112.884 29.3284 113.823 29.3284C114.858 29.3284 115.586 29.2039 116.008 28.9547C116.449 28.7055 116.669 28.3604 116.669 27.9196C116.669 27.5554 116.497 27.287 116.152 27.1145C115.826 26.9228 115.385 26.7791 114.829 26.6832C114.273 26.5874 113.66 26.4915 112.989 26.3957C112.337 26.2999 111.676 26.1753 111.005 26.0219C110.334 25.8494 109.721 25.6002 109.165 25.2744C108.609 24.9485 108.159 24.5076 107.814 23.9517C107.488 23.3959 107.325 22.6771 107.325 21.7953C107.325 20.8177 107.603 19.9552 108.159 19.2076C108.734 18.46 109.558 17.8754 110.631 17.4537C111.705 17.0128 112.989 16.7924 114.484 16.7924C115.539 16.7924 116.612 16.9074 117.705 17.1374C118.797 17.3674 119.708 17.7029 120.436 18.1438L118.941 21.3353C118.193 20.8944 117.436 20.5973 116.669 20.4439C115.922 20.2714 115.193 20.1852 114.484 20.1852C113.488 20.1852 112.759 20.3194 112.299 20.5877C111.839 20.8561 111.609 21.2011 111.609 21.6228C111.609 22.0062 111.772 22.2937 112.098 22.4854C112.443 22.6771 112.893 22.8304 113.449 22.9454C114.005 23.0604 114.609 23.1658 115.261 23.2617C115.931 23.3384 116.602 23.463 117.273 23.6355C117.944 23.808 118.548 24.0572 119.085 24.383C119.641 24.6897 120.091 25.121 120.436 25.6769C120.781 26.2136 120.954 26.9228 120.954 27.8046C120.954 28.763 120.666 29.616 120.091 30.3635C119.516 31.0919 118.682 31.667 117.59 32.0887C116.516 32.5104 115.203 32.7212 113.65 32.7212ZM128.063 32.7212C126.74 32.7212 125.465 32.5679 124.239 32.2612C123.031 31.9353 122.072 31.5328 121.363 31.0536L122.858 27.8333C123.568 28.2742 124.401 28.6384 125.36 28.9259C126.337 29.1943 127.296 29.3284 128.235 29.3284C129.27 29.3284 129.999 29.2039 130.42 28.9547C130.861 28.7055 131.082 28.3604 131.082 27.9196C131.082 27.5554 130.909 27.287 130.564 27.1145C130.238 26.9228 129.797 26.7791 129.241 26.6832C128.686 26.5874 128.072 26.4915 127.401 26.3957C126.75 26.2999 126.088 26.1753 125.417 26.0219C124.746 25.8494 124.133 25.6002 123.577 25.2744C123.021 24.9485 122.571 24.5076 122.226 23.9517C121.9 23.3959 121.737 22.6771 121.737 21.7953C121.737 20.8177 122.015 19.9552 122.571 19.2076C123.146 18.46 123.97 17.8754 125.044 17.4537C126.117 17.0128 127.401 16.7924 128.896 16.7924C129.951 16.7924 131.024 16.9074 132.117 17.1374C133.209 17.3674 134.12 17.7029 134.848 18.1438L133.353 21.3353C132.605 20.8944 131.848 20.5973 131.082 20.4439C130.334 20.2714 129.606 20.1852 128.896 20.1852C127.9 20.1852 127.171 20.3194 126.711 20.5877C126.251 20.8561 126.021 21.2011 126.021 21.6228C126.021 22.0062 126.184 22.2937 126.51 22.4854C126.855 22.6771 127.305 22.8304 127.861 22.9454C128.417 23.0604 129.021 23.1658 129.673 23.2617C130.344 23.3384 131.014 23.463 131.685 23.6355C132.356 23.808 132.96 24.0572 133.497 24.383C134.053 24.6897 134.503 25.121 134.848 25.6769C135.193 26.2136 135.366 26.9228 135.366 27.8046C135.366 28.763 135.078 29.616 134.503 30.3635C133.928 31.0919 133.094 31.667 132.002 32.0887C130.928 32.5104 129.615 32.7212 128.063 32.7212Z" fill="#211F15"/>
<defs>
<linearGradient id="paint0_linear_2218_14149" x1="10.5761" y1="7.22754" x2="18.4988" y2="44.4832" gradientUnits="userSpaceOnUse">
<stop stop-color="#EB00FF"/>
<stop offset="1" stop-color="#1BFFE4"/>
</linearGradient>
<linearGradient id="paint1_linear_2218_14149" x1="10.5761" y1="7.22754" x2="18.4988" y2="44.4832" gradientUnits="userSpaceOnUse">
<stop stop-color="#EB00FF"/>
<stop offset="1" stop-color="#1BFFE4"/>
</linearGradient>
</defs>
</svg>
