<svg width="50" height="50" viewBox="0 0 50 50" fill="none" xmlns="http://www.w3.org/2000/svg">
<mask id="mask0_1_213" style="mask-type:alpha" maskUnits="userSpaceOnUse" x="8" y="8" width="34" height="34">
<path d="M23.3721 25.7158C23.6844 25.7254 23.9418 25.9638 23.9753 26.2744C24.2029 28.3864 24.9735 30.7868 26.2924 33.4712C26.3486 33.5856 26.4312 33.6844 26.5334 33.7596C26.8943 34.025 27.4141 33.9423 27.692 33.5677C29.4873 31.1474 30.6402 28.9824 31.1557 27.0817C31.2385 26.7764 31.5361 26.5809 31.8492 26.6261C33.8668 26.9173 36.3823 26.8243 39.3905 26.3418C39.5173 26.3215 39.6388 26.272 39.7452 26.197C40.1267 25.9283 40.2231 25.4083 39.967 25.039C38.8066 23.366 37.2581 21.6253 35.3213 19.8193C35.1112 19.6233 35.0615 19.3096 35.2006 19.0582C36.4856 16.7375 37.2784 14.3972 37.5824 12.0349C37.5933 11.9504 37.5912 11.8652 37.5762 11.7823C37.4962 11.3401 37.0742 11.0544 36.6279 11.1429C34.3044 11.6036 32.0268 12.5594 29.7928 14.014C29.5518 14.171 29.2348 14.1434 29.0244 13.9472C27.1149 12.1666 25.2786 10.7506 23.5173 9.69843C23.4081 9.63322 23.2843 9.59493 23.1556 9.58685C22.698 9.55809 22.293 9.91042 22.256 10.3714C22.0113 13.425 22.0871 15.9349 22.4784 17.8957C22.5401 18.2048 22.3623 18.5117 22.0633 18.6117C20.1683 19.2461 18.0811 20.5467 15.8102 22.5192C15.7112 22.6052 15.6331 22.7126 15.582 22.8328C15.4017 23.2568 15.5935 23.7336 16.0061 23.9035C18.7867 25.0483 21.2434 25.6504 23.3721 25.7158ZM22.9337 27.7419L9.77818 41.3649C9.04288 42.1263 8.18326 41.2962 8.91857 40.5348L22.1061 26.8786C20.124 26.6574 17.9325 26.0505 15.5295 25.0611C14.4688 24.6244 13.9784 23.4049 14.4299 22.343C14.5554 22.0477 14.7468 21.7846 14.9893 21.574C17.1791 19.6719 19.2317 18.3488 21.1538 17.6089C20.8232 15.6132 20.7759 13.1688 21.0081 10.2714C21.0995 9.13059 22.0939 8.26575 23.2342 8.3374C23.5616 8.35797 23.8786 8.45601 24.1593 8.62368C25.8902 9.65765 27.6771 11.0174 29.5215 12.7024C31.7553 11.3093 34.0436 10.3791 36.3843 9.91488C37.5155 9.69055 38.6033 10.4273 38.8081 11.5594C38.8459 11.7688 38.8513 11.983 38.8241 12.1947C38.5183 14.5714 37.7519 16.9192 36.5279 19.2359C38.3636 20.9822 39.853 22.6781 40.9957 24.3255C41.6465 25.2637 41.4064 26.5582 40.4661 27.2205C40.2042 27.405 39.904 27.5274 39.5887 27.5779C36.7205 28.0379 34.262 28.1578 32.2092 27.9333C31.5934 29.865 30.4215 31.9894 28.6975 34.3135C28.0116 35.2381 26.7117 35.4449 25.7916 34.768C25.5272 34.5735 25.3137 34.3182 25.1688 34.0233C24.0538 31.7537 23.3078 29.6607 22.9337 27.7419Z" fill="white"/>
</mask>
<g mask="url(#mask0_1_213)">
<path d="M45.3047 5H5.30469V45H45.3047V5Z" fill="url(#paint0_linear_1_213)"/>
</g>
<defs>
<linearGradient id="paint0_linear_1_213" x1="10.3047" y1="5" x2="18.3229" y2="49.5933" gradientUnits="userSpaceOnUse">
<stop stop-color="#EB00FF"/>
<stop offset="1" stop-color="#1BFFE4"/>
</linearGradient>
</defs>
</svg>
