<svg width="50" height="50" viewBox="0 0 50 50" fill="none" xmlns="http://www.w3.org/2000/svg">
<mask id="mask0_1_234" style="mask-type:alpha" maskUnits="userSpaceOnUse" x="8" y="8" width="34" height="34">
<path d="M31.9008 30.7787L41.4202 40.298C42.1681 41.046 41.0462 42.1679 40.2983 41.4199L30.7789 31.9006C28.3969 34.019 25.2589 35.3058 21.8198 35.3058C14.371 35.3058 8.3335 29.2688 8.3335 21.8195C8.3335 14.3707 14.3705 8.33325 21.8198 8.33325C29.2686 8.33325 35.306 14.3702 35.306 21.8195C35.306 25.2585 34.0193 28.3966 31.9008 30.7787ZM9.92012 21.8195C9.92012 28.3925 15.2472 33.7192 21.8198 33.7192C28.3928 33.7192 33.7194 28.3921 33.7194 21.8195C33.7194 15.2465 28.3923 9.91987 21.8198 9.91987C15.2468 9.91987 9.92012 15.247 9.92012 21.8195Z" fill="white"/>
</mask>
<g mask="url(#mask0_1_234)">
<path d="M44.8257 6.7467H6.74683V44.8256H44.8257V6.7467Z" fill="url(#paint0_linear_1_234)"/>
</g>
<defs>
<linearGradient id="paint0_linear_1_234" x1="11.5067" y1="6.7467" x2="19.1398" y2="49.1983" gradientUnits="userSpaceOnUse">
<stop stop-color="#EB00FF"/>
<stop offset="1" stop-color="#1BFFE4"/>
</linearGradient>
</defs>
</svg>
