<svg width="40" height="40" viewBox="0 0 40 40" fill="none" xmlns="http://www.w3.org/2000/svg">
<mask id="mask0_2218_14218" style="mask-type:alpha" maskUnits="userSpaceOnUse" x="6" y="6" width="28" height="28">
<path d="M29.4247 14.8937C29.1146 14.7677 28.9653 14.4142 29.0913 14.1041C29.2173 13.794 29.5708 13.6447 29.8809 13.7707L30.6279 14.0753C31.9517 14.7031 32.8579 15.9695 33.0249 17.425C33.2316 19.227 33.3346 21.2972 33.3346 23.6367C33.3346 25.6143 33.261 27.4357 33.1134 29.1012C32.9296 31.1761 31.2666 32.8106 29.1888 32.9585C25.677 33.2085 22.6279 33.3336 20.0405 33.3336C17.4463 33.3336 14.3718 33.2079 10.8158 32.9565C8.737 32.8096 7.07275 31.1747 6.88896 29.0988C6.74156 27.434 6.66797 25.6134 6.66797 23.6367C6.66797 21.2958 6.77117 19.2245 6.97812 17.4218C7.14499 15.9683 8.04904 14.7033 9.3702 14.0747C9.67246 13.9309 10.0341 14.0594 10.1779 14.3616C10.3217 14.6639 10.1932 15.0255 9.89096 15.1693C8.94727 15.6183 8.30152 16.5218 8.18233 17.5601C7.98103 19.3136 7.88009 21.3394 7.88009 23.6367C7.88009 25.5791 7.95225 27.3643 8.09636 28.9919C8.22764 30.4747 9.41638 31.6425 10.9012 31.7474C14.4306 31.9969 17.4774 32.1215 20.0405 32.1215C22.5967 32.1215 25.6177 31.9976 29.1027 31.7495C30.5869 31.6438 31.7747 30.4763 31.906 28.9942C32.0503 27.366 32.1225 25.58 32.1225 23.6367C32.1225 21.3408 32.0217 19.316 31.8206 17.5632C31.7014 16.5235 31.0541 15.6189 30.1401 15.1844L29.4247 14.8937ZM19.9827 24.4948C19.6482 24.4846 19.3853 24.205 19.3955 23.8705C19.4058 23.5359 19.6853 23.273 20.0199 23.2833C20.3304 23.2928 20.6182 23.2229 20.9087 23.0663L30.8518 17.7052C31.3938 17.4129 31.5963 16.7365 31.3041 16.1944C31.3125 16.2101 31.2878 16.1726 31.2708 16.1474C31.2285 16.0853 31.204 16.0489 31.1897 16.0254C31.0149 15.74 31.1046 15.3669 31.3901 15.1921C31.6756 15.0173 32.0487 15.1071 32.2234 15.3925C32.2218 15.3899 32.2294 15.4011 32.2739 15.467C32.3338 15.5556 32.3498 15.5798 32.371 15.6192C32.981 16.7505 32.5583 18.1621 31.427 18.7721L21.484 24.1332C21.0079 24.3899 20.5092 24.511 19.9827 24.4948ZM19.9827 23.2833C20.3173 23.273 20.5968 23.5359 20.6071 23.8705C20.6173 24.205 20.3544 24.4846 20.0199 24.4948C19.4934 24.511 18.9947 24.3899 18.5186 24.1332L8.57557 18.7721C7.44426 18.1621 7.02164 16.7505 7.63163 15.6192C7.65285 15.5798 7.66881 15.5556 7.72757 15.4687C7.77321 15.4011 7.78079 15.3899 7.77917 15.3925C7.95394 15.1071 8.32704 15.0173 8.61251 15.1921C8.89798 15.3669 8.98771 15.74 8.81295 16.0254C8.79856 16.0489 8.77406 16.0853 8.73287 16.1459C8.71483 16.1726 8.69012 16.2101 8.69854 16.1944C8.40626 16.7365 8.60876 17.4129 9.15083 17.7052L19.0939 23.0663C19.3844 23.2229 19.6722 23.2928 19.9827 23.2833ZM10.3043 18.5841C10.3009 18.9188 10.0267 19.1873 9.69205 19.1839C9.35734 19.1805 9.0888 18.9063 9.09221 18.5716C9.11072 16.7727 9.262 13.8673 9.54597 9.84897C9.65005 8.37614 10.8005 7.19273 12.2698 7.04706C14.8256 6.79368 17.4003 6.66699 19.9939 6.66699H22.5672C23.0112 6.66699 23.4398 6.82943 23.7723 7.12372C24.9739 8.18734 26.1187 9.2794 27.2067 10.3999C28.3026 11.5286 29.3541 12.6998 30.361 13.9135C30.6181 14.2234 30.7651 14.6099 30.7789 15.0124C30.8408 16.8283 30.8775 18.0407 30.889 18.6527C30.8951 18.9873 30.6289 19.2637 30.2942 19.27C29.9596 19.2761 29.6832 19.0099 29.677 18.6752C29.6658 18.0716 29.6292 16.8634 29.5674 15.0538C29.5629 14.9196 29.5139 14.7908 29.4282 14.6875C28.4413 13.4981 27.411 12.3504 26.337 11.2443C25.2705 10.1458 24.1478 9.07487 22.9689 8.03135C22.8581 7.93326 22.7152 7.87911 22.5672 7.87911H19.9939C17.4402 7.87911 14.9053 8.00384 12.3894 8.25327C11.5078 8.34067 10.8175 9.05072 10.7551 9.93441C10.4727 13.9302 10.3225 16.8155 10.3043 18.5841ZM23.6377 9.06982C23.6379 10.3735 23.6384 11.1762 23.6395 12.1215C23.6395 13.1251 24.4527 13.9389 25.4566 13.9397L28.5055 13.9433L23.6377 9.06982ZM29.9684 15.1572L25.4554 15.1518C23.7827 15.1505 22.4274 13.7942 22.4274 12.1223C22.4259 10.8674 22.4255 9.86368 22.4255 7.60535C22.4255 7.06524 23.0787 6.79491 23.4604 7.17706L30.3979 14.1229C30.7796 14.505 30.5085 15.1579 29.9684 15.1572Z" fill="white"/>
</mask>
<g mask="url(#mask0_2218_14218)">
<path d="M34.5479 5.45508H5.45703V34.546H34.5479V5.45508Z" fill="url(#paint0_linear_2218_14218)"/>
</g>
<defs>
<linearGradient id="paint0_linear_2218_14218" x1="9.0934" y1="5.45508" x2="14.9248" y2="37.8866" gradientUnits="userSpaceOnUse">
<stop stop-color="#EB00FF"/>
<stop offset="1" stop-color="#1BFFE4"/>
</linearGradient>
</defs>
</svg>
