<svg width="40" height="40" viewBox="0 0 40 40" fill="none" xmlns="http://www.w3.org/2000/svg">
<mask id="mask0_2218_14210" style="mask-type:alpha" maskUnits="userSpaceOnUse" x="6" y="7" width="28" height="26">
<path d="M25.4558 7.87891C29.5415 7.87891 32.9031 8.91673 33.2962 10.5791C33.321 10.6453 33.3346 10.717 33.3346 10.7919V25.4547C33.3346 27.3086 29.8056 28.485 25.4558 28.485C24.4018 28.485 23.3697 28.4121 22.4255 28.2742V29.091C22.4255 30.945 18.8965 32.1213 14.5468 32.1213C10.197 32.1213 6.66797 30.945 6.66797 29.091V18.0524C6.66797 17.9695 6.68458 17.8906 6.71464 17.8187C7.14436 16.1757 10.4883 15.1516 14.5468 15.1516C15.6097 15.1516 16.6236 15.2219 17.549 15.3551V10.7919C17.549 10.6679 17.5863 10.5527 17.6502 10.4566C18.1758 8.86591 21.4715 7.87891 25.4558 7.87891ZM21.2134 19.8773C19.8176 20.7226 17.353 21.2122 14.5468 21.2122C11.7405 21.2122 9.27589 20.7226 7.88009 19.8773V29.091C7.88009 29.3921 8.46558 29.8535 9.59581 30.2303C10.8846 30.6599 12.6532 30.9092 14.5468 30.9092C16.4404 30.9092 18.2089 30.6599 19.4977 30.2303C20.6279 29.8535 21.2134 29.3921 21.2134 29.091V19.8773ZM18.7612 12.5875V15.5771C20.9184 16.0657 22.3656 16.9515 22.4237 18.1092C22.4249 18.1249 22.4255 18.1406 22.4255 18.1566V27.0483C23.3559 27.1945 24.3927 27.2728 25.4558 27.2728C27.3494 27.2728 29.118 27.0235 30.4068 26.5939C31.537 26.2172 32.1225 25.7557 32.1225 25.4547V12.6046C30.7267 13.4499 28.2621 13.9395 25.4558 13.9395C22.6307 13.9395 20.1518 13.4433 18.7612 12.5875ZM25.4558 12.7274C27.3494 12.7274 29.118 12.478 30.4068 12.0484C31.537 11.6717 32.1225 11.2103 32.1225 10.9092C32.1225 10.6081 31.537 10.1467 30.4068 9.76997C29.118 9.34037 27.3494 9.09103 25.4558 9.09103C23.5622 9.09103 21.7937 9.34037 20.5049 9.76997C19.3747 10.1467 18.7892 10.6081 18.7892 10.9092C18.7892 11.2103 19.3747 11.6717 20.5049 12.0484C21.7937 12.478 23.5622 12.7274 25.4558 12.7274ZM14.5468 20.0001C16.4404 20.0001 18.2089 19.7508 19.4977 19.3212C20.6279 18.9444 21.2134 18.483 21.2134 18.1819C21.2134 17.8809 20.6279 17.4194 19.4977 17.0427C18.2089 16.6131 16.4404 16.3638 14.5468 16.3638C12.6532 16.3638 10.8846 16.6131 9.59581 17.0427C8.46558 17.4194 7.88009 17.8809 7.88009 18.1819C7.88009 18.483 8.46558 18.9444 9.59581 19.3212C10.8846 19.7508 12.6532 20.0001 14.5468 20.0001ZM21.712 24.5147C21.3833 24.4515 21.1681 24.1338 21.2313 23.8051C21.2946 23.4764 21.6123 23.2612 21.941 23.3244C22.9969 23.5275 24.2014 23.6365 25.4558 23.6365C27.3494 23.6365 29.118 23.3871 30.4068 22.9575C31.537 22.5808 32.1225 22.1194 32.1225 21.8183C32.1225 21.4836 32.3939 21.2122 32.7286 21.2122C33.0633 21.2122 33.3346 21.4836 33.3346 21.8183C33.3346 23.6723 29.8056 24.8486 25.4558 24.8486C24.1264 24.8486 22.8454 24.7327 21.712 24.5147ZM21.7055 20.8808C21.3768 20.8179 21.1613 20.5004 21.2242 20.1716C21.2872 19.8429 21.6047 19.6274 21.9334 19.6903C22.9821 19.8911 24.2015 20.0001 25.4558 20.0001C27.3494 20.0001 29.118 19.7508 30.4068 19.3212C31.537 18.9444 32.1225 18.483 32.1225 18.1819C32.1225 17.8472 32.3939 17.5759 32.7286 17.5759C33.0633 17.5759 33.3346 17.8472 33.3346 18.1819C33.3346 20.0359 29.8056 21.2122 25.4558 21.2122C24.1271 21.2122 22.8315 21.0964 21.7055 20.8808ZM17.5771 14.5456C17.5771 14.2109 17.8484 13.9395 18.1831 13.9395C18.5178 13.9395 18.7892 14.2109 18.7892 14.5456C18.7892 14.8466 19.3747 15.3081 20.5049 15.6848C21.7937 16.1144 23.5622 16.3638 25.4558 16.3638C27.3494 16.3638 29.118 16.1144 30.4068 15.6848C31.537 15.3081 32.1225 14.8466 32.1225 14.5456C32.1225 14.2109 32.3939 13.9395 32.7286 13.9395C33.0633 13.9395 33.3346 14.2109 33.3346 14.5456C33.3346 16.3995 29.8056 17.5759 25.4558 17.5759C21.1061 17.5759 17.5771 16.3995 17.5771 14.5456ZM6.66797 25.4547C6.66797 25.1199 6.93931 24.8486 7.27403 24.8486C7.60875 24.8486 7.88009 25.1199 7.88009 25.4547C7.88009 25.7557 8.46558 26.2172 9.59581 26.5939C10.8846 27.0235 12.6532 27.2728 14.5468 27.2728C16.4404 27.2728 18.2089 27.0235 19.4977 26.5939C20.6279 26.2172 21.2134 25.7557 21.2134 25.4547C21.2134 25.1199 21.4848 24.8486 21.8195 24.8486C22.1542 24.8486 22.4255 25.1199 22.4255 25.4547C22.4255 27.3086 18.8965 28.485 14.5468 28.485C10.197 28.485 6.66797 27.3086 6.66797 25.4547ZM6.66797 21.8183C6.66797 21.4836 6.93931 21.2122 7.27403 21.2122C7.60875 21.2122 7.88009 21.4836 7.88009 21.8183C7.88009 22.1194 8.46558 22.5808 9.59581 22.9575C10.8846 23.3871 12.6532 23.6365 14.5468 23.6365C16.4404 23.6365 18.2089 23.3871 19.4977 22.9575C20.6279 22.5808 21.2134 22.1194 21.2134 21.8183C21.2134 21.4836 21.4848 21.2122 21.8195 21.2122C22.1542 21.2122 22.4255 21.4836 22.4255 21.8183C22.4255 23.6723 18.8965 24.8486 14.5468 24.8486C10.197 24.8486 6.66797 23.6723 6.66797 21.8183Z" fill="white"/>
</mask>
<g mask="url(#mask0_2218_14210)">
<path d="M34.5479 5.45508H5.45703V34.546H34.5479V5.45508Z" fill="url(#paint0_linear_2218_14210)"/>
</g>
<defs>
<linearGradient id="paint0_linear_2218_14210" x1="9.0934" y1="5.45508" x2="14.9248" y2="37.8866" gradientUnits="userSpaceOnUse">
<stop stop-color="#EB00FF"/>
<stop offset="1" stop-color="#1BFFE4"/>
</linearGradient>
</defs>
</svg>
