<svg width="572" height="572" viewBox="0 0 572 572" fill="none" xmlns="http://www.w3.org/2000/svg">
<g opacity="0.1" filter="url(#filter0_f_2222_14257)">
<circle cx="286.003" cy="286.001" r="239.331" fill="url(#paint0_linear_2222_14257)"/>
</g>
<g opacity="0.1" filter="url(#filter1_f_2222_14257)">
<circle cx="288.193" cy="286.548" r="198.256" fill="url(#paint1_linear_2222_14257)"/>
</g>
<mask id="mask0_2222_14257" style="mask-type:alpha" maskUnits="userSpaceOnUse" x="57" y="91" width="226" height="308">
<path d="M282.884 91.5068V181.828V288.916L122.252 390.595L80.0662 398.167L57.6211 336.24L73.5761 248.082L125.768 154.516L181.205 111.518L282.884 91.5068Z" fill="black"/>
</mask>
<g mask="url(#mask0_2222_14257)">
<circle cx="282.612" cy="285.671" r="173.612" fill="white"/>
</g>
<mask id="mask1_2222_14257" style="mask-type:alpha" maskUnits="userSpaceOnUse" x="283" y="63" width="209" height="346">
<path d="M485.433 293.514L491.923 408.715L373.478 361.661L283.156 293.514V63.6543L391.867 113.142L457.039 176.962L485.433 293.514Z" fill="black"/>
</mask>
<g mask="url(#mask1_2222_14257)">
<circle cx="286.944" cy="285.671" r="173.612" fill="#F5F7FE"/>
</g>
<mask id="mask2_2222_14257" style="mask-type:alpha" maskUnits="userSpaceOnUse" x="128" y="289" width="352" height="212">
<path d="M128.469 386.971L281.76 289.073L333.862 327.465L479.749 401.231L460.005 445.655L339.895 500.774L213.478 475.545L128.469 386.971Z" fill="black"/>
</mask>
<g mask="url(#mask2_2222_14257)">
<circle cx="284.626" cy="284.631" r="176.075" fill="#EEF2FF"/>
</g>
<circle cx="286" cy="286" r="269.452" stroke="url(#paint2_linear_2222_14257)" stroke-width="1.09533" stroke-dasharray="3.83 3.83"/>
<path d="M170.179 168.437C170.179 168.739 170.424 168.984 170.727 168.984L175.656 168.984C175.958 168.984 176.203 168.739 176.203 168.437C176.203 168.134 175.958 167.889 175.656 167.889L171.274 167.889L171.274 163.508C171.274 163.205 171.029 162.96 170.727 162.96C170.424 162.96 170.179 163.205 170.179 163.508L170.179 168.437ZM400.856 168.984C401.158 168.984 401.403 168.739 401.403 168.437L401.403 163.508C401.403 163.205 401.158 162.96 400.856 162.96C400.553 162.96 400.308 163.205 400.308 163.508V167.889H395.927C395.624 167.889 395.379 168.134 395.379 168.437C395.379 168.739 395.624 168.984 395.927 168.984L400.856 168.984ZM171.114 168.824C234.448 105.489 337.134 105.489 400.468 168.824L401.243 168.049C337.481 104.287 234.102 104.287 170.339 168.049L171.114 168.824Z" fill="url(#paint3_linear_2222_14257)"/>
<path d="M244.028 442.23C244.29 442.079 244.379 441.744 244.228 441.482L241.764 437.213C241.612 436.951 241.278 436.862 241.016 437.013C240.754 437.164 240.664 437.499 240.815 437.761L243.006 441.555L239.211 443.746C238.949 443.897 238.86 444.232 239.011 444.494C239.162 444.756 239.497 444.846 239.759 444.695L244.028 442.23ZM129.164 242.184C129.012 241.923 128.678 241.833 128.416 241.984L124.147 244.448C123.885 244.6 123.795 244.935 123.946 245.197C124.098 245.459 124.433 245.548 124.695 245.397L128.489 243.206L130.68 247.001C130.831 247.263 131.166 247.352 131.428 247.201C131.69 247.05 131.779 246.715 131.628 246.453L129.164 242.184ZM243.896 441.227C157.379 418.045 106.036 329.117 129.218 242.6L128.16 242.317C104.822 329.417 156.511 418.946 243.612 442.285L243.896 441.227Z" fill="url(#paint4_linear_2222_14257)"/>
<path d="M445.889 252.143C445.638 251.974 445.298 252.039 445.128 252.29L442.366 256.372C442.196 256.622 442.262 256.963 442.512 257.132C442.763 257.302 443.103 257.236 443.273 256.986L445.729 253.357L449.357 255.813C449.608 255.982 449.948 255.917 450.118 255.666C450.287 255.416 450.222 255.075 449.971 254.906L445.889 252.143ZM316.144 442.874C315.975 443.125 316.04 443.465 316.291 443.635L320.373 446.397C320.623 446.567 320.964 446.501 321.133 446.251C321.303 446 321.237 445.66 320.987 445.49L317.358 443.035L319.814 439.406C319.984 439.156 319.918 438.815 319.667 438.646C319.417 438.476 319.076 438.542 318.907 438.792L316.144 442.874ZM445.044 252.7C461.997 340.65 404.444 425.69 316.494 442.643L316.702 443.719C405.245 426.651 463.188 341.036 446.12 252.493L445.044 252.7Z" fill="url(#paint5_linear_2222_14257)"/>
<path d="M183.305 351.72H382.108L282.706 171.264L183.305 351.72Z" fill="url(#paint6_linear_2222_14257)"/>
<path d="M248.078 313.823C246.92 313.823 245.908 313.568 245.04 313.057C244.172 312.547 243.491 311.773 242.997 310.734C242.521 309.679 242.283 308.352 242.283 306.752C242.283 305.135 242.512 303.807 242.972 302.769C243.431 301.731 244.095 300.957 244.963 300.446C245.831 299.935 246.869 299.68 248.078 299.68C249.371 299.68 250.528 299.978 251.55 300.574C252.588 301.152 253.405 301.969 254 303.025C254.613 304.08 254.92 305.322 254.92 306.752C254.92 308.198 254.613 309.449 254 310.505C253.405 311.56 252.588 312.377 251.55 312.955C250.528 313.534 249.371 313.823 248.078 313.823ZM239.959 318.572V299.884H243.763V302.693L243.687 306.777L243.942 310.836V318.572H239.959ZM247.388 310.556C248.052 310.556 248.639 310.402 249.15 310.096C249.678 309.79 250.094 309.356 250.401 308.794C250.724 308.215 250.886 307.535 250.886 306.752C250.886 305.952 250.724 305.271 250.401 304.709C250.094 304.148 249.678 303.714 249.15 303.407C248.639 303.101 248.052 302.948 247.388 302.948C246.725 302.948 246.129 303.101 245.601 303.407C245.074 303.714 244.657 304.148 244.35 304.709C244.044 305.271 243.891 305.952 243.891 306.752C243.891 307.535 244.044 308.215 244.35 308.794C244.657 309.356 245.074 309.79 245.601 310.096C246.129 310.402 246.725 310.556 247.388 310.556ZM263.636 313.823C262.07 313.823 260.692 313.517 259.5 312.904C258.326 312.292 257.415 311.458 256.769 310.402C256.122 309.33 255.798 308.113 255.798 306.752C255.798 305.373 256.113 304.156 256.743 303.101C257.39 302.029 258.266 301.195 259.373 300.599C260.479 299.987 261.73 299.68 263.125 299.68C264.47 299.68 265.678 299.97 266.751 300.548C267.84 301.11 268.699 301.927 269.329 302.999C269.959 304.054 270.274 305.322 270.274 306.803C270.274 306.956 270.265 307.135 270.248 307.339C270.231 307.526 270.214 307.705 270.197 307.875H259.041V305.552H268.104L266.572 306.241C266.572 305.526 266.427 304.905 266.138 304.378C265.848 303.85 265.449 303.441 264.938 303.152C264.427 302.846 263.832 302.693 263.151 302.693C262.47 302.693 261.866 302.846 261.338 303.152C260.828 303.441 260.428 303.858 260.138 304.403C259.849 304.931 259.704 305.56 259.704 306.292V306.905C259.704 307.654 259.866 308.318 260.19 308.896C260.53 309.458 260.998 309.892 261.594 310.198C262.206 310.488 262.921 310.632 263.738 310.632C264.47 310.632 265.108 310.522 265.653 310.3C266.214 310.079 266.725 309.747 267.185 309.305L269.303 311.602C268.674 312.317 267.882 312.87 266.929 313.262C265.976 313.636 264.878 313.823 263.636 313.823ZM272.159 313.619V299.884H275.963V303.765L275.427 302.642C275.835 301.671 276.491 300.94 277.393 300.446C278.295 299.935 279.392 299.68 280.686 299.68V303.356C280.516 303.339 280.363 303.331 280.226 303.331C280.09 303.314 279.946 303.305 279.792 303.305C278.703 303.305 277.818 303.62 277.137 304.25C276.474 304.863 276.142 305.824 276.142 307.135V313.619H272.159ZM285.606 310.811L285.708 305.96L292.116 299.884H296.865L290.712 306.139L288.644 307.824L285.606 310.811ZM282.313 313.619V294.676H286.296V313.619H282.313ZM292.55 313.619L287.904 307.85L290.406 304.76L297.375 313.619H292.55ZM302.572 313.823C301.398 313.823 300.266 313.687 299.177 313.415C298.105 313.126 297.254 312.768 296.624 312.343L297.952 309.483C298.581 309.875 299.322 310.198 300.173 310.454C301.041 310.692 301.892 310.811 302.726 310.811C303.645 310.811 304.291 310.7 304.666 310.479C305.057 310.258 305.253 309.951 305.253 309.56C305.253 309.237 305.1 308.998 304.793 308.845C304.504 308.675 304.113 308.547 303.619 308.462C303.126 308.377 302.581 308.292 301.985 308.207C301.407 308.122 300.819 308.011 300.224 307.875C299.628 307.722 299.083 307.501 298.59 307.211C298.096 306.922 297.696 306.531 297.39 306.037C297.101 305.543 296.956 304.905 296.956 304.122C296.956 303.254 297.203 302.488 297.696 301.825C298.207 301.161 298.939 300.642 299.892 300.267C300.845 299.876 301.985 299.68 303.313 299.68C304.249 299.68 305.202 299.782 306.172 299.987C307.142 300.191 307.951 300.489 308.597 300.88L307.27 303.714C306.606 303.322 305.934 303.059 305.253 302.922C304.589 302.769 303.942 302.693 303.313 302.693C302.428 302.693 301.781 302.812 301.373 303.05C300.964 303.288 300.76 303.595 300.76 303.969C300.76 304.309 300.905 304.565 301.194 304.735C301.5 304.905 301.9 305.041 302.394 305.143C302.887 305.246 303.423 305.339 304.002 305.424C304.598 305.492 305.193 305.603 305.789 305.756C306.385 305.909 306.921 306.131 307.397 306.42C307.891 306.692 308.291 307.075 308.597 307.569C308.904 308.045 309.057 308.675 309.057 309.458C309.057 310.309 308.802 311.066 308.291 311.73C307.78 312.377 307.04 312.887 306.07 313.262C305.117 313.636 303.951 313.823 302.572 313.823ZM315.369 313.823C314.195 313.823 313.063 313.687 311.974 313.415C310.901 313.126 310.05 312.768 309.421 312.343L310.748 309.483C311.378 309.875 312.118 310.198 312.969 310.454C313.837 310.692 314.688 310.811 315.522 310.811C316.441 310.811 317.088 310.7 317.462 310.479C317.854 310.258 318.05 309.951 318.05 309.56C318.05 309.237 317.896 308.998 317.59 308.845C317.301 308.675 316.909 308.547 316.416 308.462C315.922 308.377 315.377 308.292 314.782 308.207C314.203 308.122 313.616 308.011 313.02 307.875C312.425 307.722 311.88 307.501 311.386 307.211C310.893 306.922 310.493 306.531 310.187 306.037C309.897 305.543 309.753 304.905 309.753 304.122C309.753 303.254 309.999 302.488 310.493 301.825C311.003 301.161 311.735 300.642 312.688 300.267C313.641 299.876 314.782 299.68 316.109 299.68C317.045 299.68 317.998 299.782 318.969 299.987C319.939 300.191 320.747 300.489 321.394 300.88L320.066 303.714C319.403 303.322 318.73 303.059 318.05 302.922C317.386 302.769 316.739 302.693 316.109 302.693C315.224 302.693 314.578 302.812 314.169 303.05C313.761 303.288 313.556 303.595 313.556 303.969C313.556 304.309 313.701 304.565 313.99 304.735C314.297 304.905 314.697 305.041 315.19 305.143C315.684 305.246 316.22 305.339 316.799 305.424C317.394 305.492 317.99 305.603 318.586 305.756C319.181 305.909 319.717 306.131 320.194 306.42C320.688 306.692 321.088 307.075 321.394 307.569C321.7 308.045 321.853 308.675 321.853 309.458C321.853 310.309 321.598 311.066 321.088 311.73C320.577 312.377 319.837 312.887 318.866 313.262C317.913 313.636 316.748 313.823 315.369 313.823Z" fill="#FEFEFE"/>
<path fill-rule="evenodd" clip-rule="evenodd" d="M279.353 257.521C271.808 257.521 265.691 263.638 265.691 271.183V289.952C265.691 291.376 266.846 292.53 268.27 292.53H272.522C276.295 292.53 279.353 289.472 279.353 285.699V257.521ZM281.06 285.984C288.919 285.984 295.291 279.612 295.291 271.753C295.291 263.893 288.919 257.521 281.06 257.521V285.984Z" fill="#FEFEFE"/>
<path d="M234.562 398.874H238.724C240.505 398.874 241.852 399.124 242.767 399.624C243.682 400.124 244.139 401.002 244.139 402.258C244.139 402.764 244.057 403.222 243.892 403.63C243.734 404.039 243.502 404.374 243.197 404.637C242.892 404.899 242.52 405.07 242.081 405.149V405.24C242.526 405.332 242.929 405.49 243.288 405.716C243.648 405.935 243.935 406.259 244.148 406.686C244.368 407.106 244.478 407.667 244.478 408.369C244.478 409.18 244.279 409.875 243.883 410.454C243.487 411.034 242.92 411.479 242.182 411.79C241.45 412.095 240.578 412.247 239.566 412.247H234.562V398.874ZM237.398 404.17H239.044C239.867 404.17 240.438 404.042 240.755 403.786C241.072 403.524 241.23 403.139 241.23 402.633C241.23 402.121 241.041 401.755 240.663 401.536C240.291 401.31 239.7 401.197 238.889 401.197H237.398V404.17ZM237.398 406.42V409.905H239.245C240.099 409.905 240.694 409.741 241.029 409.411C241.365 409.082 241.532 408.64 241.532 408.085C241.532 407.756 241.459 407.466 241.313 407.216C241.166 406.966 240.919 406.771 240.572 406.631C240.23 406.49 239.758 406.42 239.154 406.42H237.398ZM249.719 412.247H246.929V398.014H249.719V412.247ZM261.949 407.115C261.949 407.969 261.833 408.725 261.601 409.384C261.376 410.043 261.043 410.601 260.604 411.058C260.171 411.509 259.647 411.851 259.031 412.082C258.421 412.314 257.732 412.43 256.964 412.43C256.244 412.43 255.582 412.314 254.979 412.082C254.381 411.851 253.86 411.509 253.414 411.058C252.975 410.601 252.634 410.043 252.39 409.384C252.152 408.725 252.033 407.969 252.033 407.115C252.033 405.981 252.234 405.021 252.637 404.234C253.039 403.447 253.613 402.85 254.357 402.441C255.101 402.033 255.988 401.828 257.018 401.828C257.976 401.828 258.824 402.033 259.561 402.441C260.305 402.85 260.888 403.447 261.309 404.234C261.735 405.021 261.949 405.981 261.949 407.115ZM254.878 407.115C254.878 407.786 254.951 408.35 255.098 408.808C255.244 409.265 255.473 409.61 255.784 409.841C256.095 410.073 256.5 410.189 257 410.189C257.494 410.189 257.894 410.073 258.198 409.841C258.509 409.61 258.735 409.265 258.875 408.808C259.022 408.35 259.095 407.786 259.095 407.115C259.095 406.439 259.022 405.878 258.875 405.432C258.735 404.981 258.509 404.643 258.198 404.417C257.887 404.191 257.482 404.079 256.982 404.079C256.244 404.079 255.707 404.332 255.372 404.838C255.043 405.344 254.878 406.103 254.878 407.115ZM268.407 412.43C267.395 412.43 266.532 412.247 265.818 411.881C265.105 411.509 264.562 410.936 264.19 410.161C263.818 409.387 263.632 408.396 263.632 407.189C263.632 405.939 263.842 404.92 264.263 404.133C264.69 403.341 265.278 402.758 266.029 402.386C266.785 402.014 267.66 401.828 268.654 401.828C269.361 401.828 269.971 401.898 270.483 402.039C271.002 402.173 271.453 402.335 271.837 402.524L271.014 404.682C270.575 404.505 270.166 404.362 269.788 404.252C269.41 404.137 269.032 404.079 268.654 404.079C268.166 404.079 267.76 404.194 267.437 404.426C267.114 404.652 266.873 404.993 266.715 405.451C266.556 405.908 266.477 406.481 266.477 407.17C266.477 407.847 266.562 408.408 266.733 408.853C266.904 409.299 267.151 409.631 267.474 409.85C267.797 410.064 268.19 410.171 268.654 410.171C269.233 410.171 269.748 410.094 270.2 409.942C270.651 409.783 271.09 409.564 271.517 409.283V411.671C271.09 411.939 270.642 412.131 270.172 412.247C269.709 412.369 269.12 412.43 268.407 412.43ZM276.685 398.014V404.38C276.685 404.765 276.67 405.149 276.639 405.533C276.609 405.917 276.575 406.301 276.539 406.686H276.575C276.764 406.417 276.956 406.152 277.152 405.89C277.353 405.628 277.566 405.374 277.792 405.131L280.655 402.02H283.802L279.74 406.457L284.049 412.247H280.829L277.883 408.103L276.685 409.064V412.247H273.895V398.014H276.685ZM289.665 412.43C288.653 412.43 287.79 412.247 287.076 411.881C286.363 411.509 285.82 410.936 285.448 410.161C285.076 409.387 284.89 408.396 284.89 407.189C284.89 405.939 285.101 404.92 285.521 404.133C285.948 403.341 286.537 402.758 287.287 402.386C288.043 402.014 288.918 401.828 289.912 401.828C290.619 401.828 291.229 401.898 291.741 402.039C292.26 402.173 292.711 402.335 293.095 402.524L292.272 404.682C291.833 404.505 291.424 404.362 291.046 404.252C290.668 404.137 290.29 404.079 289.912 404.079C289.424 404.079 289.019 404.194 288.695 404.426C288.372 404.652 288.131 404.993 287.973 405.451C287.814 405.908 287.735 406.481 287.735 407.17C287.735 407.847 287.82 408.408 287.991 408.853C288.162 409.299 288.409 409.631 288.732 409.85C289.055 410.064 289.449 410.171 289.912 410.171C290.491 410.171 291.007 410.094 291.458 409.942C291.909 409.783 292.348 409.564 292.775 409.283V411.671C292.348 411.939 291.9 412.131 291.43 412.247C290.967 412.369 290.379 412.43 289.665 412.43ZM297.943 398.014V400.914C297.943 401.42 297.925 401.902 297.888 402.359C297.858 402.816 297.834 403.139 297.815 403.329H297.962C298.181 402.975 298.44 402.688 298.739 402.469C299.044 402.249 299.379 402.088 299.745 401.984C300.111 401.88 300.505 401.828 300.925 401.828C301.663 401.828 302.307 401.959 302.855 402.222C303.404 402.478 303.831 402.883 304.136 403.438C304.441 403.987 304.593 404.701 304.593 405.579V412.247H301.803V406.274C301.803 405.542 301.669 404.99 301.401 404.618C301.133 404.246 300.718 404.06 300.157 404.06C299.596 404.06 299.154 404.191 298.831 404.454C298.507 404.71 298.279 405.091 298.145 405.597C298.01 406.097 297.943 406.71 297.943 407.436V412.247H295.153V398.014H297.943ZM311.655 401.81C313.027 401.81 314.079 402.109 314.811 402.706C315.543 403.304 315.908 404.213 315.908 405.432V412.247H313.96L313.42 410.857H313.347C313.055 411.223 312.756 411.521 312.451 411.753C312.146 411.985 311.795 412.156 311.399 412.265C311.003 412.375 310.521 412.43 309.954 412.43C309.35 412.43 308.807 412.314 308.325 412.082C307.85 411.851 307.475 411.497 307.2 411.021C306.926 410.54 306.789 409.93 306.789 409.192C306.789 408.106 307.17 407.308 307.932 406.795C308.694 406.277 309.838 405.99 311.362 405.935L313.137 405.881V405.432C313.137 404.896 312.997 404.502 312.716 404.252C312.436 404.002 312.045 403.877 311.545 403.877C311.051 403.877 310.566 403.947 310.091 404.088C309.615 404.228 309.14 404.405 308.664 404.618L307.74 402.734C308.283 402.447 308.889 402.222 309.56 402.057C310.237 401.892 310.935 401.81 311.655 401.81ZM313.137 407.509L312.057 407.545C311.155 407.57 310.527 407.731 310.173 408.03C309.826 408.329 309.652 408.722 309.652 409.21C309.652 409.637 309.777 409.942 310.027 410.125C310.277 410.302 310.603 410.39 311.006 410.39C311.603 410.39 312.106 410.213 312.515 409.86C312.93 409.506 313.137 409.003 313.137 408.35V407.509ZM321.58 402.02V412.247H318.79V402.02H321.58ZM320.189 398.014C320.604 398.014 320.961 398.112 321.26 398.307C321.558 398.496 321.708 398.852 321.708 399.377C321.708 399.895 321.558 400.255 321.26 400.456C320.961 400.651 320.604 400.749 320.189 400.749C319.769 400.749 319.409 400.651 319.11 400.456C318.817 400.255 318.671 399.895 318.671 399.377C318.671 398.852 318.817 398.496 319.11 398.307C319.409 398.112 319.769 398.014 320.189 398.014ZM330.325 401.828C331.416 401.828 332.294 402.127 332.959 402.725C333.624 403.316 333.956 404.268 333.956 405.579V412.247H331.166V406.274C331.166 405.542 331.032 404.99 330.764 404.618C330.501 404.246 330.087 404.06 329.52 404.06C328.666 404.06 328.083 404.35 327.772 404.929C327.461 405.509 327.306 406.344 327.306 407.436V412.247H324.516V402.02H326.647L327.022 403.329H327.178C327.397 402.975 327.669 402.688 327.992 402.469C328.321 402.249 328.684 402.088 329.081 401.984C329.483 401.88 329.898 401.828 330.325 401.828Z" fill="#7788C1"/>
<path d="M162.784 254.331L164.865 250.727C165.755 249.185 166.645 248.143 167.536 247.601C168.426 247.058 169.415 247.101 170.503 247.73C170.942 247.983 171.296 248.283 171.568 248.629C171.843 248.971 172.017 249.339 172.092 249.735C172.166 250.13 172.128 250.537 171.977 250.957L172.057 251.003C172.358 250.663 172.697 250.394 173.072 250.195C173.442 249.993 173.866 249.907 174.342 249.935C174.816 249.955 175.357 250.141 175.964 250.492C176.667 250.897 177.17 251.416 177.473 252.049C177.777 252.682 177.879 253.396 177.779 254.19C177.677 254.977 177.373 255.808 176.867 256.685L174.365 261.018L162.784 254.331ZM168.788 254.524L169.611 253.098C170.023 252.385 170.197 251.827 170.134 251.424C170.065 251.019 169.812 250.689 169.374 250.436C168.93 250.18 168.519 250.161 168.139 250.378C167.758 250.588 167.365 251.044 166.959 251.746L166.214 253.037L168.788 254.524ZM170.737 255.649L173.755 257.391L174.679 255.791C175.106 255.052 175.26 254.455 175.143 253.999C175.026 253.544 174.726 253.178 174.246 252.901C173.961 252.736 173.673 252.655 173.384 252.656C173.094 252.658 172.801 252.774 172.506 253.005C172.214 253.231 171.917 253.605 171.615 254.128L170.737 255.649ZM174.38 240.155C174.45 240.034 174.539 239.898 174.646 239.749C174.751 239.591 174.843 239.469 174.922 239.38L177.083 240.871C177.01 240.935 176.926 241.038 176.83 241.179C176.732 241.313 176.653 241.432 176.592 241.538C176.412 241.85 176.276 242.176 176.185 242.518C176.096 242.854 176.075 243.19 176.12 243.526C176.16 243.859 176.286 244.178 176.497 244.483C176.706 244.78 177.019 245.048 177.436 245.289L181.944 247.892L180.549 250.308L171.692 245.194L172.749 243.365L174.444 243.868L174.512 243.749C174.312 243.401 174.162 243.026 174.064 242.624C173.963 242.213 173.934 241.799 173.978 241.381C174.02 240.955 174.154 240.546 174.38 240.155ZM177.858 234.094C178.544 232.906 179.329 232.144 180.212 231.809C181.096 231.474 182.066 231.612 183.122 232.221L189.024 235.629L188.049 237.316L186.576 237.088L186.539 237.152C186.709 237.588 186.819 237.996 186.867 238.376C186.915 238.756 186.888 239.145 186.785 239.543C186.682 239.942 186.488 240.386 186.205 240.877C185.903 241.4 185.531 241.812 185.09 242.114C184.651 242.41 184.157 242.558 183.608 242.557C183.054 242.554 182.457 242.368 181.818 241.999C180.878 241.456 180.377 240.727 180.314 239.811C180.246 238.891 180.57 237.758 181.285 236.41L182.124 234.846L181.736 234.622C181.271 234.353 180.861 234.278 180.504 234.396C180.147 234.514 179.844 234.79 179.594 235.223C179.347 235.65 179.165 236.105 179.049 236.587C178.932 237.069 178.848 237.57 178.795 238.088L176.701 237.946C176.724 237.333 176.832 236.695 177.025 236.031C177.221 235.363 177.498 234.717 177.858 234.094ZM183.534 235.66L183.026 236.613C182.596 237.407 182.422 238.032 182.504 238.487C182.589 238.938 182.843 239.285 183.265 239.529C183.635 239.742 183.962 239.786 184.245 239.661C184.523 239.533 184.763 239.295 184.964 238.946C185.263 238.429 185.361 237.905 185.259 237.374C185.16 236.838 184.828 236.407 184.263 236.081L183.534 235.66ZM184.346 222.894C184.892 221.948 185.589 221.337 186.439 221.061C187.284 220.781 188.274 220.968 189.409 221.624L195.184 224.958L193.789 227.374L188.616 224.388C187.983 224.022 187.438 223.862 186.981 223.908C186.528 223.95 186.16 224.216 185.876 224.707C185.449 225.446 185.409 226.095 185.755 226.654C186.101 227.213 186.747 227.766 187.692 228.312L191.859 230.717L190.464 233.133L181.608 228.02L182.673 226.174L183.994 226.504L184.072 226.369C183.875 226.002 183.762 225.624 183.734 225.234C183.708 224.839 183.75 224.444 183.858 224.049C183.97 223.648 184.132 223.263 184.346 222.894ZM198.398 219.758C197.828 220.745 196.977 221.328 195.846 221.506C194.713 221.676 193.397 221.328 191.897 220.462C190.381 219.587 189.417 218.611 189.003 217.534C188.584 216.455 188.668 215.408 189.253 214.394C189.497 213.971 189.77 213.632 190.072 213.377C190.375 213.122 190.69 212.935 191.02 212.815C191.353 212.691 191.688 212.616 192.025 212.593L192.071 212.514C191.884 212.448 191.612 212.344 191.258 212.203C190.9 212.053 190.548 211.877 190.199 211.676L187.363 210.039L188.763 207.615L201.089 214.731L200.019 216.585L198.6 216.389L198.541 216.492C198.695 216.785 198.806 217.106 198.872 217.455C198.937 217.794 198.935 218.156 198.869 218.54C198.802 218.924 198.645 219.33 198.398 219.758ZM196.962 217.799C197.343 217.139 197.416 216.561 197.181 216.066C196.944 215.563 196.433 215.075 195.65 214.601L195.389 214.451C194.528 213.954 193.794 213.706 193.188 213.708C192.576 213.707 192.062 214.065 191.648 214.783C191.34 215.317 191.329 215.867 191.614 216.433C191.9 216.999 192.476 217.532 193.342 218.032C194.208 218.532 194.947 218.758 195.559 218.711C196.175 218.657 196.642 218.353 196.962 217.799ZM203.485 204.507C204.087 204.854 204.515 205.291 204.767 205.817C205.018 206.335 205.089 206.936 204.983 207.621C204.871 208.303 204.574 209.061 204.092 209.895C203.735 210.513 203.389 211.021 203.054 211.419C202.722 211.812 202.334 212.179 201.89 212.521L199.893 211.369C200.387 211.013 200.864 210.602 201.324 210.135C201.781 209.66 202.13 209.213 202.371 208.796C202.643 208.326 202.768 207.951 202.746 207.671C202.722 207.383 202.597 207.173 202.37 207.042C202.222 206.957 202.066 206.923 201.901 206.94C201.734 206.949 201.498 207.046 201.195 207.23C200.886 207.411 200.444 207.719 199.869 208.154C199.316 208.575 198.818 208.896 198.373 209.118C197.931 209.334 197.498 209.437 197.076 209.425C196.651 209.405 196.187 209.25 195.686 208.96C194.867 208.488 194.435 207.816 194.389 206.944C194.34 206.064 194.624 205.091 195.24 204.024C195.557 203.475 195.915 202.984 196.312 202.552C196.713 202.114 197.187 201.701 197.735 201.313L199.057 203.048C198.613 203.377 198.218 203.702 197.871 204.022C197.527 204.338 197.239 204.696 197.008 205.097C196.803 205.451 196.697 205.745 196.688 205.98C196.68 206.214 196.773 206.388 196.968 206.501C197.111 206.583 197.264 206.611 197.426 206.586C197.592 206.555 197.82 206.447 198.11 206.262C198.397 206.069 198.796 205.774 199.306 205.379C199.802 204.996 200.27 204.685 200.71 204.447C201.146 204.205 201.587 204.08 202.036 204.071C202.479 204.06 202.962 204.205 203.485 204.507Z" fill="#C4CEEF"/>
<path d="M369.53 196.552C369.259 196.082 368.926 195.718 368.53 195.46C368.143 195.205 367.707 195.052 367.22 195.002C366.737 194.957 366.215 195.012 365.656 195.165C365.097 195.319 364.514 195.571 363.907 195.922C363.088 196.395 362.446 196.899 361.981 197.435C361.524 197.973 361.266 198.545 361.207 199.149C361.153 199.751 361.321 200.39 361.711 201.066C361.983 201.536 362.307 201.975 362.684 202.384C363.064 202.799 363.512 203.227 364.027 203.668L361.968 204.858C361.461 204.467 361.019 204.05 360.643 203.605C360.261 203.164 359.892 202.634 359.535 202.016C358.846 200.823 358.524 199.698 358.57 198.644C358.625 197.591 358.989 196.624 359.663 195.742C360.342 194.857 361.275 194.072 362.464 193.386C363.34 192.88 364.212 192.535 365.078 192.352C365.944 192.169 366.776 192.153 367.575 192.305C368.373 192.456 369.113 192.786 369.794 193.294C370.474 193.803 371.068 194.495 371.574 195.372C371.906 195.947 372.165 196.566 372.349 197.227C372.542 197.89 372.664 198.559 372.716 199.233L370.262 199.594C370.218 199.042 370.146 198.502 370.046 197.976C369.946 197.449 369.774 196.974 369.53 196.552ZM376.398 210.405L367.542 215.518L366.472 213.665L367.417 212.686L367.344 212.559C366.933 212.543 366.55 212.447 366.195 212.271C365.841 212.096 365.519 211.863 365.231 211.571C364.943 211.28 364.693 210.949 364.479 210.58C364.113 209.946 363.906 209.33 363.856 208.732C363.812 208.131 363.951 207.561 364.274 207.022C364.6 206.489 365.143 206.003 365.903 205.564L371.678 202.23L373.073 204.646L367.9 207.632C367.267 207.998 366.854 208.388 366.663 208.801C366.472 209.214 366.52 209.669 366.807 210.165C367.09 210.656 367.424 210.978 367.807 211.13C368.196 211.279 368.639 211.283 369.136 211.144C369.641 211.007 370.208 210.757 370.837 210.395L375.003 207.989L376.398 210.405ZM375.203 222.714C374.601 223.061 374.009 223.213 373.427 223.169C372.853 223.127 372.297 222.888 371.757 222.453C371.223 222.016 370.714 221.379 370.233 220.545C369.876 219.927 369.609 219.374 369.432 218.884C369.258 218.4 369.134 217.88 369.06 217.325L371.056 216.172C371.117 216.778 371.235 217.396 371.409 218.028C371.592 218.662 371.804 219.187 372.045 219.604C372.316 220.074 372.579 220.37 372.832 220.492C373.093 220.615 373.338 220.611 373.565 220.48C373.713 220.395 373.82 220.276 373.888 220.125C373.963 219.976 373.997 219.724 373.99 219.369C373.987 219.011 373.942 218.474 373.852 217.758C373.764 217.07 373.736 216.477 373.766 215.981C373.799 215.49 373.927 215.064 374.148 214.704C374.378 214.346 374.744 214.022 375.246 213.732C376.064 213.26 376.862 213.221 377.64 213.617C378.426 214.015 379.127 214.748 379.743 215.815C380.06 216.364 380.307 216.919 380.483 217.479C380.661 218.045 380.782 218.662 380.844 219.33L378.68 219.608C378.617 219.06 378.534 218.555 378.429 218.094C378.328 217.639 378.162 217.21 377.93 216.809C377.726 216.455 377.524 216.216 377.326 216.091C377.127 215.966 376.93 215.96 376.734 216.073C376.592 216.155 376.491 216.273 376.432 216.427C376.376 216.586 376.355 216.838 376.371 217.181C376.394 217.526 376.45 218.019 376.537 218.659C376.621 219.279 376.656 219.84 376.642 220.341C376.634 220.838 376.521 221.284 376.304 221.676C376.093 222.066 375.726 222.412 375.203 222.714ZM377.582 228.829C377.734 229.093 377.909 229.334 378.105 229.552C378.304 229.775 378.515 229.987 378.737 230.19L376.939 231.228C376.674 231.036 376.393 230.769 376.096 230.426C375.797 230.092 375.517 229.697 375.255 229.243C374.95 228.715 374.76 228.191 374.685 227.671C374.618 227.153 374.726 226.651 375.008 226.164C375.299 225.679 375.824 225.217 376.585 224.778L380.855 222.313L380.187 221.157L381.209 220.567L382.785 221.431L385.057 221.049L385.949 222.593L384.064 223.682L385.495 226.161L383.681 227.209L382.25 224.729L377.98 227.194C377.642 227.39 377.443 227.631 377.384 227.919C377.333 228.209 377.399 228.512 377.582 228.829ZM386.823 238.651C386.083 239.078 385.371 239.355 384.684 239.484C384.001 239.618 383.352 239.609 382.736 239.457C382.129 239.308 381.571 239.025 381.062 238.607C380.557 238.195 380.112 237.656 379.728 236.991C379.368 236.367 379.137 235.737 379.036 235.098C378.938 234.464 378.973 233.842 379.141 233.231C379.318 232.622 379.63 232.047 380.079 231.507C380.53 230.971 381.126 230.49 381.865 230.064C382.847 229.496 383.78 229.19 384.662 229.146C385.545 229.101 386.349 229.299 387.075 229.739C387.8 230.179 388.421 230.845 388.936 231.737C389.415 232.566 389.662 233.403 389.677 234.246C389.695 235.095 389.469 235.898 388.998 236.655C388.53 237.418 387.805 238.084 386.823 238.651ZM383.287 232.527C382.706 232.863 382.254 233.208 381.932 233.563C381.609 233.919 381.425 234.289 381.379 234.674C381.334 235.06 381.437 235.469 381.687 235.902C381.934 236.33 382.234 236.618 382.587 236.766C382.943 236.919 383.354 236.942 383.82 236.835C384.29 236.733 384.815 236.515 385.396 236.179C385.982 235.841 386.431 235.497 386.744 235.147C387.064 234.8 387.245 234.436 387.284 234.054C387.324 233.671 387.219 233.264 386.969 232.831C386.6 232.192 386.113 231.854 385.507 231.816C384.904 231.784 384.164 232.021 383.287 232.527ZM398.559 248.405C399.139 249.408 399.317 250.315 399.096 251.126C398.882 251.94 398.208 252.674 397.072 253.33L391.297 256.664L389.898 254.24L395.071 251.253C395.704 250.887 396.12 250.503 396.317 250.101C396.514 249.698 396.481 249.27 396.219 248.816C395.85 248.177 395.358 247.855 394.743 247.851C394.134 247.844 393.404 248.086 392.553 248.577L388.109 251.142L386.714 248.726L391.887 245.74C392.31 245.496 392.636 245.244 392.867 244.984C393.097 244.725 393.227 244.456 393.257 244.178C393.286 243.9 393.213 243.608 393.036 243.302C392.777 242.853 392.459 242.565 392.083 242.437C391.714 242.312 391.279 242.32 390.777 242.462C390.283 242.607 389.721 242.86 389.093 243.223L384.926 245.629L383.531 243.213L392.388 238.099L393.453 239.945L392.508 240.924L392.586 241.059C392.996 241.061 393.374 241.143 393.719 241.302C394.068 241.467 394.382 241.687 394.66 241.963C394.939 242.238 395.176 242.545 395.371 242.883C395.746 243.533 395.958 244.143 396.006 244.714C396.057 245.29 395.931 245.828 395.627 246.327L395.751 246.541C396.357 246.542 396.902 246.724 397.386 247.086C397.872 247.453 398.263 247.892 398.559 248.405ZM403.865 257.594C404.337 258.412 404.586 259.209 404.61 259.983C404.64 260.755 404.45 261.474 404.039 262.141C403.628 262.807 402.993 263.389 402.132 263.886L400.959 264.563L397.662 258.851C396.996 259.271 396.577 259.784 396.406 260.39C396.243 260.998 396.358 261.643 396.751 262.324C397.078 262.889 397.435 263.373 397.822 263.776C398.21 264.179 398.663 264.562 399.182 264.924L397.312 266.003C396.843 265.69 396.419 265.322 396.041 264.899C395.667 264.482 395.282 263.932 394.889 263.251C394.377 262.364 394.086 261.483 394.017 260.607C393.951 259.737 394.141 258.912 394.586 258.134C395.034 257.362 395.768 256.681 396.787 256.093C397.822 255.495 398.784 255.172 399.672 255.124C400.568 255.079 401.369 255.271 402.075 255.701C402.786 256.129 403.383 256.759 403.865 257.594ZM402.155 258.602C401.883 258.132 401.507 257.828 401.026 257.691C400.548 257.558 399.974 257.654 399.302 257.978L401.259 261.369C401.615 261.156 401.897 260.906 402.104 260.617C402.313 260.334 402.428 260.022 402.449 259.679C402.472 259.341 402.374 258.982 402.155 258.602ZM410.144 268.47C410.214 268.592 410.287 268.736 410.363 268.904C410.447 269.074 410.507 269.215 410.544 269.328L408.173 270.453C408.154 270.359 408.107 270.235 408.032 270.081C407.966 269.929 407.902 269.8 407.841 269.695C407.661 269.383 407.446 269.102 407.196 268.852C406.949 268.608 406.669 268.421 406.355 268.292C406.047 268.16 405.708 268.11 405.338 268.14C404.976 268.173 404.587 268.31 404.17 268.55L399.662 271.153L398.267 268.737L407.124 263.623L408.18 265.453L406.897 266.67L406.966 266.788C407.367 266.789 407.767 266.847 408.164 266.962C408.57 267.08 408.943 267.263 409.283 267.51C409.632 267.759 409.919 268.08 410.144 268.47ZM408.718 280.764C408.116 281.112 407.524 281.264 406.942 281.219C406.369 281.177 405.812 280.939 405.273 280.504C404.738 280.066 404.23 279.43 403.748 278.596C403.392 277.978 403.125 277.424 402.948 276.935C402.774 276.451 402.65 275.931 402.576 275.375L404.572 274.223C404.633 274.828 404.75 275.447 404.925 276.078C405.108 276.712 405.32 277.238 405.561 277.655C405.832 278.125 406.094 278.421 406.347 278.542C406.609 278.666 406.853 278.662 407.08 278.531C407.228 278.446 407.336 278.327 407.403 278.175C407.479 278.026 407.513 277.774 407.505 277.419C407.503 277.062 407.457 276.525 407.368 275.809C407.28 275.12 407.251 274.528 407.281 274.031C407.315 273.54 407.442 273.115 407.664 272.754C407.894 272.396 408.259 272.072 408.761 271.783C409.58 271.31 410.378 271.272 411.156 271.668C411.942 272.066 412.643 272.798 413.259 273.865C413.576 274.414 413.822 274.969 413.998 275.53C414.177 276.095 414.297 276.713 414.359 277.381L412.196 277.658C412.133 277.11 412.049 276.606 411.945 276.145C411.844 275.689 411.677 275.261 411.446 274.859C411.241 274.505 411.04 274.266 410.841 274.141C410.642 274.017 410.445 274.011 410.25 274.124C410.107 274.206 410.007 274.324 409.947 274.478C409.891 274.637 409.871 274.888 409.886 275.232C409.91 275.577 409.965 276.07 410.053 276.709C410.136 277.33 410.171 277.89 410.158 278.391C410.149 278.889 410.037 279.334 409.82 279.727C409.608 280.117 409.241 280.463 408.718 280.764Z" fill="#BFC8E8"/>
<defs>
<filter id="filter0_f_2222_14257" x="0.667816" y="0.665863" width="570.668" height="570.669" filterUnits="userSpaceOnUse" color-interpolation-filters="sRGB">
<feFlood flood-opacity="0" result="BackgroundImageFix"/>
<feBlend mode="normal" in="SourceGraphic" in2="BackgroundImageFix" result="shape"/>
<feGaussianBlur stdDeviation="23.002" result="effect1_foregroundBlur_2222_14257"/>
</filter>
<filter id="filter1_f_2222_14257" x="71.3168" y="69.6713" width="433.753" height="433.752" filterUnits="userSpaceOnUse" color-interpolation-filters="sRGB">
<feFlood flood-opacity="0" result="BackgroundImageFix"/>
<feBlend mode="normal" in="SourceGraphic" in2="BackgroundImageFix" result="shape"/>
<feGaussianBlur stdDeviation="9.31034" result="effect1_foregroundBlur_2222_14257"/>
</filter>
<linearGradient id="paint0_linear_2222_14257" x1="46.6719" y1="22.7368" x2="111.716" y2="548.095" gradientUnits="userSpaceOnUse">
<stop stop-color="#57D7FF"/>
<stop offset="1" stop-color="#C228E9"/>
</linearGradient>
<linearGradient id="paint1_linear_2222_14257" x1="89.9375" y1="68.4664" x2="143.819" y2="503.66" gradientUnits="userSpaceOnUse">
<stop stop-color="#57D7FF"/>
<stop offset="1" stop-color="#C228E9"/>
</linearGradient>
<linearGradient id="paint2_linear_2222_14257" x1="16" y1="-11" x2="89.3795" y2="581.681" gradientUnits="userSpaceOnUse">
<stop stop-color="#57D7FF"/>
<stop offset="1" stop-color="#C228E9"/>
</linearGradient>
<linearGradient id="paint3_linear_2222_14257" x1="164.973" y1="162.683" x2="306.899" y2="273.337" gradientUnits="userSpaceOnUse">
<stop stop-color="#57D7FF"/>
<stop offset="1" stop-color="#C228E9"/>
</linearGradient>
<linearGradient id="paint4_linear_2222_14257" x1="241.648" y1="449.615" x2="266.514" y2="271.377" gradientUnits="userSpaceOnUse">
<stop stop-color="#57D7FF"/>
<stop offset="1" stop-color="#C228E9"/>
</linearGradient>
<linearGradient id="paint5_linear_2222_14257" x1="453.571" y1="251.057" x2="282.384" y2="306.574" gradientUnits="userSpaceOnUse">
<stop stop-color="#57D7FF"/>
<stop offset="1" stop-color="#C228E9"/>
</linearGradient>
<linearGradient id="paint6_linear_2222_14257" x1="183.305" y1="162.241" x2="205.623" y2="360.83" gradientUnits="userSpaceOnUse">
<stop stop-color="#57D7FF"/>
<stop offset="1" stop-color="#C228E9"/>
</linearGradient>
</defs>
</svg>
