<svg width="154" height="173" viewBox="0 0 154 173" fill="none" xmlns="http://www.w3.org/2000/svg">
<path d="M91.875 8.15234C91.5496 13.5937 91.0979 19.0422 90.847 24.4875C90.8289 24.8805 90.8141 25.2394 90.7062 25.6178" stroke="#FF478B" stroke-width="3.32326" stroke-linecap="round"/>
<path d="M91.7297 7.38509C92.742 7.77609 93.5639 9.04688 94.2442 9.81782C96.1097 11.9316 97.597 14.3022 99.3381 16.5078C99.3819 16.5634 100.334 17.8094 100.39 17.7363C100.837 17.1586 101.267 16.5272 101.686 15.9165C102.353 14.9457 109.605 4.77111 109.951 4.98576C110.318 5.21435 110.231 6.622 110.293 6.97016C110.565 8.499 111.084 10.08 111.185 11.6239C111.257 12.7338 111.243 13.8665 111.27 14.9679C111.284 15.5262 111.175 16.2315 111.251 16.7685C111.403 17.8475 110.806 19.1382 111.143 20.1885" stroke="#FF478B" stroke-width="3.32326" stroke-linecap="round"/>
<path d="M111.285 20.9551C112.632 19.6535 114.505 18.7363 116.01 17.6213C118.247 15.9628 120.547 14.4884 122.905 13.0099C124.493 12.014 126.327 11.2406 128.063 10.5262C129.076 10.1096 128.465 11.0992 128.222 11.843C126.515 17.0847 125.041 22.394 123.528 27.6971C123.462 27.9279 122.622 31.5842 122.476 31.5946C116.744 32.0014 110.436 30.8022 104.907 29.3062C103.435 28.9081 102.04 28.3066 100.578 27.8898C99.2876 27.5215 97.5956 27.3357 96.437 26.6678C95.7602 26.2777 95.1064 25.9654 94.3388 25.7463C94.0074 25.6518 92.1251 25.2208 92.334 24.9927" stroke="#FF478B" stroke-width="3.32326" stroke-linecap="round"/>
<g filter="url(#filter0_d_2218_14871)">
<path d="M24.3019 156.893C22.3528 157.025 20.6184 156.71 19.0986 155.949C17.5788 155.188 16.3443 153.961 15.395 152.269C14.4725 150.546 13.9203 148.337 13.7384 145.643C13.5545 142.92 13.7905 140.659 14.4463 138.858C15.1022 137.057 16.1319 135.678 17.5356 134.719C18.9394 133.761 20.6587 133.213 22.6937 133.075C24.872 132.928 26.8549 133.298 28.6424 134.185C30.4565 135.042 31.9252 136.324 33.0484 138.034C34.2002 139.741 34.8574 141.799 35.0199 144.206C35.1844 146.643 34.8107 148.784 33.8989 150.631C33.0157 152.476 31.7328 153.944 30.0502 155.037C28.3963 156.127 26.4802 156.746 24.3019 156.893ZM11.17 165.813L9.04515 134.342L15.4511 133.91L15.7704 138.639L16.1059 145.527L16.9974 152.333L17.8769 165.36L11.17 165.813ZM22.7695 151.469C23.8873 151.393 24.8587 151.068 25.6838 150.494C26.5374 149.918 27.1903 149.14 27.6424 148.16C28.1212 147.148 28.316 145.983 28.227 144.665C28.1361 143.318 27.7864 142.19 27.1779 141.281C26.5981 140.37 25.8466 139.686 24.9232 139.23C24.0285 138.772 23.0223 138.581 21.9045 138.657C20.7866 138.732 19.8009 139.058 18.9472 139.634C18.0935 140.21 17.4406 140.988 16.9886 141.969C16.5365 142.949 16.356 144.113 16.4469 145.46C16.536 146.779 16.8713 147.908 17.453 148.847C18.0328 149.759 18.7844 150.442 19.7077 150.898C20.6311 151.354 21.6517 151.544 22.7695 151.469ZM50.5031 155.124C47.8662 155.302 45.5097 154.943 43.4337 154.047C41.3864 153.148 39.7581 151.848 38.549 150.144C37.3379 148.412 36.655 146.399 36.5001 144.106C36.3434 141.785 36.7353 139.7 37.6758 137.851C38.643 135.972 40.0243 134.468 41.8196 133.339C43.613 132.181 45.6848 131.523 48.0351 131.364C50.2994 131.211 52.3673 131.561 54.2388 132.414C56.137 133.236 57.6773 134.514 58.8597 136.248C60.0402 137.953 60.7146 140.053 60.883 142.546C60.9004 142.804 60.9064 143.106 60.901 143.452C60.8936 143.769 60.8852 144.072 60.8759 144.361L42.088 145.629L41.8238 141.717L57.0863 140.687L54.5851 142.021C54.5039 140.818 54.1896 139.788 53.6424 138.932C53.0951 138.077 52.3751 137.434 51.4824 137.005C50.5877 136.547 49.5671 136.357 48.4206 136.434C47.2741 136.512 46.274 136.839 45.4203 137.414C44.5934 137.96 43.9672 138.707 43.5419 139.658C43.1146 140.579 42.9426 141.656 43.0258 142.888L43.0955 143.92C43.1806 145.181 43.5284 146.281 44.1388 147.218C44.7759 148.126 45.6134 148.803 46.6514 149.251C47.7162 149.669 48.9364 149.831 50.3122 149.739C51.5447 149.655 52.6069 149.396 53.4989 148.962C54.4196 148.525 55.2418 147.908 55.9653 147.111L59.795 150.739C58.8158 152.015 57.5459 153.036 55.9853 153.804C54.4228 154.543 52.5954 154.983 50.5031 155.124ZM64.8335 153.811L63.2718 130.681L69.6777 130.248L70.119 136.783L69.0884 134.953C69.666 133.272 70.6862 131.965 72.1492 131.032C73.6102 130.069 75.4299 129.515 77.6082 129.367L78.0262 135.558C77.7377 135.549 77.4787 135.552 77.2494 135.568C77.0182 135.555 76.7736 135.557 76.5157 135.574C74.6813 135.698 73.2267 136.329 72.1518 137.467C71.1036 138.574 70.6541 140.231 70.8031 142.438L71.5404 153.358L64.8335 153.811ZM87.1601 147.553L86.7805 139.373L96.8809 128.412L104.878 127.872L95.2275 139.105L91.9366 142.177L87.1601 147.553ZM81.9333 152.657L79.7794 120.756L86.4863 120.303L88.6402 152.204L81.9333 152.657ZM99.1735 151.493L90.6927 142.304L94.5548 136.818L107.299 150.944L99.1735 151.493ZM116.075 150.697C114.097 150.83 112.176 150.73 110.31 150.395C108.472 150.03 106.998 149.525 105.889 148.88L107.8 143.914C108.905 144.501 110.188 144.962 111.65 145.295C113.139 145.597 114.586 145.701 115.99 145.606C117.538 145.502 118.615 145.242 119.22 144.827C119.854 144.41 120.149 143.872 120.104 143.212C120.068 142.668 119.782 142.284 119.249 142.061C118.743 141.807 118.069 141.637 117.228 141.549C116.387 141.462 115.46 141.381 114.447 141.305C113.463 141.228 112.462 141.108 111.443 140.947C110.423 140.756 109.48 140.446 108.616 140.015C107.752 139.583 107.034 138.97 106.462 138.173C105.918 137.375 105.602 136.317 105.513 134.998C105.415 133.536 105.743 132.219 106.499 131.045C107.283 129.869 108.457 128.911 110.019 128.172C111.58 127.405 113.478 126.946 115.713 126.795C117.29 126.688 118.907 126.752 120.564 126.985C122.22 127.219 123.616 127.629 124.749 128.214L122.836 133.138C121.674 132.554 120.512 132.186 119.35 132.034C118.214 131.852 117.116 131.796 116.056 131.868C114.566 131.968 113.49 132.243 112.829 132.69C112.168 133.138 111.859 133.677 111.902 134.308C111.941 134.881 112.213 135.294 112.72 135.548C113.255 135.8 113.944 135.984 114.787 136.1C115.63 136.216 116.543 136.312 117.527 136.39C118.538 136.437 119.554 136.555 120.575 136.745C121.595 136.936 122.523 137.247 123.359 137.68C124.221 138.083 124.938 138.682 125.51 139.479C126.08 140.246 126.41 141.289 126.499 142.608C126.595 144.041 126.252 145.345 125.467 146.521C124.681 147.669 123.492 148.613 121.901 149.353C120.338 150.092 118.396 150.54 116.075 150.697ZM137.625 149.242C135.647 149.375 133.726 149.275 131.861 148.94C130.022 148.575 128.548 148.07 127.439 147.425L129.35 142.459C130.455 143.046 131.738 143.507 133.201 143.84C134.689 144.142 136.136 144.246 137.54 144.151C139.088 144.047 140.165 143.787 140.77 143.372C141.404 142.955 141.699 142.417 141.655 141.757C141.618 141.213 141.333 140.829 140.799 140.606C140.293 140.352 139.619 140.182 138.778 140.094C137.937 140.007 137.01 139.926 135.998 139.85C135.013 139.773 134.012 139.653 132.993 139.492C131.973 139.301 131.03 138.991 130.166 138.56C129.302 138.128 128.584 137.515 128.012 136.718C127.469 135.92 127.153 134.862 127.064 133.543C126.965 132.081 127.293 130.764 128.049 129.59C128.833 128.414 130.007 127.456 131.569 126.717C133.13 125.95 135.028 125.491 137.264 125.34C138.84 125.233 140.457 125.297 142.114 125.53C143.771 125.764 145.166 126.174 146.3 126.759L144.386 131.683C143.224 131.099 142.062 130.731 140.9 130.579C139.765 130.397 138.667 130.341 137.606 130.413C136.116 130.513 135.04 130.788 134.379 131.235C133.719 131.683 133.409 132.222 133.452 132.853C133.491 133.426 133.763 133.839 134.27 134.093C134.805 134.345 135.494 134.529 136.337 134.645C137.18 134.76 138.093 134.857 139.078 134.935C140.089 134.982 141.104 135.1 142.125 135.29C143.145 135.481 144.073 135.792 144.909 136.225C145.771 136.628 146.488 137.227 147.06 138.024C147.63 138.791 147.96 139.834 148.049 141.153C148.146 142.586 147.802 143.89 147.017 145.066C146.231 146.213 145.042 147.158 143.451 147.898C141.889 148.637 139.947 149.085 137.625 149.242Z" fill="white"/>
<path d="M19.0986 155.949L25.5403 143.087L25.5403 143.087L19.0986 155.949ZM15.395 152.269L2.71347 159.059C2.7578 159.142 2.80295 159.224 2.8489 159.306L15.395 152.269ZM14.4463 138.858L27.9629 143.781L27.9629 143.781L14.4463 138.858ZM17.5356 134.719L9.42341 122.84L9.42341 122.84L17.5356 134.719ZM28.6424 134.185L22.2476 147.071C22.3317 147.113 22.4163 147.153 22.5012 147.194L28.6424 134.185ZM33.0484 138.034L21.0263 145.933C21.0583 145.982 21.0905 146.03 21.1231 146.079L33.0484 138.034ZM33.8989 150.631L21.0004 144.262C20.9747 144.314 20.9492 144.367 20.924 144.419L33.8989 150.631ZM30.0502 155.037L22.2162 142.972C22.1878 142.99 22.1594 143.009 22.1312 143.028L30.0502 155.037ZM11.17 165.813L-3.18244 166.782C-2.64724 174.709 4.21242 180.701 12.1391 180.166L11.17 165.813ZM9.04515 134.342L8.0761 119.99C0.149466 120.525 -5.84248 127.385 -5.30729 135.311L9.04515 134.342ZM15.4511 133.91L29.8036 132.941C29.2684 125.014 22.4087 119.022 14.4821 119.557L15.4511 133.91ZM15.7704 138.639L30.1385 137.939C30.1341 137.849 30.1289 137.76 30.1229 137.67L15.7704 138.639ZM16.1059 145.527L1.7378 146.226C1.75683 146.617 1.79178 147.007 1.84257 147.395L16.1059 145.527ZM16.9974 152.333L31.3498 151.364C31.3295 151.064 31.2998 150.764 31.2607 150.465L16.9974 152.333ZM17.8769 165.36L18.846 179.713C26.7726 179.178 32.7646 172.318 32.2294 164.391L17.8769 165.36ZM25.6838 150.494L17.6389 138.569C17.5818 138.608 17.525 138.647 17.4685 138.686L25.6838 150.494ZM27.6424 148.16L14.6408 142.004C14.6198 142.048 14.599 142.093 14.5784 142.138L27.6424 148.16ZM27.1779 141.281L15.042 149.004C15.1014 149.097 15.1618 149.19 15.2233 149.282L27.1779 141.281ZM24.9232 139.23L18.3699 152.036C18.4312 152.067 18.4927 152.098 18.5544 152.129L24.9232 139.23ZM18.9472 139.634L26.9921 151.559L26.9921 151.559L18.9472 139.634ZM16.9886 141.969L30.0526 147.991L30.0526 147.991L16.9886 141.969ZM17.453 148.847L5.22192 156.419C5.25334 156.47 5.28507 156.521 5.31712 156.571L17.453 148.847ZM19.7077 150.898L26.0766 137.999L26.0766 137.999L19.7077 150.898ZM23.3328 142.541C23.4153 142.535 23.6907 142.526 24.1081 142.602C24.5366 142.68 25.0325 142.832 25.5403 143.087L12.6569 168.811C16.7943 170.883 21.1509 171.524 25.2709 171.246L23.3328 142.541ZM25.5403 143.087C26.179 143.407 26.7322 143.817 27.1723 144.254C27.6013 144.68 27.8378 145.047 27.9411 145.231L2.8489 159.306C4.99952 163.14 8.21428 166.586 12.6569 168.811L25.5403 143.087ZM28.0766 145.478C28.257 145.815 28.2793 145.97 28.2445 145.831C28.209 145.689 28.1346 145.323 28.0908 144.674L-0.614073 146.612C-0.343869 150.614 0.533305 154.988 2.71347 159.059L28.0766 145.478ZM28.0908 144.674C28.0437 143.976 28.0672 143.568 28.0849 143.398C28.1027 143.227 28.1046 143.392 27.9629 143.781L0.929839 133.935C-0.638584 138.241 -0.879925 142.675 -0.614073 146.612L28.0908 144.674ZM27.9629 143.781C27.8645 144.051 27.6511 144.524 27.2384 145.077C26.8157 145.644 26.2745 146.171 25.6479 146.599L9.42341 122.84C5.22427 125.707 2.47852 129.683 0.929838 133.935L27.9629 143.781ZM25.6479 146.599C25.1279 146.954 24.6345 147.171 24.2461 147.295C23.8707 147.415 23.653 147.428 23.6628 147.428L21.7247 118.723C17.6437 118.998 13.3329 120.17 9.42341 122.84L25.6479 146.599ZM23.6628 147.428C23.6438 147.429 23.4667 147.438 23.176 147.383C22.8778 147.328 22.555 147.223 22.2476 147.071L35.0371 121.3C30.7568 119.175 26.1979 118.421 21.7247 118.723L23.6628 147.428ZM22.5012 147.194C22.2405 147.07 21.9369 146.882 21.641 146.624C21.3465 146.366 21.1456 146.115 21.0263 145.933L45.0704 130.134C42.524 126.259 39.0393 123.186 34.7835 121.177L22.5012 147.194ZM21.1231 146.079C20.8989 145.746 20.7686 145.443 20.702 145.234C20.639 145.037 20.6554 144.996 20.6675 145.175L49.3724 143.237C49.0685 138.737 47.7714 134.136 44.9736 129.989L21.1231 146.079ZM20.6675 145.175C20.6814 145.382 20.6581 145.361 20.692 145.167C20.7281 144.96 20.8155 144.636 21.0004 144.262L46.7973 157C49.025 152.488 49.6759 147.733 49.3724 143.237L20.6675 145.175ZM20.924 144.419C21.0179 144.223 21.1832 143.947 21.4404 143.652C21.6989 143.356 21.9744 143.129 22.2162 142.972L37.8843 167.102C41.8313 164.539 44.8714 161.025 46.8737 156.842L20.924 144.419ZM22.1312 143.028C22.4068 142.846 22.6936 142.713 22.9516 142.63C23.2024 142.549 23.3464 142.54 23.3328 142.541L25.2709 171.246C29.6701 170.949 34.0333 169.641 37.9692 167.046L22.1312 143.028ZM25.5225 164.844L23.3976 133.373L-5.30729 135.311L-3.18244 166.782L25.5225 164.844ZM10.0142 148.695L16.4202 148.262L14.4821 119.557L8.0761 119.99L10.0142 148.695ZM1.09867 134.879L1.41798 139.608L30.1229 137.67L29.8036 132.941L1.09867 134.879ZM1.40233 139.339L1.7378 146.226L30.474 144.827L30.1385 137.939L1.40233 139.339ZM1.84257 147.395L2.73405 154.201L31.2607 150.465L30.3692 143.658L1.84257 147.395ZM2.64492 153.302L3.52447 166.329L32.2294 164.391L31.3498 151.364L2.64492 153.302ZM16.9079 151.008L10.201 151.461L12.1391 180.166L18.846 179.713L16.9079 151.008ZM23.7385 165.821C27.1512 165.591 30.6949 164.532 33.899 162.303L17.4685 138.686C19.0226 137.605 20.6234 137.196 21.8004 137.116L23.7385 165.821ZM33.7287 162.42C36.8721 160.299 39.2087 157.43 40.7064 154.181L14.5784 142.138C15.1719 140.85 16.2028 139.538 17.6389 138.569L33.7287 162.42ZM40.644 154.315C42.3498 150.712 42.8039 147.02 42.5795 143.696L13.8746 145.634C13.8281 144.946 13.8926 143.584 14.6408 142.004L40.644 154.315ZM42.5795 143.696C42.3582 140.419 41.4354 136.72 39.1326 133.279L15.2233 149.282C14.1373 147.659 13.9139 146.216 13.8746 145.634L42.5795 143.696ZM39.3138 133.557C37.393 130.539 34.6921 128.011 31.2921 126.332L18.5544 152.129C17.0011 151.362 15.8033 150.2 15.042 149.004L39.3138 133.557ZM31.4765 126.425C28.0019 124.646 24.348 124.074 20.9354 124.304L22.8735 153.009C21.6965 153.089 20.0552 152.898 18.3699 152.036L31.4765 126.425ZM20.9354 124.304C17.5157 124.535 14.0421 125.59 10.9023 127.708L26.9921 151.559C25.5596 152.525 24.0575 152.929 22.8735 153.009L20.9354 124.304ZM10.9023 127.708C7.75885 129.829 5.42226 132.698 3.9246 135.947L30.0526 147.991C29.459 149.278 28.4282 150.59 26.9921 151.559L10.9023 127.708ZM3.9246 135.947C2.24307 139.595 1.8813 143.272 2.09449 146.429L30.7994 144.491C30.8307 144.954 30.83 146.304 30.0526 147.991L3.9246 135.947ZM2.09449 146.429C2.31078 149.633 3.18522 153.129 5.22192 156.419L29.6841 141.276C30.5574 142.686 30.7611 143.925 30.7994 144.491L2.09449 146.429ZM5.31712 156.571C7.23792 159.589 9.9389 162.118 13.3389 163.796L26.0766 137.999C27.6299 138.766 28.8277 139.928 29.5889 141.124L5.31712 156.571ZM13.3389 163.796C16.7349 165.473 20.3189 166.052 23.7385 165.821L21.8004 137.116C22.9845 137.036 24.5272 137.234 26.0766 137.999L13.3389 163.796ZM43.4337 154.047L37.6539 167.22C37.6797 167.231 37.7055 167.242 37.7314 167.253L43.4337 154.047ZM38.549 150.144L26.7596 158.387C26.7791 158.415 26.7987 158.443 26.8185 158.47L38.549 150.144ZM37.6758 137.851L24.8854 131.268C24.8751 131.288 24.8648 131.308 24.8546 131.328L37.6758 137.851ZM41.8196 133.339L49.4773 145.516C49.5254 145.486 49.5733 145.455 49.6211 145.425L41.8196 133.339ZM54.2388 132.414L48.2751 145.504C48.3572 145.542 48.4397 145.578 48.5225 145.614L54.2388 132.414ZM58.8597 136.248L46.9746 144.352C46.9935 144.38 47.0126 144.407 47.0317 144.435L58.8597 136.248ZM60.901 143.452L75.2822 143.787C75.283 143.751 75.2837 143.714 75.2843 143.678L60.901 143.452ZM60.8759 144.361L61.845 158.713C69.2186 158.215 75.0153 152.211 75.2536 144.825L60.8759 144.361ZM42.088 145.629L27.7355 146.598C28.2707 154.525 35.1304 160.517 43.057 159.982L42.088 145.629ZM41.8238 141.717L40.8548 127.365C32.9281 127.9 26.9362 134.759 27.4714 142.686L41.8238 141.717ZM57.0863 140.687L63.8598 153.377C69.8423 150.184 72.7824 143.247 70.9158 136.727C69.0493 130.208 62.8832 125.877 56.1173 126.334L57.0863 140.687ZM54.5851 142.021L40.2327 142.991C40.5615 147.861 43.3376 152.232 47.6059 154.6C51.8742 156.968 57.0523 157.011 61.3586 154.712L54.5851 142.021ZM53.6424 138.932L41.5239 146.683L41.5239 146.683L53.6424 138.932ZM51.4824 137.005L44.929 149.811C45.0352 149.865 45.142 149.918 45.2495 149.97L51.4824 137.005ZM45.4203 137.414L53.3394 149.424C53.3815 149.396 53.4234 149.368 53.4652 149.34L45.4203 137.414ZM43.5419 139.658L56.5923 145.709C56.619 145.651 56.6454 145.593 56.6714 145.535L43.5419 139.658ZM44.1388 147.218L32.0826 155.066C32.1749 155.208 32.2697 155.348 32.3669 155.486L44.1388 147.218ZM46.6514 149.251L40.9491 162.458C41.0981 162.522 41.2481 162.584 41.3991 162.643L46.6514 149.251ZM53.4989 148.962L47.3368 135.963C47.2908 135.985 47.245 136.007 47.1992 136.03L53.4989 148.962ZM55.9653 147.111L65.8591 136.669C63.0505 134.008 59.2884 132.59 55.4222 132.736C51.556 132.882 47.9116 134.579 45.3118 137.445L55.9653 147.111ZM59.795 150.739L71.205 159.5C75.6923 153.655 75.0377 145.365 69.6887 140.297L59.795 150.739ZM55.9853 153.804L62.1353 166.808C62.2019 166.777 62.2683 166.745 62.3345 166.712L55.9853 153.804ZM49.534 140.772C49.151 140.798 48.961 140.773 48.9256 140.768C48.8984 140.763 48.9845 140.775 49.136 140.84L37.7314 167.253C42.2364 169.199 46.9372 169.783 51.4721 169.477L49.534 140.772ZM49.2135 140.874C49.253 140.891 49.4243 140.973 49.6562 141.159C49.8931 141.348 50.1092 141.578 50.2795 141.818L26.8185 158.47C29.642 162.448 33.3947 165.351 37.6539 167.22L49.2135 140.874ZM50.3384 141.901C50.5161 142.156 50.6578 142.439 50.7506 142.713C50.8411 142.979 50.8528 143.14 50.8526 143.137L22.1477 145.075C22.463 149.745 23.918 154.323 26.7596 158.387L50.3384 141.901ZM50.8526 143.137C50.8483 143.073 50.8632 143.197 50.8141 143.458C50.7632 143.729 50.6613 144.051 50.497 144.374L24.8546 131.328C22.5983 135.763 21.8379 140.487 22.1477 145.075L50.8526 143.137ZM50.4662 144.434C50.3825 144.597 50.2407 144.817 50.0324 145.043C49.8243 145.27 49.6215 145.425 49.4773 145.516L34.1619 121.161C30.1934 123.657 27.0359 127.09 24.8854 131.268L50.4662 144.434ZM49.6211 145.425C49.4263 145.55 49.2309 145.637 49.0737 145.687C48.9233 145.735 48.8842 145.725 49.0041 145.717L47.066 117.012C42.5407 117.317 38.0666 118.639 34.0181 121.253L49.6211 145.425ZM49.0041 145.717C49.1021 145.71 49.0499 145.723 48.8846 145.695C48.7127 145.666 48.4974 145.606 48.2751 145.504L60.2024 119.323C55.9421 117.382 51.4587 116.715 47.066 117.012L49.0041 145.717ZM48.5225 145.614C48.2623 145.502 47.9464 145.32 47.6321 145.059C47.3191 144.8 47.1034 144.541 46.9746 144.352L70.7449 128.144C68.0534 124.197 64.3886 121.133 59.955 119.213L48.5225 145.614ZM47.0317 144.435C46.767 144.053 46.6234 143.714 46.555 143.501C46.4911 143.302 46.5148 143.283 46.5305 143.515L75.2354 141.577C74.9282 137.026 73.6221 132.3 70.6878 128.061L47.0317 144.435ZM46.5305 143.515C46.5216 143.383 46.5191 143.292 46.5183 143.252C46.5174 143.21 46.518 143.2 46.5176 143.226L75.2843 143.678C75.2941 143.058 75.2869 142.34 75.2354 141.577L46.5305 143.515ZM46.5197 143.118C46.5133 143.396 46.5061 143.656 46.4983 143.897L75.2536 144.825C75.2644 144.489 75.2739 144.143 75.2822 143.787L46.5197 143.118ZM59.9069 130.008L41.1189 131.277L43.057 159.982L61.845 158.713L59.9069 130.008ZM56.4404 144.66L56.1763 140.748L27.4714 142.686L27.7355 146.598L56.4404 144.66ZM42.7929 156.069L58.0554 155.039L56.1173 126.334L40.8548 127.365L42.7929 156.069ZM50.3129 127.996L47.8117 129.331L61.3586 154.712L63.8598 153.377L50.3129 127.996ZM68.9376 141.052C68.724 137.89 67.8355 134.425 65.7608 131.182L41.5239 146.683C40.5437 145.151 40.2837 143.746 40.2327 142.991L68.9376 141.052ZM65.7608 131.182C63.8124 128.135 61.0794 125.658 57.7152 124.04L45.2495 149.97C43.6708 149.211 42.3778 148.018 41.5239 146.683L65.7608 131.182ZM58.0357 124.199C54.5029 122.392 50.8193 121.855 47.4515 122.082L49.3896 150.787C48.3148 150.859 46.6724 150.703 44.929 149.811L58.0357 124.199ZM47.4515 122.082C44.0738 122.31 40.5685 123.335 37.3754 125.489L53.4652 149.34C51.9795 150.342 50.4744 150.714 49.3896 150.787L47.4515 122.082ZM37.5013 125.405C34.2707 127.536 31.8963 130.465 30.4124 133.78L56.6714 145.535C56.0382 146.95 54.9161 148.384 53.3394 149.424L37.5013 125.405ZM30.4915 133.606C28.8492 137.148 28.4622 140.73 28.6734 143.857L57.3783 141.919C57.423 142.582 57.3801 144.01 56.5923 145.709L30.4915 133.606ZM28.6734 143.857L28.7431 144.889L57.4479 142.951L57.3783 141.919L28.6734 143.857ZM28.7431 144.889C28.9719 148.278 29.9658 151.814 32.0826 155.066L56.1949 139.371C57.091 140.748 57.3894 142.084 57.4479 142.951L28.7431 144.889ZM32.3669 155.486C34.5637 158.614 37.5217 160.978 40.9491 162.458L52.3537 136.045C53.7051 136.628 54.988 137.637 55.9107 138.951L32.3669 155.486ZM41.3991 162.643C44.806 163.98 48.2153 164.298 51.2813 164.091L49.3432 135.386C49.6576 135.365 50.6263 135.358 51.9038 135.859L41.3991 162.643ZM51.2813 164.091C53.9274 163.912 56.884 163.314 59.7987 161.894L47.1992 136.03C48.3298 135.479 49.162 135.398 49.3432 135.386L51.2813 164.091ZM59.6611 161.96C62.3778 160.672 64.7034 158.888 66.6188 156.777L45.3118 137.445C45.7801 136.929 46.4614 136.378 47.3368 135.963L59.6611 161.96ZM46.0716 157.553L49.9012 161.182L69.6887 140.297L65.8591 136.669L46.0716 157.553ZM48.3849 141.979C48.6023 141.696 48.8464 141.451 49.0918 141.253C49.3339 141.059 49.5308 140.948 49.6362 140.896L62.3345 166.712C65.7133 165.05 68.7723 162.668 71.205 159.5L48.3849 141.979ZM49.8354 140.8C50.2068 140.624 50.2028 140.727 49.534 140.772L51.4721 169.477C54.988 169.239 58.6389 168.462 62.1353 166.808L49.8354 140.8ZM64.8335 153.811L50.481 154.78C51.0162 162.707 57.8759 168.699 65.8025 168.164L64.8335 153.811ZM63.2718 130.681L62.3027 116.328C54.3761 116.864 48.3841 123.723 48.9193 131.65L63.2718 130.681ZM69.6777 130.248L84.0302 129.279C83.495 121.353 76.6353 115.361 68.7087 115.896L69.6777 130.248ZM70.119 136.783L57.5835 143.84C60.8804 149.697 67.7932 152.49 74.2333 150.568C80.6734 148.645 84.9241 142.52 84.4714 135.814L70.119 136.783ZM69.0884 134.953L55.4846 130.276C54.1494 134.16 54.5382 138.43 56.553 142.009L69.0884 134.953ZM72.1492 131.032L79.8886 143.157C79.9469 143.12 80.0048 143.083 80.0625 143.045L72.1492 131.032ZM77.6082 129.367L91.9607 128.398C91.4255 120.472 84.5658 114.48 76.6392 115.015L77.6082 129.367ZM78.0262 135.558L77.5623 149.936C81.6244 150.067 85.5524 148.474 88.3753 145.55C91.1981 142.626 92.6524 138.644 92.3787 134.589L78.0262 135.558ZM77.2494 135.568L76.4308 149.93C77.0263 149.963 77.6234 149.96 78.2185 149.92L77.2494 135.568ZM72.1518 137.467L82.5988 147.356C82.6022 147.352 82.6057 147.348 82.6091 147.345L72.1518 137.467ZM71.5404 153.358L72.5094 167.711C80.4361 167.176 86.428 160.316 85.8928 152.389L71.5404 153.358ZM79.1859 152.842L77.6242 129.712L48.9193 131.65L50.481 154.78L79.1859 152.842ZM64.2408 145.033L70.6468 144.601L68.7087 115.896L62.3027 116.328L64.2408 145.033ZM55.3253 131.217L55.7665 137.752L84.4714 135.814L84.0302 129.279L55.3253 131.217ZM82.6544 129.727L81.6238 127.896L56.553 142.009L57.5835 143.84L82.6544 129.727ZM82.6921 139.629C82.4998 140.188 82.1648 140.874 81.626 141.564C81.0844 142.258 80.4693 142.787 79.8886 143.157L64.4097 118.906C60.1369 121.633 57.0919 125.601 55.4846 130.276L82.6921 139.629ZM80.0625 143.045C78.9951 143.748 78.2706 143.741 78.5773 143.72L76.6392 115.015C72.5892 115.288 68.2253 116.391 64.2359 119.019L80.0625 143.045ZM63.2558 130.336L63.6738 136.527L92.3787 134.589L91.9607 128.398L63.2558 130.336ZM78.4901 121.181C77.8387 121.16 77.089 121.161 76.2804 121.215L78.2185 149.92C77.8685 149.944 77.6366 149.938 77.5623 149.936L78.4901 121.181ZM78.0681 121.206C77.1775 121.155 76.3323 121.169 75.5466 121.222L77.4847 149.926C77.215 149.945 76.8589 149.954 76.4308 149.93L78.0681 121.206ZM75.5466 121.222C70.7706 121.544 65.6827 123.367 61.6945 127.589L82.6091 147.345C81.7919 148.21 80.8078 148.889 79.7727 149.337C78.7734 149.771 77.95 149.895 77.4847 149.926L75.5466 121.222ZM61.7047 127.578C56.8473 132.709 56.1548 139.025 56.4506 143.407L85.1555 141.469C85.1592 141.523 85.206 142.222 84.9118 143.306C84.594 144.478 83.9052 145.976 82.5988 147.356L61.7047 127.578ZM56.4506 143.407L57.1879 154.327L85.8928 152.389L85.1555 141.469L56.4506 143.407ZM70.5713 139.006L63.8644 139.459L65.8025 168.164L72.5094 167.711L70.5713 139.006ZM87.1601 147.553L72.7904 148.22C73.0616 154.065 76.8461 159.163 82.3622 161.114C87.8783 163.066 94.0269 161.482 97.9134 157.108L87.1601 147.553ZM86.7805 139.373L76.2019 129.625C73.5979 132.45 72.2327 136.201 72.4108 140.039L86.7805 139.373ZM96.8809 128.412L95.9118 114.059C92.2373 114.307 88.798 115.955 86.3023 118.664L96.8809 128.412ZM104.878 127.872L115.789 137.246C119.566 132.849 120.336 126.614 117.74 121.431C115.145 116.248 109.692 113.129 103.909 113.519L104.878 127.872ZM95.2275 139.105L105.045 149.619C105.43 149.259 105.795 148.879 106.139 148.479L95.2275 139.105ZM91.9366 142.177L82.1193 131.663C81.7926 131.968 81.4802 132.288 81.1833 132.622L91.9366 142.177ZM81.9333 152.657L67.5808 153.626C68.116 161.552 74.9757 167.544 82.9023 167.009L81.9333 152.657ZM79.7794 120.756L78.8103 106.403C70.8837 106.939 64.8918 113.798 65.4269 121.725L79.7794 120.756ZM86.4863 120.303L100.839 119.334C100.304 111.407 93.4439 105.415 85.5172 105.951L86.4863 120.303ZM88.6402 152.204L89.6092 166.556C97.5359 166.021 103.528 159.161 102.993 151.235L88.6402 152.204ZM99.1735 151.493L88.6029 161.249C91.5558 164.449 95.7987 166.138 100.143 165.845L99.1735 151.493ZM90.6927 142.304L78.9296 134.024C75.0282 139.567 75.525 147.081 80.1221 152.061L90.6927 142.304ZM94.5548 136.818L105.236 127.182C102.305 123.933 98.0547 122.195 93.6873 122.459C89.32 122.723 85.3101 124.96 82.7917 128.538L94.5548 136.818ZM107.299 150.944L108.268 165.296C113.764 164.925 118.566 161.448 120.633 156.342C122.7 151.236 121.67 145.398 117.98 141.308L107.299 150.944ZM101.53 146.886L101.15 138.706L72.4108 140.039L72.7904 148.22L101.53 146.886ZM97.3591 149.121L107.459 138.16L86.3023 118.664L76.2019 129.625L97.3591 149.121ZM97.8499 142.764L105.847 142.224L103.909 113.519L95.9118 114.059L97.8499 142.764ZM93.9661 118.498L84.316 129.731L106.139 148.479L115.789 137.246L93.9661 118.498ZM85.4102 128.59L82.1193 131.663L101.754 152.692L105.045 149.619L85.4102 128.59ZM81.1833 132.622L76.4067 137.998L97.9134 157.108L102.69 151.732L81.1833 132.622ZM96.2857 151.688L94.1318 119.787L65.4269 121.725L67.5808 153.626L96.2857 151.688ZM80.7484 135.108L87.4553 134.655L85.5172 105.951L78.8103 106.403L80.7484 135.108ZM72.1339 121.272L74.2877 153.173L102.993 151.235L100.839 119.334L72.1339 121.272ZM87.6711 137.851L80.9642 138.304L82.9023 167.009L89.6092 166.556L87.6711 137.851ZM109.744 141.736L101.263 132.548L80.1221 152.061L88.6029 161.249L109.744 141.736ZM102.456 150.585L106.318 145.098L82.7917 128.538L78.9296 134.024L102.456 150.585ZM83.874 146.454L96.6184 160.58L117.98 141.308L105.236 127.182L83.874 146.454ZM106.33 136.592L98.2044 137.14L100.143 165.845L108.268 165.296L106.33 136.592ZM110.31 150.395L107.507 164.504C107.594 164.522 107.682 164.538 107.769 164.554L110.31 150.395ZM105.889 148.88L92.4632 143.715C89.9274 150.306 92.5517 157.764 98.6567 161.315L105.889 148.88ZM107.8 143.914L114.554 131.213C110.917 129.279 106.626 128.996 102.767 130.437C98.9085 131.878 95.8526 134.904 94.3737 138.749L107.8 143.914ZM111.65 145.295L108.454 159.32C108.564 159.345 108.675 159.369 108.785 159.392L111.65 145.295ZM119.22 144.827L111.314 132.809C111.237 132.86 111.16 132.911 111.084 132.963L119.22 144.827ZM119.249 142.061L112.807 154.923C113.099 155.069 113.396 155.205 113.697 155.331L119.249 142.061ZM117.228 141.549L115.744 155.858L115.744 155.858L117.228 141.549ZM114.447 141.305L113.318 155.646C113.338 155.648 113.357 155.649 113.377 155.651L114.447 141.305ZM111.443 140.947L108.807 155.088C108.934 155.112 109.062 155.134 109.19 155.154L111.443 140.947ZM108.616 140.015L115.038 127.143L115.038 127.143L108.616 140.015ZM106.462 138.173L94.5701 146.268C94.6383 146.368 94.7078 146.467 94.7785 146.566L106.462 138.173ZM106.499 131.045L94.5319 123.062C94.4885 123.127 94.4456 123.192 94.4033 123.258L106.499 131.045ZM110.019 128.172L116.169 141.177C116.236 141.145 116.302 141.113 116.368 141.081L110.019 128.172ZM120.564 126.985L122.572 112.741L122.572 112.741L120.564 126.985ZM124.749 128.214L138.157 133.426C140.822 126.571 137.886 118.81 131.352 115.434L124.749 128.214ZM122.836 133.138L116.38 145.993C120.001 147.811 124.221 148.018 128.002 146.563C131.784 145.108 134.776 142.125 136.244 138.349L122.836 133.138ZM119.35 132.034L117.067 146.237C117.206 146.259 117.345 146.28 117.485 146.298L119.35 132.034ZM112.829 132.69L104.76 120.781L104.76 120.781L112.829 132.69ZM112.72 135.548L106.278 148.41C106.384 148.463 106.49 148.515 106.597 148.565L112.72 135.548ZM117.527 136.39L116.398 150.73C116.552 150.743 116.706 150.752 116.861 150.759L117.527 136.39ZM120.575 136.745L123.21 122.604L123.21 122.604L120.575 136.745ZM123.359 137.68L116.738 150.452C116.915 150.543 117.094 150.631 117.274 150.715L123.359 137.68ZM125.51 139.479L113.827 147.871C113.871 147.933 113.916 147.994 113.961 148.055L125.51 139.479ZM125.467 146.521L137.333 154.654C137.367 154.604 137.401 154.554 137.434 154.504L125.467 146.521ZM121.901 149.353L115.829 136.313C115.803 136.325 115.777 136.337 115.751 136.349L121.901 149.353ZM115.106 136.345C114.248 136.402 113.507 136.354 112.851 136.236L107.769 164.554C110.844 165.106 113.947 165.259 117.044 165.049L115.106 136.345ZM113.114 136.286C112.914 136.246 112.763 136.21 112.656 136.182C112.549 136.154 112.496 136.136 112.49 136.134C112.484 136.132 112.538 136.15 112.641 136.196C112.744 136.242 112.909 136.321 113.121 136.445L98.6567 161.315C101.615 163.035 104.761 163.959 107.507 164.504L113.114 136.286ZM119.315 154.045L121.225 149.079L94.3737 138.749L92.4632 143.715L119.315 154.045ZM101.045 156.614C103.469 157.903 105.989 158.759 108.454 159.32L114.846 131.269C114.623 131.218 114.496 131.176 114.448 131.159C114.401 131.142 114.443 131.154 114.554 131.213L101.045 156.614ZM108.785 159.392C111.436 159.93 114.174 160.147 116.959 159.959L115.021 131.254C114.998 131.256 114.843 131.264 114.515 131.198L108.785 159.392ZM116.959 159.959C118.801 159.834 123.316 159.46 127.356 156.69L111.084 132.963C111.976 132.352 112.77 131.98 113.32 131.759C113.877 131.535 114.32 131.413 114.583 131.35C115.078 131.23 115.279 131.237 115.021 131.254L116.959 159.959ZM127.126 156.845C131.318 154.087 134.909 148.94 134.457 142.243L105.752 144.181C105.604 141.992 106.027 139.524 107.3 137.2C108.519 134.975 110.125 133.591 111.314 132.809L127.126 156.845ZM134.457 142.243C134.28 139.619 133.423 136.647 131.412 133.94C129.435 131.277 126.953 129.69 124.801 128.79L113.697 155.331C112.079 154.654 110.006 153.371 108.314 151.092C106.588 148.768 105.892 146.261 105.752 144.181L134.457 142.243ZM125.691 129.199C123.067 127.884 120.512 127.428 118.712 127.241L115.744 155.858C115.617 155.845 115.296 155.805 114.836 155.688C114.382 155.574 113.664 155.352 112.807 154.923L125.691 129.199ZM118.712 127.241C117.709 127.137 116.642 127.044 115.518 126.96L113.377 155.651C114.278 155.718 115.065 155.787 115.744 155.858L118.712 127.241ZM115.577 126.965C114.985 126.918 114.359 126.844 113.696 126.739L109.19 155.154C110.565 155.372 111.941 155.538 113.318 155.646L115.577 126.965ZM114.079 126.805C114.275 126.842 114.619 126.934 115.038 127.143L102.194 152.887C104.341 153.958 106.57 154.671 108.807 155.088L114.079 126.805ZM115.038 127.143C116.299 127.772 117.375 128.709 118.145 129.781L94.7785 146.566C96.6924 149.23 99.2048 151.395 102.194 152.887L115.038 127.143ZM118.354 130.079C119.684 132.034 119.843 133.698 119.866 134.029L91.1608 135.967C91.3613 138.936 92.1525 142.716 94.5701 146.268L118.354 130.079ZM119.866 134.029C119.909 134.675 119.869 135.489 119.644 136.393C119.416 137.305 119.045 138.132 118.594 138.831L94.4033 123.258C91.8876 127.166 90.8648 131.583 91.1608 135.967L119.866 134.029ZM118.466 139.027C117.511 140.459 116.44 141.048 116.169 141.177L103.869 115.168C100.473 116.774 97.0554 119.279 94.5319 123.062L118.466 139.027ZM116.368 141.081C116.095 141.215 115.949 141.245 115.996 141.234C116.047 141.222 116.262 141.175 116.683 141.147L114.744 112.442C111.154 112.685 107.321 113.468 103.67 115.264L116.368 141.081ZM116.683 141.147C117.209 141.112 117.826 141.127 118.555 141.23L122.572 112.741C119.987 112.377 117.371 112.265 114.744 112.442L116.683 141.147ZM118.555 141.23C118.793 141.263 118.863 141.289 118.8 141.27C118.737 141.252 118.499 141.177 118.147 140.995L131.352 115.434C128.411 113.915 125.361 113.135 122.572 112.741L118.555 141.23ZM111.341 123.003L109.428 127.926L136.244 138.349L138.157 133.426L111.341 123.003ZM129.292 120.283C126.846 119.054 124.14 118.153 121.214 117.77L117.485 146.298C116.883 146.219 116.501 146.053 116.38 145.993L129.292 120.283ZM121.633 117.831C119.509 117.49 117.318 117.365 115.087 117.515L117.025 146.22C116.972 146.224 116.946 146.222 116.949 146.223C116.953 146.223 116.991 146.225 117.067 146.237L121.633 117.831ZM115.087 117.515C112.922 117.662 108.671 118.132 104.76 120.781L120.898 144.599C119.429 145.594 118.176 145.963 117.685 146.088C117.143 146.226 116.874 146.23 117.025 146.22L115.087 117.515ZM104.76 120.781C101.154 123.225 97.0687 128.157 97.5494 135.277L126.254 133.339C126.421 135.806 125.864 138.347 124.581 140.585C123.382 142.677 121.882 143.933 120.898 144.599L104.76 120.781ZM97.5494 135.277C97.9255 140.848 101.135 145.835 106.278 148.41L119.162 122.686C120.836 123.524 122.701 124.94 124.145 127.129C125.582 129.309 126.133 131.546 126.254 133.339L97.5494 135.277ZM106.597 148.565C108.888 149.643 111.117 150.116 112.828 150.351L116.746 121.849C116.806 121.857 117.018 121.888 117.346 121.976C117.668 122.062 118.194 122.226 118.843 122.531L106.597 148.565ZM112.828 150.351C113.986 150.51 115.179 150.634 116.398 150.73L118.657 122.049C117.907 121.99 117.274 121.921 116.746 121.849L112.828 150.351ZM116.861 150.759C117.194 150.775 117.552 150.815 117.939 150.887L123.21 122.604C121.556 122.296 119.883 122.098 118.194 122.02L116.861 150.759ZM117.939 150.887C117.713 150.845 117.279 150.732 116.738 150.452L129.979 124.909C127.768 123.763 125.477 123.026 123.21 122.604L117.939 150.887ZM117.274 150.715C115.833 150.043 114.646 149.012 113.827 147.871L137.193 131.086C135.229 128.352 132.609 126.123 129.444 124.646L117.274 150.715ZM113.961 148.055C112.371 145.914 112.175 143.997 112.146 143.577L140.851 141.639C140.645 138.582 139.789 134.579 137.059 130.902L113.961 148.055ZM112.146 143.577C112.096 142.836 112.152 141.949 112.403 140.995C112.655 140.038 113.053 139.209 113.5 138.539L137.434 154.504C140.01 150.643 141.158 146.182 140.851 141.639L112.146 143.577ZM113.602 138.388C114.608 136.921 115.688 136.378 115.829 136.313L127.973 162.394C131.296 160.847 134.754 158.416 137.333 154.654L113.602 138.388ZM115.751 136.349C116.032 136.216 116.155 136.2 116.04 136.226C115.925 136.253 115.627 136.309 115.106 136.345L117.044 165.049C120.577 164.811 124.404 164.082 128.051 162.358L115.751 136.349ZM131.861 148.94L129.057 163.049C129.144 163.067 129.232 163.083 129.32 163.099L131.861 148.94ZM127.439 147.425L114.013 142.26C111.478 148.851 114.102 156.309 120.207 159.859L127.439 147.425ZM129.35 142.459L136.104 129.758C132.467 127.824 128.176 127.541 124.317 128.982C120.459 130.423 117.403 133.449 115.924 137.293L129.35 142.459ZM133.201 143.84L130.005 157.865C130.115 157.89 130.225 157.914 130.336 157.937L133.201 143.84ZM140.77 143.372L132.864 131.354C132.787 131.405 132.711 131.456 132.634 131.508L140.77 143.372ZM140.799 140.606L134.358 153.468C134.65 153.614 134.946 153.75 135.248 153.876L140.799 140.606ZM138.778 140.094L137.295 154.403L137.295 154.403L138.778 140.094ZM135.998 139.85L134.868 154.191C134.888 154.192 134.907 154.194 134.927 154.195L135.998 139.85ZM132.993 139.492L130.358 153.633C130.485 153.657 130.612 153.679 130.74 153.699L132.993 139.492ZM130.166 138.56L136.589 125.688L136.589 125.688L130.166 138.56ZM128.012 136.718L116.12 144.813C116.189 144.913 116.258 145.012 116.329 145.111L128.012 136.718ZM128.049 129.59L116.082 121.607C116.039 121.672 115.996 121.737 115.954 121.803L128.049 129.59ZM131.569 126.717L137.719 139.722C137.786 139.69 137.852 139.658 137.919 139.626L131.569 126.717ZM142.114 125.53L144.122 111.286L144.122 111.286L142.114 125.53ZM146.3 126.759L159.708 131.971C162.372 125.116 159.436 117.355 152.902 113.979L146.3 126.759ZM144.386 131.683L137.93 144.538C141.551 146.356 145.771 146.563 149.552 145.108C153.334 143.653 156.326 140.67 157.794 136.894L144.386 131.683ZM140.9 130.579L138.617 144.782C138.756 144.804 138.896 144.825 139.035 144.843L140.9 130.579ZM134.379 131.235L126.311 119.326L126.311 119.326L134.379 131.235ZM134.27 134.093L127.828 146.955C127.934 147.008 128.04 147.06 128.147 147.11L134.27 134.093ZM139.078 134.935L137.948 149.275C138.102 149.288 138.256 149.297 138.411 149.304L139.078 134.935ZM142.125 135.29L144.761 121.149L144.761 121.149L142.125 135.29ZM144.909 136.225L138.289 148.997C138.465 149.088 138.644 149.176 138.824 149.26L144.909 136.225ZM147.06 138.024L135.377 146.416C135.421 146.478 135.466 146.539 135.511 146.6L147.06 138.024ZM147.017 145.066L158.883 153.199C158.917 153.149 158.951 153.099 158.984 153.049L147.017 145.066ZM143.451 147.898L137.379 134.858C137.353 134.87 137.327 134.882 137.301 134.894L143.451 147.898ZM136.656 134.889C135.798 134.947 135.057 134.899 134.401 134.781L129.32 163.099C132.395 163.651 135.497 163.803 138.594 163.594L136.656 134.889ZM134.664 134.831C134.464 134.791 134.313 134.755 134.206 134.727C134.099 134.699 134.046 134.681 134.041 134.679C134.035 134.677 134.088 134.695 134.191 134.741C134.294 134.787 134.459 134.866 134.672 134.99L120.207 159.859C123.166 161.58 126.312 162.504 129.057 163.049L134.664 134.831ZM140.865 152.59L142.776 147.624L115.924 137.293L114.013 142.26L140.865 152.59ZM122.596 155.159C125.019 156.448 127.54 157.304 130.005 157.865L136.397 129.814C136.173 129.763 136.046 129.721 135.998 129.704C135.951 129.687 135.994 129.699 136.104 129.758L122.596 155.159ZM130.336 157.937C132.986 158.475 135.724 158.692 138.51 158.504L136.571 129.799C136.548 129.8 136.393 129.809 136.065 129.743L130.336 157.937ZM138.51 158.504C140.352 158.379 144.867 158.005 148.906 155.235L132.634 131.508C133.526 130.897 134.321 130.524 134.87 130.304C135.428 130.08 135.87 129.958 136.134 129.894C136.629 129.775 136.829 129.781 136.571 129.799L138.51 158.504ZM148.676 155.39C152.869 152.632 156.459 147.485 156.007 140.788L127.302 142.726C127.154 140.537 127.577 138.069 128.85 135.745C130.069 133.52 131.676 132.136 132.864 131.354L148.676 155.39ZM156.007 140.788C155.83 138.164 154.973 135.192 152.962 132.485C150.985 129.822 148.503 128.235 146.351 127.335L135.248 153.876C133.629 153.199 131.556 151.916 129.864 149.637C128.138 147.313 127.443 144.806 127.302 142.726L156.007 140.788ZM147.241 127.744C144.617 126.429 142.062 125.973 140.262 125.786L137.295 154.403C137.167 154.39 136.846 154.35 136.386 154.233C135.933 154.119 135.215 153.897 134.358 153.468L147.241 127.744ZM140.262 125.786C139.259 125.682 138.192 125.589 137.068 125.505L134.927 154.195C135.829 154.263 136.615 154.332 137.295 154.403L140.262 125.786ZM137.127 125.51C136.535 125.463 135.909 125.389 135.247 125.284L130.74 153.699C132.115 153.917 133.491 154.083 134.868 154.191L137.127 125.51ZM135.629 125.35C135.825 125.387 136.169 125.479 136.589 125.688L123.744 151.431C125.891 152.503 128.12 153.216 130.358 153.633L135.629 125.35ZM136.589 125.688C137.849 126.317 138.926 127.254 139.695 128.326L116.329 145.111C118.243 147.775 120.755 149.94 123.744 151.431L136.589 125.688ZM139.904 128.624C141.235 130.579 141.394 132.243 141.416 132.574L112.711 134.512C112.911 137.481 113.703 141.261 116.12 144.813L139.904 128.624ZM141.416 132.574C141.46 133.22 141.419 134.034 141.194 134.938C140.967 135.85 140.595 136.677 140.145 137.376L115.954 121.803C113.438 125.711 112.415 130.128 112.711 134.512L141.416 132.574ZM140.016 137.572C139.061 139.004 137.991 139.593 137.719 139.722L125.419 113.713C122.023 115.319 118.606 117.824 116.082 121.607L140.016 137.572ZM137.919 139.626C137.645 139.76 137.499 139.79 137.546 139.779C137.597 139.767 137.812 139.72 138.233 139.692L136.295 110.987C132.704 111.23 128.872 112.013 125.22 113.809L137.919 139.626ZM138.233 139.692C138.759 139.657 139.377 139.672 140.105 139.775L144.122 111.286C141.537 110.922 138.921 110.81 136.295 110.987L138.233 139.692ZM140.105 139.775C140.343 139.808 140.413 139.834 140.351 139.815C140.287 139.797 140.049 139.722 139.697 139.54L152.902 113.979C149.961 112.46 146.911 111.679 144.122 111.286L140.105 139.775ZM132.892 121.548L130.978 126.471L157.794 136.894L159.708 131.971L132.892 121.548ZM150.842 118.828C148.397 117.599 145.691 116.698 142.764 116.315L139.035 144.843C138.433 144.764 138.051 144.598 137.93 144.538L150.842 118.828ZM143.183 116.376C141.06 116.035 138.868 115.91 136.637 116.06L138.575 144.765C138.523 144.769 138.496 144.767 138.499 144.767C138.503 144.768 138.541 144.77 138.617 144.782L143.183 116.376ZM136.637 116.06C134.472 116.207 130.221 116.677 126.311 119.326L142.448 143.144C140.98 144.139 139.726 144.508 139.235 144.633C138.693 144.771 138.424 144.775 138.575 144.765L136.637 116.06ZM126.311 119.326C122.704 121.77 118.619 126.702 119.1 133.822L147.805 131.884C147.971 134.351 147.415 136.892 146.131 139.13C144.932 141.222 143.432 142.478 142.448 143.144L126.311 119.326ZM119.1 133.822C119.476 139.393 122.685 144.38 127.828 146.955L140.712 121.231C142.386 122.069 144.251 123.485 145.695 125.674C147.132 127.854 147.683 130.091 147.805 131.884L119.1 133.822ZM128.147 147.11C130.438 148.188 132.668 148.661 134.378 148.896L138.296 120.394C138.356 120.402 138.569 120.433 138.896 120.521C139.219 120.607 139.745 120.771 140.393 121.076L128.147 147.11ZM134.378 148.896C135.536 149.055 136.729 149.179 137.948 149.275L140.207 120.594C139.457 120.535 138.824 120.466 138.296 120.394L134.378 148.896ZM138.411 149.304C138.744 149.32 139.102 149.36 139.489 149.432L144.761 121.149C143.107 120.841 141.433 120.643 139.745 120.565L138.411 149.304ZM139.489 149.432C139.263 149.39 138.829 149.277 138.289 148.997L151.529 123.454C149.318 122.308 147.028 121.571 144.761 121.149L139.489 149.432ZM138.824 149.26C137.383 148.587 136.197 147.557 135.377 146.416L158.744 129.631C156.78 126.897 154.159 124.668 150.994 123.191L138.824 149.26ZM135.511 146.6C133.921 144.459 133.725 142.542 133.696 142.122L162.401 140.184C162.195 137.127 161.34 133.124 158.609 129.447L135.511 146.6ZM133.696 142.122C133.646 141.381 133.702 140.494 133.954 139.54C134.206 138.583 134.604 137.754 135.051 137.084L158.984 153.049C161.56 149.188 162.708 144.727 162.401 140.184L133.696 142.122ZM135.152 136.933C136.158 135.466 137.239 134.923 137.379 134.858L149.523 160.939C152.846 159.392 156.304 156.961 158.883 153.199L135.152 136.933ZM137.301 134.894C137.583 134.761 137.705 134.745 137.59 134.771C137.475 134.798 137.178 134.854 136.656 134.889L138.594 163.594C142.128 163.356 145.955 162.627 149.601 160.903L137.301 134.894Z" fill="white"/>
<mask id="path-6-outside-1_2218_14871" maskUnits="userSpaceOnUse" x="31.3088" y="33.2208" width="85.8137" height="94.187" fill="black">
<rect fill="white" x="31.3088" y="33.2208" width="85.8137" height="94.187"/>
<path fill-rule="evenodd" clip-rule="evenodd" d="M70.2926 51.012C57.5859 51.8699 47.9806 62.8662 48.8386 75.5729L50.9726 107.18C51.1345 109.578 53.2097 111.391 55.6076 111.229L62.7695 110.745C69.1229 110.316 73.9255 104.818 73.4965 98.4649L70.2926 51.012ZM76.405 98.7505C89.6411 97.8568 99.6466 86.4023 98.753 73.1662C97.8593 59.9301 86.4048 49.9246 73.1687 50.8183L76.405 98.7505Z"/>
</mask>
<path fill-rule="evenodd" clip-rule="evenodd" d="M70.2926 51.012C57.5859 51.8699 47.9806 62.8662 48.8386 75.5729L50.9726 107.18C51.1345 109.578 53.2097 111.391 55.6076 111.229L62.7695 110.745C69.1229 110.316 73.9255 104.818 73.4965 98.4649L70.2926 51.012ZM76.405 98.7505C89.6411 97.8568 99.6466 86.4023 98.753 73.1662C97.8593 59.9301 86.4048 49.9246 73.1687 50.8183L76.405 98.7505Z" fill="white"/>
<path d="M48.8386 75.5729L63.191 74.6038L48.8386 75.5729ZM70.2926 51.012L84.6451 50.043C84.388 46.2365 82.6294 42.6879 79.7561 40.1781C76.8828 37.6682 73.1301 36.4026 69.3236 36.6596L70.2926 51.012ZM50.9726 107.18L36.6202 108.149L50.9726 107.18ZM73.4965 98.4649L59.1441 99.4339L73.4965 98.4649ZM76.405 98.7505L62.0526 99.7195C62.5878 107.646 69.4474 113.638 77.3741 113.103L76.405 98.7505ZM73.1687 50.8183L72.1997 36.4658C64.273 37.001 58.2811 43.8607 58.8163 51.7873L73.1687 50.8183ZM63.191 74.6038C62.8683 69.8238 66.4816 65.6872 71.2617 65.3645L69.3236 36.6596C48.6903 38.0527 33.093 55.9086 34.4861 76.5419L63.191 74.6038ZM65.3251 106.211L63.191 74.6038L34.4861 76.5419L36.6202 108.149L65.3251 106.211ZM54.6385 96.8764C60.1672 96.5032 64.9518 100.682 65.3251 106.211L36.6202 108.149C37.3173 118.474 46.2521 126.278 56.5766 125.581L54.6385 96.8764ZM61.8005 96.3929L54.6385 96.8764L56.5766 125.581L63.7386 125.098L61.8005 96.3929ZM59.1441 99.4339C59.0379 97.8606 60.2272 96.4991 61.8005 96.3929L63.7386 125.098C78.0185 124.134 88.8131 111.776 87.849 97.4958L59.1441 99.4339ZM55.9402 51.9811L59.1441 99.4339L87.849 97.4958L84.6451 50.043L55.9402 51.9811ZM84.4005 74.1353C84.759 79.4447 80.7454 84.0395 75.436 84.398L77.3741 113.103C98.5368 111.674 114.534 93.3599 113.105 72.1972L84.4005 74.1353ZM74.1378 65.1707C79.4472 64.8122 84.042 68.8258 84.4005 74.1353L113.105 72.1972C111.677 51.0344 93.3624 35.0369 72.1997 36.4658L74.1378 65.1707ZM90.7575 97.7814L87.5212 49.8492L58.8163 51.7873L62.0526 99.7195L90.7575 97.7814Z" fill="white" mask="url(#path-6-outside-1_2218_14871)"/>
<path d="M24.0362 156.911C22.0872 157.042 20.3528 156.728 18.833 155.967C17.3132 155.205 16.0786 153.979 15.1294 152.286C14.2069 150.564 13.6547 148.355 13.4727 145.661C13.2889 142.938 13.5249 140.676 14.1807 138.875C14.8365 137.075 15.8663 135.695 17.27 134.737C18.6737 133.778 20.3931 133.23 22.4281 133.093C24.6064 132.946 26.5893 133.316 28.3767 134.203C30.1909 135.059 31.6596 136.342 32.7827 138.051C33.9345 139.759 34.5917 141.816 34.7543 144.224C34.9188 146.66 34.5451 148.802 33.6333 150.648C32.7501 152.493 31.4672 153.962 29.7846 155.054C28.1307 156.145 26.2146 156.764 24.0362 156.911ZM10.9044 165.831L8.77953 134.36L15.1855 133.927L15.5048 138.656L15.8403 145.544L16.7317 152.351L17.6113 165.378L10.9044 165.831ZM22.5039 151.486C23.6217 151.411 24.5931 151.086 25.4181 150.512C26.2718 149.936 26.9247 149.158 27.3768 148.177C27.8555 147.166 28.0504 146.001 27.9614 144.683C27.8704 143.335 27.5207 142.207 26.9123 141.298C26.3325 140.387 25.581 139.704 24.6576 139.248C23.7629 138.79 22.7566 138.599 21.6388 138.674C20.521 138.75 19.5353 139.075 18.6816 139.651C17.8279 140.227 17.175 141.006 16.723 141.986C16.2709 142.967 16.0904 144.131 16.1813 145.478C16.2703 146.796 16.6057 147.925 17.1874 148.865C17.7672 149.776 18.5188 150.46 19.4421 150.915C20.3655 151.371 21.386 151.562 22.5039 151.486ZM50.2375 155.142C47.6006 155.32 45.2441 154.961 43.1681 154.064C41.1207 153.166 39.4925 151.865 38.2834 150.162C37.0723 148.429 36.3893 146.417 36.2345 144.124C36.0778 141.802 36.4697 139.717 37.4102 137.869C38.3774 135.989 39.7587 134.485 41.554 133.356C43.3473 132.199 45.4192 131.54 47.7694 131.382C50.0337 131.229 52.1016 131.579 53.9731 132.431C55.8714 133.253 57.4117 134.531 58.5941 136.265C59.7746 137.971 60.449 140.07 60.6174 142.564C60.6348 142.822 60.6408 143.124 60.6353 143.47C60.628 143.787 60.6196 144.09 60.6103 144.378L41.8224 145.647L41.5582 141.735L56.8207 140.704L54.3195 142.039C54.2382 140.835 53.924 139.806 53.3767 138.95C52.8295 138.094 52.1095 137.452 51.2167 137.023C50.322 136.565 49.3014 136.375 48.155 136.452C47.0085 136.529 46.0084 136.856 45.1547 137.432C44.3277 137.977 43.7016 138.725 43.2763 139.675C42.849 140.597 42.677 141.673 42.7602 142.906L42.8299 143.938C42.915 145.199 43.2628 146.298 43.8732 147.236C44.5103 148.143 45.3478 148.821 46.3858 149.269C47.4505 149.687 48.6708 149.849 50.0466 149.756C51.279 149.673 52.3413 149.414 53.2333 148.979C54.154 148.543 54.9761 147.926 55.6997 147.129L59.5294 150.757C58.5501 152.032 57.2803 153.054 55.7197 153.822C54.1572 154.56 52.3298 155.001 50.2375 155.142ZM64.5679 153.829L63.0061 130.699L69.4121 130.266L69.8533 136.801L68.8227 134.97C69.4003 133.29 70.4206 131.983 71.8836 131.049C73.3446 130.087 75.1643 129.532 77.3426 129.385L77.7606 135.576C77.472 135.567 77.2131 135.57 76.9838 135.585C76.7526 135.572 76.508 135.574 76.25 135.592C74.4157 135.715 72.961 136.346 71.8862 137.484C70.838 138.592 70.3884 140.249 70.5374 142.456L71.2748 153.376L64.5679 153.829ZM86.8944 147.571L86.5149 139.39L96.6153 128.429L104.612 127.889L94.9618 139.122L91.671 142.195L86.8944 147.571ZM81.6676 152.674L79.5138 120.773L86.2207 120.321L88.3746 152.221L81.6676 152.674ZM98.9078 151.51L90.4271 142.322L94.2892 136.835L107.034 150.962L98.9078 151.51ZM115.809 150.715C113.832 150.848 111.91 150.747 110.045 150.413C108.206 150.047 106.732 149.542 105.623 148.897L107.534 143.931C108.639 144.519 109.923 144.979 111.385 145.312C112.874 145.615 114.32 145.719 115.725 145.624C117.272 145.519 118.349 145.26 118.954 144.844C119.588 144.427 119.883 143.889 119.839 143.23C119.802 142.685 119.517 142.301 118.984 142.078C118.477 141.825 117.803 141.654 116.962 141.567C116.121 141.48 115.195 141.398 114.182 141.323C113.198 141.245 112.196 141.126 111.177 140.964C110.157 140.774 109.215 140.463 108.35 140.032C107.486 139.601 106.768 138.987 106.196 138.191C105.653 137.393 105.337 136.334 105.248 135.016C105.149 133.554 105.477 132.236 106.233 131.062C107.018 129.886 108.191 128.929 109.754 128.19C111.314 127.422 113.212 126.963 115.448 126.812C117.024 126.706 118.641 126.769 120.298 127.003C121.955 127.237 123.35 127.646 124.484 128.232L122.57 133.155C121.408 132.571 120.246 132.204 119.084 132.052C117.949 131.869 116.851 131.814 115.79 131.885C114.3 131.986 113.224 132.26 112.564 132.708C111.903 133.156 111.594 133.695 111.636 134.325C111.675 134.899 111.948 135.312 112.454 135.566C112.989 135.818 113.678 136.001 114.521 136.117C115.364 136.233 116.278 136.33 117.262 136.407C118.273 136.454 119.288 136.573 120.309 136.763C121.33 136.953 122.258 137.265 123.093 137.698C123.955 138.1 124.672 138.7 125.244 139.496C125.814 140.264 126.144 141.307 126.233 142.625C126.33 144.059 125.986 145.363 125.202 146.539C124.415 147.686 123.227 148.63 121.635 149.371C120.073 150.11 118.131 150.558 115.809 150.715ZM137.359 149.26C135.382 149.393 133.46 149.292 131.595 148.958C129.756 148.592 128.283 148.087 127.174 147.442L129.084 142.476C130.189 143.064 131.473 143.524 132.935 143.857C134.424 144.16 135.87 144.264 137.275 144.169C138.823 144.064 139.899 143.805 140.505 143.389C141.139 142.972 141.433 142.434 141.389 141.775C141.352 141.23 141.067 140.846 140.534 140.623C140.027 140.37 139.353 140.199 138.513 140.112C137.672 140.025 136.745 139.943 135.732 139.868C134.748 139.79 133.746 139.671 132.728 139.509C131.707 139.319 130.765 139.008 129.901 138.577C129.037 138.146 128.319 137.532 127.746 136.736C127.203 135.938 126.887 134.879 126.798 133.561C126.699 132.099 127.028 130.781 127.783 129.607C128.568 128.431 129.741 127.474 131.304 126.735C132.864 125.967 134.762 125.508 136.998 125.357C138.574 125.251 140.191 125.314 141.848 125.548C143.505 125.782 144.9 126.191 146.034 126.777L144.121 131.7C142.958 131.116 141.796 130.749 140.634 130.597C139.499 130.414 138.401 130.359 137.341 130.43C135.85 130.531 134.775 130.805 134.114 131.253C133.453 131.701 133.144 132.24 133.186 132.87C133.225 133.444 133.498 133.857 134.004 134.111C134.54 134.363 135.229 134.546 136.072 134.662C136.914 134.778 137.828 134.875 138.812 134.952C139.823 134.999 140.839 135.118 141.859 135.308C142.88 135.498 143.808 135.81 144.643 136.243C145.505 136.645 146.223 137.245 146.795 138.041C147.365 138.809 147.694 139.852 147.783 141.17C147.88 142.603 147.536 143.908 146.752 145.084C145.966 146.231 144.777 147.175 143.186 147.916C141.623 148.655 139.681 149.103 137.359 149.26Z" fill="#211F15"/>
<path fill-rule="evenodd" clip-rule="evenodd" d="M70.0348 51.0296C57.3281 51.8875 47.7228 62.8838 48.5808 75.5905L50.7148 107.198C50.8767 109.596 52.9519 111.408 55.3498 111.246L62.5117 110.763C68.865 110.334 73.6677 104.836 73.2387 98.4825L70.0348 51.0296ZM76.147 98.768C89.3831 97.8744 99.3886 86.4199 98.4949 73.1838C97.6013 59.9477 86.1468 49.9422 72.9107 50.8358L76.147 98.768Z" fill="url(#paint0_linear_2218_14871)"/>
</g>
<defs>
<filter id="filter0_d_2218_14871" x="4.23221" y="34.8937" width="148.809" height="137.365" filterUnits="userSpaceOnUse" color-interpolation-filters="sRGB">
<feFlood flood-opacity="0" result="BackgroundImageFix"/>
<feColorMatrix in="SourceAlpha" type="matrix" values="0 0 0 0 0 0 0 0 0 0 0 0 0 0 0 0 0 0 127 0" result="hardAlpha"/>
<feOffset dy="2.47205"/>
<feGaussianBlur stdDeviation="1.97764"/>
<feComposite in2="hardAlpha" operator="out"/>
<feColorMatrix type="matrix" values="0 0 0 0 0.242535 0 0 0 0 0.305594 0 0 0 0 0.529167 0 0 0 0.12 0"/>
<feBlend mode="normal" in2="BackgroundImageFix" result="effect1_dropShadow_2218_14871"/>
<feBlend mode="normal" in="SourceGraphic" in2="effect1_dropShadow_2218_14871" result="shape"/>
</filter>
<linearGradient id="paint0_linear_2218_14871" x1="53.2585" y1="52.1623" x2="71.4464" y2="116.146" gradientUnits="userSpaceOnUse">
<stop stop-color="#EB00FF"/>
<stop offset="1" stop-color="#1BFFE4"/>
</linearGradient>
</defs>
</svg>
