<svg width="50" height="50" viewBox="0 0 50 50" fill="none" xmlns="http://www.w3.org/2000/svg">
<path d="M24.9953 41.6673C19.99 41.6673 12.2969 28.3618 12.2969 21.0324C12.2969 14.0193 17.9821 8.33398 24.9953 8.33398C32.0084 8.33398 37.6937 14.0193 37.6937 21.0324C37.6937 28.3618 30.0005 41.6673 24.9953 41.6673ZM24.9953 40.08C28.8911 40.08 36.1064 27.601 36.1064 21.0324C36.1064 14.8959 31.1318 9.92129 24.9953 9.92129C18.8588 9.92129 13.8842 14.8959 13.8842 21.0324C13.8842 27.601 21.0995 40.08 24.9953 40.08ZM24.9953 25.7943C22.3654 25.7943 20.2334 23.6623 20.2334 21.0324C20.2334 18.4025 22.3654 16.2705 24.9953 16.2705C27.6252 16.2705 29.7572 18.4025 29.7572 21.0324C29.7572 23.6623 27.6252 25.7943 24.9953 25.7943ZM24.9953 24.207C26.7486 24.207 28.1699 22.7857 28.1699 21.0324C28.1699 19.2791 26.7486 17.8578 24.9953 17.8578C23.242 17.8578 21.8207 19.2791 21.8207 21.0324C21.8207 22.7857 23.242 24.207 24.9953 24.207Z" fill="url(#paint0_linear_2218_14243)"/>
<defs>
<linearGradient id="paint0_linear_2218_14243" x1="15.4715" y1="8.33398" x2="24.0473" y2="44.6726" gradientUnits="userSpaceOnUse">
<stop stop-color="#EB00FF"/>
<stop offset="1" stop-color="#1BFFE4"/>
</linearGradient>
</defs>
</svg>
