<svg width="303" height="245" viewBox="0 0 303 245" fill="none" xmlns="http://www.w3.org/2000/svg">
<path d="M74.6343 34.2335C77.0468 35.6393 79.2592 38.3468 81.1318 40.3784C83.4226 42.8638 85.4542 45.6273 87.1275 48.5731C88.1028 50.2902 89.5956 51.5703 90.5365 53.2812C91.1727 54.4382 91.9822 55.6219 92.8902 56.5167C95.0452 58.6402 95.6837 61.7183 97.1162 64.3234C99.5662 68.7788 100.767 73.5869 102.059 78.4859C102.842 81.4547 103.931 84.1624 104.702 87.0854C105.091 88.5635 106.196 92.3903 105.412 93.7346C104.905 94.605 103.056 94.5782 102.739 95.294C102.55 95.721 100.235 96.8483 99.7349 97.024C96.9372 98.0061 94.7582 100.212 91.8562 100.977C89.7261 101.539 85.5992 103.498 83.6029 102.403C80.1859 100.527 77.9491 98.3312 75.6986 95.1906C72.0485 90.0969 68.5752 83.2803 66.8455 77.265C65.2348 71.6637 63.0285 66.1222 62.2767 60.2525C61.8463 56.8921 60.9902 53.6756 60.678 50.3149C60.4199 47.5365 60.2013 44.8319 59.9028 42.0778C59.384 37.2916 59.3473 31.6721 60.6488 27.0406C61.1951 25.0965 67.2452 28.4211 68.0379 29.1361C69.7903 30.7169 71.942 32.4009 73.4895 34.1602" stroke="#07212D" stroke-width="3.67312" stroke-linecap="round"/>
<path d="M65.0147 73.1625C65.4495 76.096 64.0724 79.2119 64.7789 82.229C65.5715 85.6139 65.5264 89.0193 65.9797 92.3965C66.5157 96.3899 66.4677 100.019 67.5218 104.017C68.7949 108.846 72.1945 114.022 75.3112 117.908C76.2986 119.139 77.5976 120.17 78.5576 121.367C78.9276 121.828 79.6025 122.8 79.6025 122.8C79.6025 122.8 78.6676 120.677 78.3731 119.56C77.6062 116.651 76.834 113.723 76.0609 110.79C75.4819 108.594 75.881 106.313 75.4434 104.179C75.1351 102.676 75.7812 101.191 75.3859 99.6921C74.7562 97.3036 72.9625 94.7338 71.6435 92.6124C71.1889 91.8815 67.408 85.086 68.3929 88.8214C69.4086 92.6741 70.0661 96.5908 71.0839 100.451C71.5192 102.102 71.6218 103.915 72.0742 105.63C72.3687 106.747 73.2035 109.454 74.0243 110.181" stroke="#07212D" stroke-width="3.67312" stroke-linecap="round"/>
<path d="M83.4807 72.0451C84.9257 73.0051 85.3448 76.5718 85.9044 78.0759C87.3347 81.9195 88.616 85.8307 89.6624 89.7996C91.2794 95.9329 92.7871 102.587 95.3952 108.381C96.7741 111.445 98.192 115.037 99.0312 118.219C99.3614 119.472 102.732 123.844 100.561 120.067C97.7716 115.216 96.471 109.932 95.0528 104.553C93.6521 99.2401 91.7091 94.0851 90.1584 88.8351C89.5464 86.7627 88.2975 84.6056 87.3222 82.6629C86.4622 80.9498 86.0246 78.8523 84.79 77.3276C83.579 75.832 83.2311 73.7266 82.0775 72.4151" stroke="#07212D" stroke-width="3.67312" stroke-linecap="round"/>
<path d="M97.136 59.8149C98.8433 60.2131 100.35 61.0142 101.937 61.7382C103.15 62.2914 105.524 63.2064 106.44 64.1151C108.927 66.5814 110.544 68.2602 111.909 71.6566C113.601 75.8667 114.711 80.4048 116.961 84.4147C120.032 89.8845 121.993 96.1034 123.676 102.133C124.402 104.735 125.032 107.278 125.715 109.87C125.932 110.691 125.313 109.644 125.127 109.379C124.224 108.093 123.313 106.967 122.614 105.539C120.863 101.962 118.777 96.2106 115.159 94.1025C113.559 93.1699 111.737 92.8435 110.132 92.0306C109.059 91.4871 107.553 92.0222 106.558 91.2844C106.048 90.9054 106.013 90.6398 105.843 89.9932C105.13 87.2908 104.418 84.5884 103.705 81.8859C103.067 79.4659 102.333 77.0423 102.223 74.5231C102.161 73.1037 102.578 71.918 102.2 70.4854C101.868 69.2252 101.536 67.9649 101.204 66.7046C100.967 65.8057 100.295 64.542 101.662 65.4375C106.418 68.5554 107.101 74.8432 108.442 79.9285C109.134 82.5554 110.106 90.7951 113.908 91.4103C115.675 91.6962 116.687 91.7312 117.81 93.0078C117.986 93.2079 117.169 90.683 116.962 90.1881C115.713 87.1981 115.039 83.9834 113.784 80.9796C112.653 78.273 111.092 75.3303 110.254 72.5724C110.067 71.9552 107.89 69.1734 107.888 71.0286C107.884 74.7713 108.542 78.8854 109.491 82.4865C109.653 83.0977 109.905 86.0077 109.424 85.2347C107.916 82.8099 106.01 80.7418 104.956 78.0128C104.707 77.3677 103.297 72.6924 103.75 73.5161C105.544 76.7789 106.621 80.1372 107.561 83.704C107.867 84.863 108.005 86.3216 108.552 87.3822C108.881 88.0199 112.693 89.778 112.966 88.8656C113.389 87.4527 113.165 85.5322 113.481 84.0193C113.894 82.0419 112.65 82.321 110.884 82.0775" stroke="#07212D" stroke-width="3.67312" stroke-linecap="round"/>
<path d="M76.0252 46.6207C76.87 47.674 79.1077 47.1452 79.949 48.7752C80.4803 49.8046 81.0773 50.6239 80.9568 51.8861C80.7538 54.0122 79.3533 56.9986 77.1238 57.5865C74.9891 58.1493 73.2372 58.3807 71.2118 57.4569C69.474 56.6642 66.1538 54.3898 67.5152 52.0534C69.303 48.9854 71.9401 47.1603 75.6315 47.1831C77.1362 47.1924 78.2541 48.4418 78.8897 49.659C80.6022 52.9382 78.0891 54.2284 74.9421 53.6595C73.697 53.4345 72.2137 51.7435 73.721 50.6882C74.9636 49.8183 78.4974 52.8742 75.5547 54.165C74.4865 54.6336 73.1709 54.1806 72.5793 53.1569C72.0711 52.2775 73.1894 53.0424 73.1335 53.6778C73.0364 54.7817 71.8311 53.9685 71.5475 53.5123C70.9201 52.5034 73.0676 51.9712 73.6271 51.7551" stroke="#07212D" stroke-width="3.67312" stroke-linecap="round"/>
<path d="M64.2188 72.9971C63.9 74.9107 63.9119 76.6338 63.2478 78.4847C62.9327 79.3629 62.4048 80.2861 62.256 81.2057C61.9167 83.3024 60.7327 85.0474 60.8175 87.2127C60.8848 88.9342 60.7262 91.0563 61.1719 92.7469C61.8259 95.2275 63.2002 97.2193 64.6054 99.3661C65.5511 100.811 66.1152 102.958 66.56 104.645C66.8634 105.796 67.6009 107.133 68.1599 108.184C68.3408 108.524 67.7253 104.834 67.5199 104.017C66.4633 99.8163 65.3484 95.7809 64.2622 91.6612C63.685 89.4716 63.8181 87.951 65.0003 85.9223" stroke="#07212D" stroke-width="3.67312" stroke-linecap="round"/>
<path d="M113.473 134.887C114.91 135.824 115.996 137.352 117.33 138.453C120.368 140.961 123.986 142.924 127.284 145.074C132.659 148.579 138.229 151.871 143.986 154.713C149.644 157.507 155.323 158.36 161.579 158.948C169.439 159.688 177.356 160.074 185.204 159.026C192.371 158.07 200.987 156.233 204.631 149.2C207.563 143.542 205.354 135.081 202.81 129.598C200.526 124.677 189.396 115.891 184.376 121.559C179.61 126.94 178.513 136.486 179.021 143.29C179.509 149.808 183.205 156.44 186.061 162.15C188.736 167.5 191.401 173.147 196.002 177.115C204.028 184.035 212.895 190.02 219.441 198.511C223.443 203.703 227.217 209.025 228.243 215.627C229.446 223.372 229.232 230.736 228.821 238.496" stroke="#07212D" stroke-width="2.44875" stroke-linecap="round" stroke-dasharray="7.35 7.35"/>
</svg>
