<svg width="50" height="50" viewBox="0 0 50 50" fill="none" xmlns="http://www.w3.org/2000/svg">
<mask id="mask0_1_230" style="mask-type:alpha" maskUnits="userSpaceOnUse" x="8" y="8" width="34" height="34">
<path d="M12.2721 35.216C12.079 35.4091 11.8265 35.5048 11.5741 35.5048C11.3199 35.5048 11.0658 35.4074 10.8711 35.2127C10.4866 34.8249 10.4882 34.1979 10.876 33.8117L14.7606 29.9486C15.1467 29.5609 15.7738 29.5642 16.1599 29.9519C16.546 30.3397 16.5444 30.9668 16.1566 31.3529L12.2721 35.216ZM19.9273 33.6979C20.3118 34.0856 20.3101 34.7127 19.9223 35.0989L13.6104 41.3778C13.4157 41.5709 13.1648 41.6666 12.9124 41.6666C12.6566 41.6666 12.4024 41.5692 12.2094 41.3745C11.8249 40.9867 11.8249 40.3596 12.2143 39.9735L18.5263 33.6946C18.9124 33.3068 19.5395 33.3101 19.9273 33.6979ZM28.561 21.3826C28.8762 21.6961 29.0478 22.1119 29.0478 22.5542C29.0478 22.9964 28.8762 23.4123 28.561 23.7258C27.9075 24.3727 26.8448 24.376 26.1913 23.7258C25.8762 23.4123 25.7045 22.9964 25.7045 22.5542C25.7045 22.1119 25.8762 21.6961 26.1913 21.3826C26.8465 20.7324 27.9092 20.7357 28.561 21.3826ZM24.7953 19.9799C24.1039 20.6664 23.7227 21.5806 23.7227 22.5542C23.7227 23.5278 24.1039 24.442 24.7953 25.1301C25.5065 25.8364 26.4405 26.1912 27.3745 26.1912C28.3102 26.1912 29.2442 25.8364 29.9571 25.1301C30.6485 24.442 31.028 23.5278 31.028 22.5542C31.028 21.5806 30.6485 20.6664 29.9571 19.9782C28.5329 18.5657 26.2161 18.564 24.7953 19.9799ZM35.8548 19.9865C34.066 23.2308 31.8251 26.2209 29.193 28.8727C29.1617 28.9041 29.1501 28.9453 29.1221 28.98C29.0825 29.0328 29.0429 29.084 29.0148 29.145C28.9851 29.2028 28.9686 29.2622 28.9521 29.3249C28.9372 29.3843 28.9224 29.442 28.9174 29.5064C28.9141 29.5757 28.9224 29.6401 28.9323 29.7077C28.9372 29.749 28.929 29.7902 28.9405 29.8315C29.3745 31.419 28.9273 33.1186 27.7722 34.2688L24.3662 37.6566L24.7788 35.0609C25.1022 33.0163 24.4158 30.9206 22.9421 29.4552L20.4306 26.9569C18.952 25.4849 16.8365 24.7968 14.7936 25.1186L12.1863 25.5295L15.579 22.1548C16.7507 20.9898 18.4603 20.5443 20.0494 20.9997C20.0906 21.0113 20.1335 21.003 20.1748 21.0096C20.2457 21.0195 20.3134 21.0294 20.3844 21.0245C20.4454 21.0195 20.4999 21.0063 20.5576 20.9915C20.622 20.9766 20.6847 20.9601 20.7458 20.9304C20.8068 20.9007 20.858 20.8611 20.9108 20.8198C20.9454 20.7934 20.9867 20.7802 21.0197 20.7489C23.6402 18.1449 26.6385 15.9122 29.9389 14.1119C33.0346 12.4188 36.34 11.1399 39.6865 10.229C38.8532 13.635 37.5644 16.9155 35.8548 19.9865ZM41.1106 8.89563C40.6337 8.41873 39.9588 8.23061 39.2954 8.38737C35.7046 9.25702 32.2376 10.5986 28.99 12.3742C25.6897 14.1746 22.6831 16.4007 20.0263 18.9733C17.914 18.5706 15.7243 19.2192 14.183 20.7505L8.62519 26.2803C8.3199 26.5839 8.24729 27.0476 8.44037 27.4305C8.63344 27.8117 9.04268 28.0278 9.47668 27.9602L15.1005 27.0757C16.5328 26.8529 18.0015 27.3331 19.0362 28.3612L21.5461 30.8579C22.5692 31.8777 23.0461 33.3332 22.8233 34.7507L21.9322 40.3448C21.8646 40.7672 22.0774 41.1864 22.4603 41.3811C22.6039 41.4554 22.7573 41.49 22.9108 41.49C23.1682 41.49 23.419 41.391 23.6088 41.2012L29.1666 35.6715C30.693 34.1566 31.3482 31.9784 30.9653 29.8727C33.5643 27.1862 35.797 24.1912 37.5875 20.9453C39.3812 17.7241 40.7344 14.2785 41.6106 10.7009C41.7707 10.0458 41.5842 9.37088 41.1106 8.89563Z" fill="white"/>
</mask>
<g mask="url(#mask0_1_230)">
<path d="M45 5H5V45H45V5Z" fill="url(#paint0_linear_1_230)"/>
</g>
<defs>
<linearGradient id="paint0_linear_1_230" x1="10" y1="5" x2="18.0182" y2="49.5933" gradientUnits="userSpaceOnUse">
<stop stop-color="#EB00FF"/>
<stop offset="1" stop-color="#1BFFE4"/>
</linearGradient>
</defs>
</svg>
