<svg width="50" height="50" viewBox="0 0 50 50" fill="none" xmlns="http://www.w3.org/2000/svg">
<mask id="mask0_1_242" style="mask-type:alpha" maskUnits="userSpaceOnUse" x="9" y="8" width="32" height="34">
<path d="M25 40.0793C30.1361 40.0793 34.43 39.5374 37.8783 38.4604C38.6346 38.2242 39.1008 37.4664 38.9709 36.6849L38.3012 32.6587C38.004 30.8715 36.5342 29.5126 34.7293 29.3563C31.7439 29.0976 28.5007 28.9682 25 28.9682C21.4992 28.9682 18.256 29.0976 15.2706 29.3563C13.4657 29.5126 11.9959 30.8716 11.6987 32.6587L11.0291 36.6849C10.8991 37.4664 11.3653 38.2242 12.1216 38.4604C15.5699 39.5374 19.8638 40.0793 25 40.0793ZM25 41.6666C19.7143 41.6666 15.2649 41.1051 11.6484 39.9755C10.1358 39.5031 9.20328 37.9876 9.46326 36.4244L10.1329 32.3983C10.549 29.8963 12.6068 27.9938 15.1336 27.7749C18.1664 27.5121 21.4551 27.3809 25 27.3809C28.5448 27.3809 31.8335 27.5121 34.8663 27.7749C37.3931 27.9938 39.4509 29.8963 39.867 32.3983L40.5367 36.4244C40.7966 37.9876 39.8641 39.5031 38.3515 39.9755C34.735 41.1051 30.2856 41.6666 25 41.6666ZM18.6508 16.2698C18.6508 19.7769 21.4931 22.619 25 22.619C28.5071 22.619 31.3492 19.7766 31.3492 16.2698C31.3492 12.7626 28.5068 9.92055 25 9.92055C21.4928 9.92055 18.6508 12.7629 18.6508 16.2698ZM17.0634 16.2698C17.0634 11.8863 20.6162 8.33325 25 8.33325C29.3835 8.33325 32.9365 11.886 32.9365 16.2698C32.9365 20.6533 29.3838 24.2063 25 24.2063C20.6165 24.2063 17.0634 20.6536 17.0634 16.2698Z" fill="white"/>
</mask>
<g mask="url(#mask0_1_242)">
<path d="M44.0474 6.74585H5.95215V44.8411H44.0474V6.74585Z" fill="url(#paint0_linear_1_242)"/>
</g>
<defs>
<linearGradient id="paint0_linear_1_242" x1="10.7141" y1="6.74585" x2="18.3504" y2="49.2156" gradientUnits="userSpaceOnUse">
<stop stop-color="#EB00FF"/>
<stop offset="1" stop-color="#1BFFE4"/>
</linearGradient>
</defs>
</svg>
