<svg width="40" height="40" viewBox="0 0 40 40" fill="none" xmlns="http://www.w3.org/2000/svg">
<mask id="mask0_1_320" style="mask-type:alpha" maskUnits="userSpaceOnUse" x="6" y="9" width="28" height="22">
<path d="M10.8991 10.6758C9.41472 10.7812 8.22656 11.9488 8.09527 13.4312C7.95107 15.0592 7.87887 16.8449 7.87887 18.7879C7.87887 20.7783 7.95464 22.6806 8.10609 24.4946C8.23721 26.0649 9.55005 27.2727 11.1259 27.2727H28.8743C30.4501 27.2727 31.763 26.0649 31.8941 24.4946C32.0455 22.6806 32.1213 20.7783 32.1213 18.7879C32.1213 16.8453 32.0491 15.06 31.905 13.4323C31.7737 11.9497 30.5851 10.7819 29.1004 10.6768C25.5778 10.4276 22.5374 10.303 19.9804 10.303C17.4268 10.303 14.3994 10.4272 10.8991 10.6758ZM10.8132 9.46674C14.3403 9.21625 17.3956 9.09091 19.9804 9.09091C22.5686 9.09091 25.6367 9.21658 29.1859 9.46773C31.2645 9.61481 32.9286 11.2497 33.1124 13.3254C33.2598 14.9903 33.3334 16.811 33.3334 18.7879C33.3334 20.8113 33.2563 22.7471 33.102 24.5954C32.9184 26.7939 31.0805 28.4848 28.8743 28.4848H11.1259C8.91971 28.4848 7.08173 26.7939 6.89817 24.5954C6.74386 22.7471 6.66675 20.8113 6.66675 18.7879C6.66675 16.8105 6.74039 14.9894 6.88787 13.3242C7.07168 11.249 8.73511 9.61432 10.8132 9.46674ZM17.9084 15.148C17.5782 15.0935 17.2663 15.317 17.2117 15.6473C17.0506 16.6231 16.9698 17.6831 16.9698 18.8273C16.9698 19.9552 17.0483 20.9906 17.2048 21.9332C17.2153 21.9965 17.2358 22.0577 17.2654 22.1145C17.4204 22.4112 17.7865 22.5262 18.0832 22.3712L23.9139 19.3265C24.0236 19.2692 24.1131 19.1797 24.1705 19.07C24.3255 18.7733 24.2107 18.4072 23.914 18.2522L18.0904 15.2088C18.0334 15.179 17.9719 15.1585 17.9084 15.148ZM24.4754 17.1779C25.3654 17.643 25.7098 18.7414 25.2447 19.6314C25.0728 19.9605 24.8041 20.2291 24.4749 20.401L18.6443 23.4457C17.7542 23.9105 16.6558 23.5657 16.191 22.6756C16.1019 22.5051 16.0405 22.3215 16.009 22.1317C15.8412 21.1206 15.7577 20.0193 15.7577 18.8273C15.7577 17.6191 15.8435 16.4933 16.0158 15.4498C16.1794 14.4591 17.1152 13.7885 18.1059 13.9521C18.2964 13.9835 18.4807 14.0451 18.6518 14.1346L24.4754 17.1779ZM13.3334 30.9091C12.9987 30.9091 12.7274 30.6377 12.7274 30.303C12.7274 29.9683 12.9987 29.697 13.3334 29.697H26.6659C27.0006 29.697 27.272 29.9683 27.272 30.303C27.272 30.6377 27.0006 30.9091 26.6659 30.9091H13.3334Z" fill="white"/>
</mask>
<g mask="url(#mask0_1_320)">
<path d="M34.5455 4.24243H5.45459V33.3333H34.5455V4.24243Z" fill="url(#paint0_linear_1_320)"/>
</g>
<defs>
<linearGradient id="paint0_linear_1_320" x1="9.09095" y1="4.24243" x2="14.9224" y2="36.6739" gradientUnits="userSpaceOnUse">
<stop stop-color="#EB00FF"/>
<stop offset="1" stop-color="#1BFFE4"/>
</linearGradient>
</defs>
</svg>
